<svg width="16" height="14" viewBox="0 0 16 14" fill="none" xmlns="http://www.w3.org/2000/svg">
<path d="M8.625 6.375V3.375C8.625 3.17609 8.54598 2.98532 8.40533 2.84467C8.26468 2.70402 8.07391 2.625 7.875 2.625C7.67609 2.625 7.48532 2.70402 7.34467 2.84467C7.20402 2.98532 7.125 3.17609 7.125 3.375V7.125C7.125 7.32391 7.20402 7.51468 7.34467 7.65533C7.48532 7.79598 7.67609 7.875 7.875 7.875H10.375C10.5739 7.875 10.7647 7.79598 10.9053 7.65533C11.046 7.51468 11.125 7.32391 11.125 7.125C11.125 6.92609 11.046 6.73532 10.9053 6.59467C10.7647 6.45402 10.5739 6.375 10.375 6.375H8.625ZM1.67888 4.417C0.908875 4.05963 0.375 3.27962 0.375 2.375C0.375 1.13238 1.38238 0.125 2.625 0.125C3.431 0.125 4.13788 0.54875 4.53525 1.18563C3.2624 1.92999 2.26139 3.06242 1.67888 4.417ZM11.4648 1.18563C11.8621 0.54875 12.569 0.125 13.375 0.125C14.6176 0.125 15.625 1.13238 15.625 2.375C15.625 3.27962 15.0911 4.05963 14.3211 4.417C13.7386 3.06242 12.7376 1.92999 11.4648 1.18563ZM8 13.25C4.61725 13.25 1.875 10.5078 1.875 7.125C1.875 3.74225 4.61725 1 8 1C11.3828 1 14.125 3.74225 14.125 7.125C14.125 10.5078 11.3828 13.25 8 13.25Z" fill="white"/>
</svg>
