<svg width="203" height="7" viewBox="0 0 203 7" fill="none" xmlns="http://www.w3.org/2000/svg">
<path d="M202.887 3.5L200 0.613249L197.113 3.5L200 6.38675L202.887 3.5ZM0 4H1V3H0V4ZM3 4H5V3H3V4ZM7 4H9V3H7V4ZM11 4H13V3H11V4ZM15 4H17V3H15V4ZM19 4H21V3H19V4ZM23 4H25V3H23V4ZM27 4H29V3H27V4ZM31 4H33V3H31V4ZM35 4H37V3H35V4ZM39 4H41V3H39V4ZM43 4H45V3H43V4ZM47 4H49V3H47V4ZM51 4H53V3H51V4ZM55 4H57V3H55V4ZM59 4H61V3H59V4ZM63 4H65V3H63V4ZM67 4H69V3H67V4ZM71 4H73V3H71V4ZM75 4H77V3H75V4ZM79 4H81V3H79V4ZM83 4H85V3H83V4ZM87 4H89V3H87V4ZM91 4H93V3H91V4ZM95 4H97V3H95V4ZM99 4H101V3H99V4ZM103 4H105V3H103V4ZM107 4H109V3H107V4ZM111 4H113V3H111V4ZM115 4H117V3H115V4ZM119 4H121V3H119V4ZM123 4H125V3H123V4ZM127 4H129V3H127V4ZM131 4H133V3H131V4ZM135 4H137V3H135V4ZM139 4H141V3H139V4ZM143 4H145V3H143V4ZM147 4H149V3H147V4ZM151 4H153V3H151V4ZM155 4H157V3H155V4ZM159 4H161V3H159V4ZM163 4H165V3H163V4ZM167 4H169V3H167V4ZM171 4H173V3H171V4ZM175 4H177V3H175V4ZM179 4H181V3H179V4ZM183 4H185V3H183V4ZM187 4H189V3H187V4ZM191 4H193V3H191V4ZM195 4H197V3H195V4ZM199 4H200V3H199V4Z" fill="#048FFF"/>
</svg>
