<svg width="182" height="196" viewBox="0 0 182 196" fill="none" xmlns="http://www.w3.org/2000/svg">
<path d="M22.8432 170.255C17.4704 148.767 14.9089 114.467 32.8577 106.716C52.2423 98.3454 65.8834 117.486 78.0885 130.05C90.9458 143.285 111.104 158.768 125.114 148.716C143.127 135.793 125.013 88.5677 121.894 74.7356C118.774 60.9036 109.155 13.144 147.371 20.1905" stroke="url(#paint0_linear)"/>
<g filter="url(#filter0_d)">
<path d="M22.688 173.227C22.5462 173.153 22.3774 173.152 22.2351 173.225L16.7054 176.055C16.347 176.239 16.347 176.751 16.7054 176.934L22.2351 179.764C22.3774 179.837 22.5462 179.837 22.688 179.763L28.1248 176.933C28.4792 176.748 28.4792 176.241 28.1248 176.057L22.688 173.227Z" fill="#333333" fill-opacity="0.01"/>
</g>
<path fill-rule="evenodd" clip-rule="evenodd" d="M23.5086 161.539L28.4461 164.361C29.1383 164.756 29.5656 165.492 29.5656 166.29V171.889C29.5656 172.686 29.1383 173.422 28.4461 173.818L23.5086 176.639C22.8255 177.029 21.9869 177.029 21.3039 176.639L16.3664 173.818C15.6741 173.422 15.2469 172.686 15.2469 171.889V166.29C15.2469 165.492 15.6741 164.756 16.3664 164.361L21.3039 161.539C21.9869 161.149 22.8255 161.149 23.5086 161.539ZM28.5685 164.146C29.3377 164.586 29.8124 165.404 29.8124 166.29V171.889C29.8124 172.775 29.3377 173.593 28.5685 174.032L23.6311 176.853C22.8721 177.287 21.9403 177.287 21.1814 176.853L16.2439 174.032C15.4747 173.593 15 172.775 15 171.889V166.29C15 165.404 15.4747 164.586 16.2439 164.146L21.1814 161.325C21.9403 160.891 22.8721 160.891 23.6311 161.325L28.5685 164.146Z" fill="#E6B800"/>
<path d="M29.1071 166.633C29.1071 165.752 28.6377 164.938 27.8753 164.497L23.6432 162.047C22.878 161.604 21.9344 161.604 21.1693 162.047L16.9372 164.497C16.1748 164.938 15.7054 165.752 15.7054 166.633V171.545C15.7054 172.426 16.1748 173.241 16.9372 173.682L21.1693 176.132C21.9344 176.575 22.878 176.575 23.6432 176.132L27.8753 173.682C28.6377 173.241 29.1071 172.426 29.1071 171.545V166.633Z" fill="#FFD464"/>
<path d="M22.4064 169.975C22.4064 169.025 21.8613 168.159 21.0046 167.749L16.8841 165.774C16.3379 165.512 15.7056 165.911 15.7056 166.516V171.545C15.7056 172.426 16.175 173.24 16.9374 173.681L21.1712 176.133C21.7198 176.45 22.4064 176.054 22.4064 175.42L22.4064 172.968L22.4064 169.975Z" fill="#ECAC07"/>
<path d="M29.1071 166.519C29.1071 165.913 28.4739 165.514 27.9276 165.777L23.8052 167.759C22.95 168.171 22.4062 169.035 22.4062 169.984V175.345C22.4062 175.345 22.4005 175.855 22.2818 176.026C22.18 176.173 22.0165 176.275 21.8685 176.307C21.6548 176.352 21.4354 176.282 21.4354 176.282V176.282C22.0357 176.632 22.7775 176.633 23.3788 176.285L27.8753 173.682C28.6377 173.241 29.1071 172.426 29.1071 171.545V166.519Z" fill="#FCB500"/>
<g filter="url(#filter1_d)">
<path d="M152.865 25.4969C153.147 25.3504 153.481 25.3493 153.764 25.4938L165.39 31.4441C166.101 31.808 166.101 32.8241 165.39 33.188L153.764 39.1383C153.481 39.2828 153.147 39.2817 152.865 39.1352L141.434 33.1849C140.731 32.819 140.731 31.8131 141.434 31.4472L152.865 25.4969Z" fill="#333333" fill-opacity="0.01"/>
</g>
<path fill-rule="evenodd" clip-rule="evenodd" d="M151.241 1.07053L140.711 7.08765C139.337 7.87244 138.49 9.33296 138.49 10.9148V22.8619C138.49 24.4437 139.337 25.9042 140.711 26.689L151.241 32.7061C152.596 33.4805 154.259 33.4805 155.614 32.7061L166.144 26.689C167.518 25.9042 168.365 24.4437 168.365 22.8619V10.9148C168.365 9.33296 167.518 7.87244 166.144 7.08765L155.614 1.07053C154.259 0.296175 152.596 0.296175 151.241 1.07053ZM140.468 6.66241C138.942 7.5344 138 9.15721 138 10.9148V22.8619C138 24.6194 138.942 26.2422 140.468 27.1142L150.998 33.1313C152.503 33.9917 154.352 33.9917 155.857 33.1313L166.387 27.1142C167.913 26.2422 168.855 24.6194 168.855 22.8619V10.9148C168.855 9.15721 167.913 7.5344 166.387 6.66241L155.857 0.645299C154.352 -0.2151 152.503 -0.2151 150.998 0.645299L140.468 6.66241Z" fill="#00A14A"/>
<path d="M139.467 11.6325C139.467 9.88488 140.398 8.26964 141.911 7.39399L150.971 2.14835C152.489 1.26956 154.361 1.26956 155.879 2.14835L164.94 7.39399C166.452 8.26964 167.383 9.88488 167.383 11.6325V22.1473C167.383 23.895 166.452 25.5102 164.94 26.3858L155.879 31.6315C154.361 32.5103 152.489 32.5103 150.971 31.6315L141.911 26.3858C140.398 25.5102 139.467 23.895 139.467 22.1473V11.6325Z" fill="#00A14A"/>
<path d="M153.427 18.5806C153.427 16.6959 154.508 14.9784 156.208 14.1639L165.047 9.92796C166.131 9.40863 167.385 10.1985 167.385 11.4002V22.146C167.385 23.8936 166.454 25.5089 164.941 26.3845L155.877 31.6321C154.789 32.2622 153.427 31.4769 153.427 30.2193L153.427 24.9697L153.427 18.5806Z" fill="#079649"/>
<path d="M139.467 11.4021C139.467 10.1995 140.723 9.40969 141.807 9.93085L150.65 14.183C152.346 14.9987 153.425 16.7145 153.425 18.5969V29.9175C153.425 29.9175 153.437 30.9791 153.684 31.3364C153.896 31.6427 154.237 31.8544 154.545 31.9205C154.99 32.016 155.447 31.8698 155.447 31.8698V31.8698C154.197 32.5989 152.652 32.6013 151.399 31.8761L141.911 26.3827C140.398 25.5071 139.467 23.8918 139.467 22.1442V11.4021Z" fill="#0BA853"/>
<defs>
<filter id="filter0_d" x="0.436584" y="157.171" width="43.954" height="38.6476" filterUnits="userSpaceOnUse" color-interpolation-filters="sRGB">
<feFlood flood-opacity="0" result="BackgroundImageFix"/>
<feColorMatrix in="SourceAlpha" type="matrix" values="0 0 0 0 0 0 0 0 0 0 0 0 0 0 0 0 0 0 127 0" result="hardAlpha"/>
<feOffset/>
<feGaussianBlur stdDeviation="8"/>
<feColorMatrix type="matrix" values="0 0 0 0 1 0 0 0 0 0.8 0 0 0 0 0 0 0 0 0.4 0"/>
<feBlend mode="normal" in2="BackgroundImageFix" result="effect1_dropShadow"/>
<feBlend mode="normal" in="SourceGraphic" in2="effect1_dropShadow" result="shape"/>
</filter>
<filter id="filter1_d" x="124.907" y="9.38623" width="57.0165" height="45.8597" filterUnits="userSpaceOnUse" color-interpolation-filters="sRGB">
<feFlood flood-opacity="0" result="BackgroundImageFix"/>
<feColorMatrix in="SourceAlpha" type="matrix" values="0 0 0 0 0 0 0 0 0 0 0 0 0 0 0 0 0 0 127 0" result="hardAlpha"/>
<feOffset/>
<feGaussianBlur stdDeviation="8"/>
<feColorMatrix type="matrix" values="0 0 0 0 0 0 0 0 0 0.631373 0 0 0 0 0.290196 0 0 0 0.5 0"/>
<feBlend mode="normal" in2="BackgroundImageFix" result="effect1_dropShadow"/>
<feBlend mode="normal" in="SourceGraphic" in2="effect1_dropShadow" result="shape"/>
</filter>
<linearGradient id="paint0_linear" x1="36.5477" y1="19.4854" x2="134.214" y2="19.4854" gradientUnits="userSpaceOnUse">
<stop stop-color="#FBB502"/>
<stop offset="0.599578" stop-color="#07A24A"/>
<stop offset="1" stop-color="#0267FF"/>
</linearGradient>
</defs>
</svg>
