<svg width="189" height="208" viewBox="0 0 189 208" fill="none" xmlns="http://www.w3.org/2000/svg">
<path d="M22.8433 182.255C17.4705 160.767 14.909 126.467 32.8577 118.716C52.2424 110.345 65.8834 129.486 78.0886 142.05C90.9459 155.285 111.104 170.768 125.114 160.716C143.127 147.793 125.013 100.568 121.894 86.7356C118.774 72.9036 109.155 25.144 147.371 32.1905" stroke="url(#paint0_linear)"/>
<g filter="url(#filter0_d)">
<path d="M22.6881 185.227C22.5463 185.153 22.3775 185.152 22.2351 185.225L16.7054 188.055C16.347 188.239 16.347 188.751 16.7054 188.934L22.2351 191.764C22.3775 191.837 22.5463 191.837 22.6881 191.763L28.1249 188.933C28.4792 188.748 28.4792 188.241 28.1249 188.057L22.6881 185.227Z" fill="#333333" fill-opacity="0.01"/>
</g>
<path fill-rule="evenodd" clip-rule="evenodd" d="M23.5086 173.539L28.4461 176.361C29.1384 176.756 29.5656 177.492 29.5656 178.29V183.889C29.5656 184.686 29.1384 185.422 28.4461 185.818L23.5086 188.639C22.8256 189.029 21.987 189.029 21.3039 188.639L16.3664 185.818C15.6742 185.422 15.2469 184.686 15.2469 183.889V178.29C15.2469 177.492 15.6742 176.756 16.3664 176.361L21.3039 173.539C21.987 173.149 22.8256 173.149 23.5086 173.539ZM28.5686 176.146C29.3378 176.586 29.8125 177.404 29.8125 178.29V183.889C29.8125 184.775 29.3378 185.593 28.5686 186.032L23.6311 188.853C22.8721 189.287 21.9404 189.287 21.1814 188.853L16.244 186.032C15.4748 185.593 15 184.775 15 183.889V178.29C15 177.404 15.4748 176.586 16.244 176.146L21.1814 173.325C21.9404 172.891 22.8721 172.891 23.6311 173.325L28.5686 176.146Z" fill="#E6B800"/>
<path d="M29.1072 178.633C29.1072 177.752 28.6378 176.938 27.8754 176.497L23.6432 174.047C22.8781 173.604 21.9345 173.604 21.1694 174.047L16.9372 176.497C16.1749 176.938 15.7054 177.752 15.7054 178.633V183.545C15.7054 184.426 16.1749 185.241 16.9372 185.682L21.1694 188.132C21.9345 188.575 22.8781 188.575 23.6432 188.132L27.8754 185.682C28.6378 185.241 29.1072 184.426 29.1072 183.545V178.633Z" fill="#FFD464"/>
<path d="M22.4065 181.975C22.4065 181.025 21.8614 180.159 21.0047 179.749L16.8842 177.774C16.3379 177.512 15.7056 177.911 15.7056 178.516V183.545C15.7056 184.426 16.175 185.24 16.9374 185.681L21.1713 188.133C21.7199 188.45 22.4065 188.054 22.4065 187.42L22.4065 184.968L22.4065 181.975Z" fill="#ECAC07"/>
<path d="M29.1072 178.519C29.1072 177.913 28.474 177.514 27.9277 177.777L23.8052 179.759C22.9501 180.171 22.4063 181.035 22.4063 181.984V187.345C22.4063 187.345 22.4005 187.855 22.2818 188.026C22.1801 188.173 22.0165 188.275 21.8686 188.307C21.6549 188.352 21.4355 188.282 21.4355 188.282C22.0357 188.632 22.7776 188.633 23.3789 188.285L27.8754 185.682C28.6378 185.241 29.1072 184.426 29.1072 183.545V178.519Z" fill="#FCB500"/>
<g filter="url(#filter1_d)">
<g filter="url(#filter2_d)">
<path d="M152.865 37.4969C153.147 37.3504 153.481 37.3493 153.764 37.4938L165.39 43.4441C166.101 43.808 166.101 44.8241 165.39 45.188L153.764 51.1383C153.481 51.2828 153.147 51.2817 152.865 51.1352L141.434 45.1849C140.731 44.819 140.731 43.8131 141.434 43.4472L152.865 37.4969Z" fill="#333333" fill-opacity="0.01"/>
</g>
<path fill-rule="evenodd" clip-rule="evenodd" d="M151.241 13.0705L140.711 19.0876C139.337 19.8724 138.49 21.333 138.49 22.9148V34.8619C138.49 36.4437 139.337 37.9042 140.711 38.689L151.241 44.7061C152.596 45.4805 154.259 45.4805 155.615 44.7061L166.144 38.689C167.518 37.9042 168.365 36.4437 168.365 34.8619V22.9148C168.365 21.333 167.518 19.8724 166.144 19.0876L155.615 13.0705C154.259 12.2962 152.596 12.2962 151.241 13.0705ZM140.468 18.6624C138.942 19.5344 138 21.1572 138 22.9148V34.8619C138 36.6194 138.942 38.2422 140.468 39.1142L150.998 45.1313C152.503 45.9917 154.352 45.9917 155.858 45.1313L166.387 39.1142C167.913 38.2422 168.855 36.6194 168.855 34.8619V22.9148C168.855 21.1572 167.913 19.5344 166.387 18.6624L155.858 12.6453C154.352 11.7849 152.503 11.7849 150.998 12.6453L140.468 18.6624Z" fill="#00A14A"/>
<path d="M139.467 23.6325C139.467 21.8849 140.398 20.2696 141.911 19.394L150.971 14.1484C152.489 13.2696 154.361 13.2696 155.879 14.1484L164.94 19.394C166.452 20.2696 167.384 21.8849 167.384 23.6325V34.1473C167.384 35.895 166.452 37.5102 164.94 38.3858L155.879 43.6315C154.361 44.5103 152.489 44.5103 150.971 43.6315L141.911 38.3858C140.398 37.5102 139.467 35.895 139.467 34.1473V23.6325Z" fill="#00A14A"/>
<path d="M153.427 30.5801C153.427 28.6954 154.508 26.9779 156.208 26.1634L165.047 21.9275C166.131 21.4081 167.385 22.198 167.385 23.3997V34.1455C167.385 35.8932 166.454 37.5084 164.941 38.384L155.877 43.6316C154.789 44.2618 153.427 43.4764 153.427 42.2188L153.427 36.9692L153.427 30.5801Z" fill="#079649"/>
<path d="M139.467 23.4026C139.467 22.2 140.723 21.4102 141.807 21.9313L150.65 26.1835C152.346 26.9992 153.425 28.715 153.425 30.5974V41.918C153.425 41.918 153.437 42.9796 153.685 43.3369C153.896 43.6431 154.237 43.8548 154.545 43.921C154.991 44.0165 155.447 43.8703 155.447 43.8703C154.197 44.5994 152.652 44.6018 151.399 43.8766L141.911 38.3832C140.398 37.5075 139.467 35.8923 139.467 34.1446V23.4026Z" fill="#0BA853"/>
</g>
<defs>
<filter id="filter0_d" x="0.436646" y="169.171" width="43.954" height="38.6476" filterUnits="userSpaceOnUse" color-interpolation-filters="sRGB">
<feFlood flood-opacity="0" result="BackgroundImageFix"/>
<feColorMatrix in="SourceAlpha" type="matrix" values="0 0 0 0 0 0 0 0 0 0 0 0 0 0 0 0 0 0 127 0" result="hardAlpha"/>
<feOffset/>
<feGaussianBlur stdDeviation="8"/>
<feColorMatrix type="matrix" values="0 0 0 0 1 0 0 0 0 0.8 0 0 0 0 0 0 0 0 0.4 0"/>
<feBlend mode="normal" in2="BackgroundImageFix" result="effect1_dropShadow"/>
<feBlend mode="normal" in="SourceGraphic" in2="effect1_dropShadow" result="shape"/>
</filter>
<filter id="filter1_d" x="118" y="0" width="70.8552" height="79.2459" filterUnits="userSpaceOnUse" color-interpolation-filters="sRGB">
<feFlood flood-opacity="0" result="BackgroundImageFix"/>
<feColorMatrix in="SourceAlpha" type="matrix" values="0 0 0 0 0 0 0 0 0 0 0 0 0 0 0 0 0 0 127 0" result="hardAlpha"/>
<feOffset dy="8"/>
<feGaussianBlur stdDeviation="10"/>
<feColorMatrix type="matrix" values="0 0 0 0 0 0 0 0 0 0.423789 0 0 0 0 0.991667 0 0 0 0.3 0"/>
<feBlend mode="normal" in2="BackgroundImageFix" result="effect1_dropShadow"/>
<feBlend mode="normal" in="SourceGraphic" in2="effect1_dropShadow" result="shape"/>
</filter>
<filter id="filter2_d" x="124.907" y="21.3862" width="57.0165" height="45.8597" filterUnits="userSpaceOnUse" color-interpolation-filters="sRGB">
<feFlood flood-opacity="0" result="BackgroundImageFix"/>
<feColorMatrix in="SourceAlpha" type="matrix" values="0 0 0 0 0 0 0 0 0 0 0 0 0 0 0 0 0 0 127 0" result="hardAlpha"/>
<feOffset/>
<feGaussianBlur stdDeviation="8"/>
<feColorMatrix type="matrix" values="0 0 0 0 0 0 0 0 0 0.631373 0 0 0 0 0.290196 0 0 0 0.5 0"/>
<feBlend mode="normal" in2="BackgroundImageFix" result="effect1_dropShadow"/>
<feBlend mode="normal" in="SourceGraphic" in2="effect1_dropShadow" result="shape"/>
</filter>
<linearGradient id="paint0_linear" x1="36.5477" y1="31.4854" x2="134.214" y2="31.4854" gradientUnits="userSpaceOnUse">
<stop stop-color="#FBB502"/>
<stop offset="0.599578" stop-color="#07A24A"/>
<stop offset="1" stop-color="#0267FF"/>
</linearGradient>
</defs>
</svg>
