<svg width="12" height="14" viewBox="0 0 12 14" fill="none" xmlns="http://www.w3.org/2000/svg">
<path d="M6.5 11.3333H8.14333C8.18754 11.3333 8.22993 11.3158 8.26119 11.2845C8.29244 11.2533 8.31 11.2109 8.31 11.1667V11.161L8.2595 9.6875C8.25657 9.60213 8.27556 9.51744 8.31465 9.44149C8.35375 9.36554 8.41165 9.30088 8.48283 9.25367C9.73333 8.42483 10.5 7.028 10.5 5.5C10.5 3.01467 8.48533 1 6 1C3.51467 1 1.5 3.01467 1.5 5.5C1.5 7.02833 2.26717 8.4255 3.51783 9.25417C3.58426 9.29815 3.63921 9.35736 3.67812 9.42688C3.71703 9.4964 3.73876 9.57421 3.7415 9.65383L3.79367 11.1723C3.79514 11.2155 3.81334 11.2565 3.84444 11.2865C3.87554 11.3166 3.9171 11.3334 3.96034 11.3333H5.5V7.94833L4.3025 6.676C4.21162 6.57942 4.16283 6.45069 4.16686 6.31813C4.16886 6.25249 4.18376 6.1879 4.21073 6.12802C4.23769 6.06814 4.27618 6.01417 4.324 5.96917C4.37182 5.92417 4.42804 5.88903 4.48945 5.86575C4.55085 5.84248 4.61624 5.83153 4.68187 5.83353C4.81443 5.83756 4.93995 5.89408 5.03083 5.99067L6.02083 7.04267L7.15667 5.96983C7.25307 5.87878 7.3817 5.82974 7.51426 5.83353C7.64682 5.83731 7.77244 5.89359 7.8635 5.99C7.95456 6.08641 8.00359 6.21504 7.99981 6.34759C7.99603 6.48015 7.93974 6.60578 7.84333 6.69683L6.5 7.9655V11.3333ZM11.5 5.5C11.5007 6.36072 11.2991 7.20955 10.9114 7.97804C10.5238 8.74653 9.96095 9.41316 9.26834 9.92417L9.3095 11.1267C9.31487 11.2832 9.28868 11.4391 9.23249 11.5853C9.1763 11.7315 9.09126 11.8648 8.98244 11.9774C8.87362 12.09 8.74324 12.1796 8.59908 12.2407C8.45492 12.3019 8.29993 12.3334 8.14333 12.3333H3.96C3.65751 12.3333 3.36683 12.2159 3.1493 12.0057C2.93176 11.7955 2.80437 11.509 2.794 11.2067L2.7505 9.938C2.05255 9.4276 1.48494 8.75964 1.09388 7.98846C0.702818 7.21728 0.499339 6.36467 0.500002 5.5C0.500002 2.4625 2.9625 0 6 0C9.0375 0 11.5 2.4625 11.5 5.5ZM4.5 14C4.36739 14 4.24022 13.9473 4.14645 13.8536C4.05268 13.7598 4 13.6326 4 13.5C4 13.3674 4.05268 13.2402 4.14645 13.1464C4.24022 13.0527 4.36739 13 4.5 13H7.5C7.63261 13 7.75979 13.0527 7.85356 13.1464C7.94732 13.2402 8 13.3674 8 13.5C8 13.6326 7.94732 13.7598 7.85356 13.8536C7.75979 13.9473 7.63261 14 7.5 14H4.5Z" fill="#FCB500"/>
</svg>
