<svg width="365" height="389" viewBox="0 0 365 389" fill="none" xmlns="http://www.w3.org/2000/svg">
<g filter="url(#filter0_d)">
<g filter="url(#filter1_f)">
<path d="M196.437 172.443C193.974 178.558 187.001 182.753 176.516 184.234C174.079 184.593 171.453 184.78 168.651 184.813C166.361 184.846 163.951 184.76 161.435 184.574L161.429 184.589C159.732 184.467 157.995 184.296 156.207 184.06C155.985 184.029 155.761 184 155.537 183.97C155.093 183.913 154.646 183.854 154.2 183.783C151.756 183.426 149.306 182.994 146.836 182.47L152.4 168.588C154.856 169.096 157.319 169.544 159.764 169.901C159.979 169.931 160.195 169.962 160.413 169.994C160.862 170.059 161.316 170.125 161.77 170.178C163.552 170.413 165.282 170.584 166.973 170.705L166.979 170.69C169.503 170.878 171.919 170.964 174.214 170.931C177.016 170.898 179.642 170.71 182.079 170.352C192.547 168.902 199.532 164.704 201.991 158.586L196.437 172.443Z" fill="url(#paint0_linear)"/>
<path d="M138.933 180.545C135.874 179.715 132.845 178.755 129.826 177.706C125.493 176.179 121.226 174.465 117.098 172.589L122.661 158.707C126.773 160.596 131.04 162.31 135.389 163.824C138.392 164.886 141.437 165.833 144.496 166.663C147.135 167.399 149.754 168.044 152.4 168.588L146.836 182.47C144.207 181.913 141.558 181.265 138.933 180.545Z" fill="url(#paint1_linear)"/>
<path d="M100.082 145.715L100.084 145.709C106.73 150.525 114.433 154.958 122.645 158.72L117.081 172.602C108.863 168.826 101.179 164.414 94.5356 159.602L94.5334 159.608C91.1713 157.151 88.0577 154.603 85.2938 151.992L90.8571 138.109C93.6169 140.717 96.7124 143.245 100.082 145.715Z" fill="url(#paint2_linear)"/>
<path d="M78.2253 108.983L72.662 122.865C72.497 123.263 72.3613 123.664 72.255 124.068L77.8184 110.186C77.941 109.769 78.0767 109.368 78.2253 108.983Z" fill="url(#paint3_linear)"/>
<path d="M77.8184 110.186L72.255 124.068C71.8141 125.565 71.6276 127.18 71.7018 128.856C71.7642 130.247 71.9994 131.688 72.4369 133.182C72.8273 134.545 73.3725 135.97 74.0726 137.458L74.0702 137.464C74.5039 138.347 74.9929 139.267 75.5406 140.193C75.8907 140.77 76.2408 141.346 76.6203 141.926C77.6582 143.504 78.8592 145.086 80.1846 146.624L85.748 132.742C84.4389 131.191 83.2378 129.609 82.1835 128.044C81.804 127.464 81.4376 126.901 81.1039 126.311C80.5606 125.392 80.0879 124.496 79.6444 123.603L79.6465 123.598C78.9249 122.116 78.3762 120.683 78.0002 119.3C77.5628 117.806 77.3275 116.365 77.2651 114.974C77.1779 113.282 77.3775 111.683 77.8184 110.186Z" fill="url(#paint4_linear)"/>
<path d="M80.1846 146.624L85.748 132.742C87.2942 134.557 88.9942 136.331 90.8443 138.093L85.281 151.975C83.4308 150.213 81.7179 148.423 80.1846 146.624Z" fill="url(#paint5_linear)"/>
<g filter="url(#filter2_i)">
<path d="M77.7418 110.035C83.8709 94.7516 116.538 93.4699 150.705 107.172C184.873 120.874 207.603 144.372 201.474 159.655C195.345 174.938 162.678 176.22 128.51 162.518C94.3425 148.815 71.6128 125.318 77.7418 110.035Z" fill="url(#paint6_linear)"/>
</g>
<path d="M94.9025 109.356C89.0022 113.794 88.1393 120.614 92.4731 128.571C96.8068 136.528 105.793 144.666 117.801 151.501C129.797 158.32 143.392 163.016 156.057 164.689C168.706 166.374 178.926 164.862 184.827 160.424C190.711 156 191.573 149.179 187.256 141.209C182.922 133.252 173.937 125.115 161.928 118.28C149.916 111.474 136.32 106.777 123.672 105.092C111.007 103.42 100.803 104.919 94.9025 109.356ZM118.666 150.842C107.13 144.3 98.4951 136.471 94.3331 128.831C90.171 121.192 91.0033 114.635 96.6613 110.363C102.332 106.108 112.144 104.652 124.293 106.28C136.459 107.895 149.513 112.38 161.047 118.952C172.583 125.494 181.218 133.323 185.38 140.963C189.542 148.602 188.71 155.158 183.052 159.43C177.394 163.702 167.569 165.141 155.419 163.514C143.254 161.899 130.203 157.384 118.666 150.842Z" fill="url(#paint7_linear)"/>
<path d="M158.719 136.459C159.099 138.019 158.817 139.034 157.942 139.423C157.286 139.715 156.3 139.735 155.216 139.536C154.983 139.482 154.366 139.39 151.883 138.871L128.693 133.365C127.143 133.059 125.991 132.943 125.418 133.303C124.912 133.58 124.655 134.061 124.781 134.581C124.864 134.649 124.796 134.731 124.879 134.799L125.034 135.621L121.919 134.858L121.764 134.037L121.681 133.969C121.598 133.901 121.666 133.818 121.584 133.75C121.346 132.861 121.724 132.064 122.667 131.593C123.76 131.106 125.514 131.164 127.998 131.684L128.08 131.752L151.202 137.34C153.535 137.874 154.069 137.898 154.152 137.966C154.536 138.005 154.92 138.044 155.138 137.947C155.357 137.85 155.848 137.422 155.386 135.794L155.23 134.973L158.262 135.667L158.719 136.459C158.637 136.391 158.637 136.391 158.719 136.459Z" fill="white" fill-opacity="0.8"/>
<path d="M164.468 137.726C165.017 140.257 164.493 141.905 162.661 142.615C160.829 143.324 157.705 143.247 153.273 142.233L130.331 136.931L130.02 135.289L152.961 140.59C156.46 141.391 158.832 141.541 160.226 141.026C161.538 140.443 161.941 139.111 161.435 137.032L161.28 136.21L164.395 136.973L164.468 137.726Z" fill="white" fill-opacity="0.8"/>
<path d="M150.23 135.154L127.288 129.852C123.789 129.051 121.5 128.969 120.038 129.567C118.726 130.15 118.308 131.331 118.799 133.26L118.814 133.411L118.969 134.232L115.855 133.47L115.616 132.58C115.164 130.267 115.771 128.688 117.437 127.842C119.337 127.05 122.462 127.127 126.894 128.142L149.836 133.443L150.23 135.154Z" fill="white" fill-opacity="0.8"/>
</g>
<g filter="url(#filter3_f)">
<path d="M272.563 164.044C279.594 173.916 279.183 188.872 271.092 206.579C269.232 210.708 266.922 214.962 264.198 219.334C261.979 222.913 259.461 226.56 256.679 230.273L256.696 230.297C254.826 232.805 252.842 235.325 250.704 237.861C250.437 238.174 250.17 238.492 249.902 238.811C249.373 239.44 248.84 240.075 248.287 240.695C245.314 244.127 242.217 247.494 238.96 250.8L222.97 228.432C226.189 225.13 229.323 221.759 232.297 218.327C232.557 218.023 232.82 217.719 233.085 217.413C233.63 216.783 234.182 216.145 234.714 215.493C236.843 212.967 238.821 210.456 240.685 207.957L240.668 207.933C243.458 204.211 245.984 200.554 248.208 196.966C250.931 192.594 253.242 188.341 255.102 184.211C263.224 166.562 263.641 151.584 256.602 141.716L272.563 164.044Z" fill="url(#paint8_linear)"/>
<path d="M228.149 261.134C223.833 265.05 219.345 268.79 214.731 272.428C208.073 277.625 201.193 282.536 194.197 287.073L178.207 264.705C185.206 260.207 192.087 255.296 198.741 250.06C203.359 246.461 207.843 242.682 212.159 238.766C215.913 235.409 219.507 231.991 222.97 228.432L238.96 250.8C235.493 254.321 231.865 257.781 228.149 261.134Z" fill="url(#paint9_linear)"/>
<path d="M135.717 286.807L135.711 286.798C149.754 281.275 164.25 273.735 178.211 264.743L194.201 287.111C180.212 296.1 165.767 303.631 151.733 309.153L151.74 309.162C144.603 311.935 137.573 314.234 130.791 315.928L114.801 293.56C121.573 291.869 128.554 289.578 135.717 286.807Z" fill="url(#paint10_linear)"/>
<path d="M57.176 284.273L73.1662 306.641C73.6186 307.291 74.1053 307.898 74.6264 308.463L58.6362 286.095C58.1112 285.492 57.6245 284.885 57.176 284.273Z" fill="url(#paint11_linear)"/>
<path d="M58.6362 286.095L74.6264 308.463C76.508 310.629 78.825 312.518 81.4935 314.062C83.7102 315.344 86.1751 316.407 88.9227 317.21C91.4204 317.955 94.1678 318.522 97.1649 318.911L97.1718 318.921C98.9698 319.124 100.879 319.278 102.856 319.347C104.095 319.376 105.335 319.405 106.608 319.391C110.081 319.347 113.722 319.054 117.416 318.524L101.426 296.156C97.7279 296.648 94.0872 296.941 90.6182 297.023C89.3446 297.037 88.1091 297.046 86.8659 296.98C84.9043 296.911 83.048 296.755 81.226 296.558L81.2198 296.549C78.2091 296.198 75.4467 295.629 72.9325 294.842C70.185 294.039 67.72 292.976 65.5033 291.695C62.7966 290.154 60.5178 288.261 58.6362 286.095Z" fill="url(#paint12_linear)"/>
<path d="M117.416 318.524L101.426 296.156C105.77 295.56 110.201 294.684 114.762 293.564L130.753 315.932C126.191 317.052 121.722 317.932 117.416 318.524Z" fill="url(#paint13_linear)"/>
<g filter="url(#filter4_i)">
<path d="M58.3256 286.063C40.7256 261.431 71.0995 209.566 126.168 170.219C181.236 130.872 240.145 118.943 257.745 143.575C275.345 168.207 244.971 220.072 189.903 259.419C134.835 298.766 75.9257 310.695 58.3256 286.063Z" fill="url(#paint14_linear)"/>
</g>
<path d="M74.2735 258.812C75.3018 272.347 85.0111 280.439 101.628 281.609C118.245 282.779 139.75 276.922 162.232 265.093C184.675 253.268 205.417 236.863 220.553 218.904C235.692 200.983 243.474 183.655 242.446 170.121C241.421 156.625 231.712 148.532 215.091 147.324C198.475 146.154 176.97 152.011 154.488 163.84C132.048 175.703 111.306 192.108 96.1666 210.029C81.0309 227.989 73.2453 245.278 74.2735 258.812ZM162.068 263.101C140.507 274.488 119.828 280.107 103.873 278.985C87.9175 277.864 78.5874 270.081 77.5753 257.086C76.6015 244.087 84.0669 227.448 98.6225 210.243C113.174 193 133.053 177.224 154.656 165.871C176.216 154.483 196.896 148.865 212.851 149.986C228.806 151.107 238.136 158.89 239.148 171.885C240.16 184.881 232.656 201.523 218.101 218.728C203.549 235.972 183.629 251.713 162.068 263.101Z" fill="url(#paint15_linear)"/>
<path d="M179.466 186.817C182.258 187.775 183.552 189.217 183.288 190.957C183.09 192.262 182.143 193.809 180.761 195.291C180.448 195.599 179.693 196.464 176.429 199.795L144.931 230.258C142.921 232.357 141.6 234.025 141.589 235.269C141.518 236.326 142.008 237.202 142.939 237.521C143.126 237.46 143.187 237.648 143.374 237.587L144.8 238.159L140.534 242.229L139.108 241.656L138.92 241.717C138.733 241.778 138.673 241.59 138.485 241.651C136.872 241.139 136.013 239.763 136.216 237.836C136.546 235.661 138.374 233.002 141.638 229.67L141.825 229.609L173.384 199.333C176.522 196.249 177.089 195.445 177.276 195.385C177.717 194.829 178.157 194.273 178.223 193.838C178.289 193.403 178.113 192.219 175.134 191.322L173.708 190.75L177.787 186.741L179.466 186.817C179.279 186.878 179.279 186.878 179.466 186.817Z" fill="white" fill-opacity="0.8"/>
<path d="M187.123 179.168C191.589 180.825 193.621 183.269 192.906 186.809C192.191 190.349 188.976 195.112 183.014 200.972L152.078 231.253L149.225 230.109L180.162 199.827C184.869 195.201 187.45 191.677 188.034 189.007C188.43 186.397 186.766 184.454 183.044 183.177L181.618 182.605L185.885 178.535L187.123 179.168Z" fill="white" fill-opacity="0.8"/>
<path d="M169.035 198.673L138.098 228.954C133.391 233.58 130.997 237.044 130.474 239.901C130.078 242.511 131.494 244.328 134.968 245.478L135.216 245.604L136.642 246.177L132.376 250.246L130.762 249.734C126.732 248.144 124.887 245.639 125.228 242.22C125.882 238.493 129.097 233.729 135.058 227.87L165.995 197.589L169.035 198.673Z" fill="white" fill-opacity="0.8"/>
</g>
</g>
<defs>
<filter id="filter0_d" x="4.76717" y="0.393246" width="359.863" height="359.191" filterUnits="userSpaceOnUse" color-interpolation-filters="sRGB">
<feFlood flood-opacity="0" result="BackgroundImageFix"/>
<feColorMatrix in="SourceAlpha" type="matrix" values="0 0 0 0 0 0 0 0 0 0 0 0 0 0 0 0 0 0 127 0" result="hardAlpha"/>
<feOffset dx="26.511" dy="-19.2807"/>
<feGaussianBlur stdDeviation="24.1009"/>
<feComposite in2="hardAlpha" operator="out"/>
<feColorMatrix type="matrix" values="0 0 0 0 0.25098 0 0 0 0 0.690196 0 0 0 0 0.788235 0 0 0 0.2 0"/>
<feBlend mode="normal" in2="BackgroundImageFix" result="effect1_dropShadow"/>
<feBlend mode="normal" in="SourceGraphic" in2="effect1_dropShadow" result="shape"/>
</filter>
<filter id="filter1_f" x="57.8583" y="64.6624" width="157.926" height="159.101" filterUnits="userSpaceOnUse" color-interpolation-filters="sRGB">
<feFlood flood-opacity="0" result="BackgroundImageFix"/>
<feBlend mode="normal" in="SourceGraphic" in2="BackgroundImageFix" result="shape"/>
<feGaussianBlur stdDeviation="1.60673" result="effect1_foregroundBlur"/>
</filter>
<filter id="filter2_i" x="66.644" y="82.3621" width="145.927" height="104.966" filterUnits="userSpaceOnUse" color-interpolation-filters="sRGB">
<feFlood flood-opacity="0" result="BackgroundImageFix"/>
<feBlend mode="normal" in="SourceGraphic" in2="BackgroundImageFix" result="shape"/>
<feColorMatrix in="SourceAlpha" type="matrix" values="0 0 0 0 0 0 0 0 0 0 0 0 0 0 0 0 0 0 127 0" result="hardAlpha"/>
<feOffset/>
<feGaussianBlur stdDeviation="5.33143"/>
<feComposite in2="hardAlpha" operator="arithmetic" k2="-1" k3="1"/>
<feColorMatrix type="matrix" values="0 0 0 0 0.710661 0 0 0 0 0.753378 0 0 0 0 0.979167 0 0 0 0.5 0"/>
<feBlend mode="normal" in2="shape" result="effect1_innerShadow"/>
</filter>
<filter id="filter3_f" x="24.8513" y="97.368" width="266.672" height="234.902" filterUnits="userSpaceOnUse" color-interpolation-filters="sRGB">
<feFlood flood-opacity="0" result="BackgroundImageFix"/>
<feBlend mode="normal" in="SourceGraphic" in2="BackgroundImageFix" result="shape"/>
<feGaussianBlur stdDeviation="0.803364" result="effect1_foregroundBlur"/>
</filter>
<filter id="filter4_i" x="26.458" y="98.9747" width="263.154" height="231.689" filterUnits="userSpaceOnUse" color-interpolation-filters="sRGB">
<feFlood flood-opacity="0" result="BackgroundImageFix"/>
<feBlend mode="normal" in="SourceGraphic" in2="BackgroundImageFix" result="shape"/>
<feColorMatrix in="SourceAlpha" type="matrix" values="0 0 0 0 0 0 0 0 0 0 0 0 0 0 0 0 0 0 127 0" result="hardAlpha"/>
<feOffset/>
<feGaussianBlur stdDeviation="9.80191"/>
<feComposite in2="hardAlpha" operator="arithmetic" k2="-1" k3="1"/>
<feColorMatrix type="matrix" values="0 0 0 0 0.710661 0 0 0 0 0.753378 0 0 0 0 0.979167 0 0 0 0.5 0"/>
<feBlend mode="normal" in2="shape" result="effect1_innerShadow"/>
</filter>
<linearGradient id="paint0_linear" x1="174.962" y1="181.518" x2="77.4204" y2="134.001" gradientUnits="userSpaceOnUse">
<stop stop-color="#1460CE"/>
<stop offset="0.53191" stop-color="#A9F8F8"/>
<stop offset="1" stop-color="#0ED4FF"/>
</linearGradient>
<linearGradient id="paint1_linear" x1="174.962" y1="181.518" x2="77.4204" y2="134.001" gradientUnits="userSpaceOnUse">
<stop stop-color="#1460CE"/>
<stop offset="0.53191" stop-color="#A9F8F8"/>
<stop offset="1" stop-color="#0ED4FF"/>
</linearGradient>
<linearGradient id="paint2_linear" x1="174.962" y1="181.518" x2="77.4204" y2="134.001" gradientUnits="userSpaceOnUse">
<stop stop-color="#1460CE"/>
<stop offset="0.53191" stop-color="#A9F8F8"/>
<stop offset="1" stop-color="#0ED4FF"/>
</linearGradient>
<linearGradient id="paint3_linear" x1="174.962" y1="181.518" x2="77.4204" y2="134.001" gradientUnits="userSpaceOnUse">
<stop stop-color="#1460CE"/>
<stop offset="0.53191" stop-color="#A9F8F8"/>
<stop offset="1" stop-color="#0ED4FF"/>
</linearGradient>
<linearGradient id="paint4_linear" x1="174.962" y1="181.518" x2="77.4204" y2="134.001" gradientUnits="userSpaceOnUse">
<stop stop-color="#1460CE"/>
<stop offset="0.53191" stop-color="#A9F8F8"/>
<stop offset="1" stop-color="#0ED4FF"/>
</linearGradient>
<linearGradient id="paint5_linear" x1="174.962" y1="181.518" x2="77.4204" y2="134.001" gradientUnits="userSpaceOnUse">
<stop stop-color="#1460CE"/>
<stop offset="0.53191" stop-color="#A9F8F8"/>
<stop offset="1" stop-color="#0ED4FF"/>
</linearGradient>
<linearGradient id="paint6_linear" x1="129.432" y1="162.531" x2="150.677" y2="103.015" gradientUnits="userSpaceOnUse">
<stop offset="0.00520833" stop-color="#00CCCC"/>
<stop offset="0.5625" stop-color="#3DA8C2"/>
<stop offset="1" stop-color="#6633FF"/>
</linearGradient>
<linearGradient id="paint7_linear" x1="166.291" y1="113.94" x2="113.438" y2="155.841" gradientUnits="userSpaceOnUse">
<stop stop-color="#E8E8E8" stop-opacity="0.55"/>
<stop offset="1" stop-color="#E8E8E8" stop-opacity="0"/>
</linearGradient>
<linearGradient id="paint8_linear" x1="265.346" y1="206.295" x2="95.1276" y2="310.302" gradientUnits="userSpaceOnUse">
<stop stop-color="#1460CE"/>
<stop offset="0.53191" stop-color="#A9F8F8"/>
<stop offset="1" stop-color="#0ED4FF"/>
</linearGradient>
<linearGradient id="paint9_linear" x1="265.346" y1="206.295" x2="95.1276" y2="310.302" gradientUnits="userSpaceOnUse">
<stop stop-color="#1460CE"/>
<stop offset="0.53191" stop-color="#A9F8F8"/>
<stop offset="1" stop-color="#0ED4FF"/>
</linearGradient>
<linearGradient id="paint10_linear" x1="265.346" y1="206.295" x2="95.1276" y2="310.302" gradientUnits="userSpaceOnUse">
<stop stop-color="#1460CE"/>
<stop offset="0.53191" stop-color="#A9F8F8"/>
<stop offset="1" stop-color="#0ED4FF"/>
</linearGradient>
<linearGradient id="paint11_linear" x1="265.346" y1="206.295" x2="95.1276" y2="310.302" gradientUnits="userSpaceOnUse">
<stop stop-color="#1460CE"/>
<stop offset="0.53191" stop-color="#A9F8F8"/>
<stop offset="1" stop-color="#0ED4FF"/>
</linearGradient>
<linearGradient id="paint12_linear" x1="265.346" y1="206.295" x2="95.1276" y2="310.302" gradientUnits="userSpaceOnUse">
<stop stop-color="#1460CE"/>
<stop offset="0.53191" stop-color="#A9F8F8"/>
<stop offset="1" stop-color="#0ED4FF"/>
</linearGradient>
<linearGradient id="paint13_linear" x1="265.346" y1="206.295" x2="95.1276" y2="310.302" gradientUnits="userSpaceOnUse">
<stop stop-color="#1460CE"/>
<stop offset="0.53191" stop-color="#A9F8F8"/>
<stop offset="1" stop-color="#0ED4FF"/>
</linearGradient>
<linearGradient id="paint14_linear" x1="190.837" y1="258.004" x2="119.702" y2="166.144" gradientUnits="userSpaceOnUse">
<stop offset="0.00520833" stop-color="#00CCCC"/>
<stop offset="0.5625" stop-color="#3DA8C2"/>
<stop offset="1" stop-color="#6633FF"/>
</linearGradient>
<linearGradient id="paint15_linear" x1="152.089" y1="152.783" x2="164.631" y2="276.15" gradientUnits="userSpaceOnUse">
<stop stop-color="#E8E8E8" stop-opacity="0.55"/>
<stop offset="1" stop-color="#E8E8E8" stop-opacity="0"/>
</linearGradient>
</defs>
</svg>
