<svg width="21" height="20" viewBox="0 0 21 20" fill="currentColor" xmlns="http://www.w3.org/2000/svg">
    <path d="M10.9709 20H10.0709C7.42153 19.7652 4.97958 18.4693 3.29991 16.407C1.60399 14.3478 0.792183 11.701 1.04191 9.04503C1.43521 4.22909 5.2528 0.403451 10.0679 1.68893e-05C10.4618 -0.00203867 10.8332 0.183644 11.0679 0.500034C11.2873 0.849182 11.2464 1.3019 10.9679 1.60603C10.0112 2.90559 9.61505 4.53425 9.86791 6.12803C10.0781 7.71689 10.9535 9.1416 12.2759 10.047C14.3767 11.6555 17.2951 11.6555 19.3959 10.047C19.5871 9.91448 19.8133 9.84142 20.0459 9.83703C20.2037 9.8373 20.3592 9.87463 20.4999 9.94603C20.8168 10.1825 21.0025 10.5556 20.9999 10.951C20.8009 13.6324 19.4925 16.1092 17.3899 17.785C15.544 19.1943 13.2931 19.971 10.9709 20ZM8.16291 2.31103C5.22155 3.35165 3.17475 6.03427 2.94791 9.14603C2.74749 11.2674 3.39661 13.3816 4.75291 15.025C6.09926 16.6691 8.05118 17.7015 10.1679 17.889C10.4299 17.914 10.6959 17.927 10.9579 17.927C12.8022 17.9417 14.5889 17.2853 15.9849 16.08C17.0689 15.1681 17.8982 13.9908 18.3919 12.663C17.5222 12.9771 16.6046 13.1375 15.6799 13.137C13.9493 13.1367 12.264 12.5834 10.8699 11.558C9.18569 10.2776 8.04137 8.41342 7.66191 6.33203C7.57163 4.97203 7.74167 3.6073 8.16291 2.31103Z" />
</svg>