<svg width="16" height="18" viewBox="0 0 16 18" fill="none" xmlns="http://www.w3.org/2000/svg">
<path d="M13.8333 17.3332H2.16667C1.24619 17.3332 0.5 16.587 0.5 15.6665V3.99984C0.5 3.07936 1.24619 2.33317 2.16667 2.33317H3.83333V0.666504H5.5V2.33317H10.5V0.666504H12.1667V2.33317H13.8333C14.7538 2.33317 15.5 3.07936 15.5 3.99984V15.6665C15.5 16.587 14.7538 17.3332 13.8333 17.3332ZM2.16667 7.33317V15.6665H13.8333V7.33317H2.16667ZM2.16667 3.99984V5.6665H13.8333V3.99984H2.16667ZM12.1667 13.9998H10.5V12.3332H12.1667V13.9998ZM8.83333 13.9998H7.16667V12.3332H8.83333V13.9998ZM5.5 13.9998H3.83333V12.3332H5.5V13.9998ZM12.1667 10.6665H10.5V8.99984H12.1667V10.6665ZM8.83333 10.6665H7.16667V8.99984H8.83333V10.6665ZM5.5 10.6665H3.83333V8.99984H5.5V10.6665Z" fill="#333333" fill-opacity="0.5"/>
</svg>
