<svg width="180" height="164" viewBox="0 0 180 164" fill="none" xmlns="http://www.w3.org/2000/svg">
<g opacity="0.03">
<path d="M115.323 76.6197L96.5481 66.2933L172.536 -70.8759C184.058 -91.6752 187.388 -109.466 182.131 -124.047C176.873 -138.629 161.852 -152.828 137.279 -166.344L127.819 -171.547L138.041 -190L147.501 -184.797C177.294 -168.41 195.224 -150.755 202.274 -130.874C209.324 -110.992 206.116 -86.5937 191.291 -60.514L115.323 76.6197Z" fill="#0066FF"/>
<path d="M76.9182 121.788C65.0601 115.985 55.7053 106.12 50.6202 94.0565C46.1004 81.6435 47.5795 67.7057 54.7748 52.4124L55.1294 51.7724L133.702 -85.367C141 -99.9077 142.25 -102.931 142.473 -103.505C143.533 -105.982 143.7 -108.754 142.947 -111.361C141.973 -113.614 137.491 -120.718 118.064 -131.403L108.495 -136.666L118.639 -154.976L128.026 -149.813C147.624 -139.266 158.747 -129.298 162.935 -118.505C165.531 -111.207 165.44 -103.27 162.678 -96.1024C162.006 -94.2918 160.359 -90.4659 152.785 -75.4274L152.509 -74.9296L74.0716 62.0519C69.4092 71.9194 68.2505 80.3277 70.6775 87.0436C74.1718 94.4746 80.2776 100.423 87.8457 103.769L97.2692 108.952L87.2643 127.525L77.8771 122.362L76.9182 121.788Z" fill="#0066FF"/>
<path d="M4.88053 105.688C12.5688 125.271 30.298 142.862 57.6261 157.893L57.5079 158.107L67.8375 163.788L78.0598 145.335L68.6363 140.152C45.3187 127.698 30.6664 113.516 24.796 98.5046C18.7002 82.5343 21.4509 64.9354 32.8353 44.3849L108.941 -92.9976L90.0581 -103.384L14.09 33.7499C-0.248836 59.6335 -3.42711 83.7234 4.88053 105.688Z" fill="#0066FF"/>
</g>
</svg>
