<svg width="20" height="20" viewBox="0 0 20 20" fill="currentColor" xmlns="http://www.w3.org/2000/svg">
    <path d="M19.2138 6.10727C18.7101 4.91638 17.9893 3.84705 17.0711 2.92889C16.1529 2.01073 15.0836 1.28988 13.8927 0.786184C12.6594 0.264445 11.3497 0 10 0C8.6503 0 7.34076 0.264445 6.10727 0.786184C4.91638 1.28988 3.84705 2.01073 2.92889 2.92889C2.01073 3.84705 1.28988 4.91638 0.786184 6.10727C0.264445 7.34059 0 8.6503 0 10C0 11.3497 0.264445 12.6592 0.786184 13.8927C1.28988 15.0836 2.01073 16.1529 2.92889 17.0711C3.84705 17.9893 4.91638 18.7101 6.10727 19.2138C7.34059 19.7356 8.6503 20 10 20C11.3497 20 12.6592 19.7356 13.8927 19.2138C15.0836 18.7101 16.1529 17.9893 17.0711 17.0711C17.9893 16.1529 18.7101 15.0836 19.2138 13.8927C19.7356 12.6594 20 11.3497 20 10C20 8.6503 19.7356 7.34059 19.2138 6.10727ZM15.9218 4.07818C16.1909 4.34717 16.4416 4.63399 16.6721 4.93669C16.2849 5.17156 15.6509 5.51938 14.8197 5.84949C14.3894 4.88744 13.8217 3.9319 13.129 3.00414C12.8349 2.61048 12.5414 2.25258 12.2627 1.93385C12.6021 2.02897 12.9351 2.14558 13.2597 2.28297C14.2568 2.70492 15.1524 3.3089 15.9218 4.07818ZM14.1874 10.2362C14.1905 10.9978 14.0827 11.7552 13.8661 12.5014C13.172 12.3035 12.4727 12.1573 11.77 12.0644C11.4514 12.0223 11.1324 11.9909 10.8127 11.9704V8.3844C11.6405 8.33775 12.467 8.2191 13.2868 8.02844C13.4761 7.9844 13.6608 7.93742 13.8409 7.88834C14.0679 8.67891 14.1843 9.46493 14.1874 10.2362ZM5.78968 10.2362C5.79293 9.46038 5.9106 8.66948 6.14027 7.8742C6.8026 8.05835 7.46981 8.1952 8.14011 8.28379C8.48858 8.32995 8.83787 8.36294 9.18748 8.38326V11.9589C8.32962 12.0018 7.4729 12.1222 6.62332 12.3197C6.44356 12.3615 6.26818 12.4059 6.09687 12.4523C5.88964 11.7219 5.78659 10.9811 5.78968 10.2362ZM10.8128 2.75173C11.1394 3.10963 11.4976 3.53352 11.854 4.01382C12.4257 4.78407 12.8988 5.57107 13.2653 6.35969C13.1303 6.39496 12.9924 6.42893 12.8515 6.46079C12.1754 6.61422 11.4944 6.71256 10.8127 6.75595V2.75173H10.8128ZM9.18748 2.72637V6.75481C8.89377 6.73566 8.60081 6.70628 8.30914 6.66672C7.77684 6.59439 7.246 6.48777 6.71776 6.34701C7.08362 5.56262 7.55465 4.77985 8.1232 4.01382C8.48793 3.52215 8.85461 3.08964 9.18748 2.72637ZM7.05859 13.8875C7.76449 13.7273 8.47558 13.627 9.18748 13.5868V17.3164C8.15148 16.2931 7.34644 15.2379 6.78521 14.1659C6.75238 14.1032 6.72052 14.0401 6.68915 13.9771C6.81008 13.9459 6.93312 13.916 7.05859 13.8875ZM10.8128 17.2933V13.5998C11.0764 13.6188 11.3393 13.6461 11.6011 13.6816C12.158 13.7572 12.7134 13.8709 13.266 14.0215C13.2418 14.0697 13.2172 14.1178 13.192 14.1659C12.6349 15.2297 11.8375 16.2771 10.8128 17.2933ZM6.74067 2.28314C7.05697 2.14937 7.37944 2.03592 7.70695 1.94262C7.43031 2.25924 7.13954 2.61406 6.84827 3.00431C6.15961 3.92637 5.59464 4.87623 5.16538 5.83243C4.54384 5.5857 3.92751 5.29102 3.31833 4.94986C3.55146 4.64228 3.80545 4.35109 4.0785 4.07834C4.84778 3.3089 5.74352 2.70492 6.74067 2.28314ZM2.2833 6.74051C2.34116 6.60382 2.40244 6.46908 2.46713 6.33629C3.16831 6.73255 3.87956 7.07273 4.59829 7.35636C4.31499 8.31467 4.16936 9.27298 4.16432 10.2184C4.15945 11.1442 4.28948 12.0618 4.55197 12.9625C3.71784 13.2889 3.05307 13.6349 2.58919 13.9051C2.47812 13.6944 2.37607 13.479 2.2833 13.2597C1.84689 12.2277 1.62552 11.1311 1.62552 10.0002C1.62552 8.86924 1.84689 7.77245 2.2833 6.74051ZM4.07834 15.9217C3.86993 15.7133 3.67251 15.4942 3.48687 15.2653C3.88216 15.0402 4.43868 14.7553 5.12865 14.4837C5.19626 14.6277 5.26729 14.7711 5.34206 14.9139C5.89907 15.9795 6.65924 17.0219 7.61219 18.0297C7.31611 17.9417 7.02515 17.8372 6.74067 17.7169C5.74352 17.2949 4.84778 16.6909 4.07834 15.9217ZM13.2597 17.7167C12.9649 17.8415 12.6631 17.9491 12.356 18.039C13.3131 17.028 14.0762 15.9826 14.635 14.9136C14.6985 14.792 14.7598 14.6693 14.8187 14.5455C15.3715 14.7685 15.9199 15.029 16.4629 15.3268C16.292 15.5335 16.1114 15.732 15.9218 15.9217C15.1524 16.6909 14.2568 17.2949 13.2597 17.7167ZM17.7169 13.2595C17.6139 13.5029 17.4996 13.7412 17.3742 13.9738C16.7259 13.6112 16.0689 13.2962 15.4054 13.0297C15.6811 12.1073 15.8176 11.1672 15.8126 10.2183C15.8076 9.27932 15.6637 8.32735 15.3843 7.37554C16.3374 7.00057 17.0672 6.60106 17.5257 6.32133C17.593 6.459 17.6567 6.59862 17.7167 6.74035C18.1531 7.77229 18.3745 8.86891 18.3745 9.99984C18.3745 11.1308 18.1533 12.2275 17.7169 13.2595Z" />
</svg>
    