<svg width="21" height="20" viewBox="0 0 21 20" fill="currentColor" xmlns="http://www.w3.org/2000/svg">
<path d="M11.998 20H9.99805V17H11.998V20ZM17.362 17.778L15.241 15.657L16.655 14.243L18.777 16.365L17.364 17.778H17.362ZM4.63405 17.778L3.21905 16.364L5.33905 14.242L6.75405 15.656L4.63405 17.777V17.778ZM10.998 15.007C8.23302 15.0059 5.99231 12.7637 5.99305 9.99867C5.99378 7.23364 8.23568 4.99263 11.0007 4.993C13.7657 4.99337 16.007 7.23497 16.007 10C16.0043 12.7649 13.763 15.0053 10.998 15.007ZM10.998 6.993C9.33759 6.9941 7.99231 8.34087 7.99305 10.0013C7.99378 11.6618 9.34025 13.0074 11.0007 13.007C12.6612 13.0066 14.007 11.6605 14.007 10C14.0054 8.33918 12.6589 6.99355 10.998 6.993ZM20.998 11H17.998V9H20.998V11ZM3.99805 11H0.998047V9H3.99805V11ZM16.654 5.758L15.241 4.343L17.362 2.221L18.777 3.636L16.655 5.757L16.654 5.758ZM5.34105 5.758L3.22105 3.637L4.63605 2.223L6.75605 4.345L5.34205 5.757L5.34105 5.758ZM11.998 3H9.99805V0H11.998V3Z"/>
</svg>
