<svg width="20" height="20" viewBox="0 0 20 20" fill="none" xmlns="http://www.w3.org/2000/svg">
<path fill-rule="evenodd" clip-rule="evenodd" d="M4 0C1.79086 0 0 1.79086 0 4V16C0 18.2091 1.79086 20 4 20H16C18.2091 20 20 18.2091 20 16V4C20 1.79086 18.2091 0 16 0H4ZM15.8 14.44L16.755 15.394V15.444H11.834V15.394L12.838 14.44C12.938 14.34 12.988 14.24 12.988 14.089V8.164C12.988 7.912 12.988 7.561 13.039 7.26L9.725 15.545H9.675L6.26 7.912C6.22667 7.77867 6.19333 7.73422 6.16 7.68978C6.14333 7.66756 6.12667 7.64533 6.11 7.612V12.632C6.059 12.984 6.11 13.285 6.26 13.587L7.616 15.394V15.444H4V15.394L5.356 13.536C5.506 13.236 5.556 12.884 5.506 12.582V7.06C5.506 6.809 5.456 6.507 5.256 6.307L4.351 5.05V5H7.866L10.778 11.478L13.34 5H16.755V5.05L15.801 6.155C15.701 6.255 15.651 6.406 15.651 6.506V14.139C15.651 14.239 15.701 14.39 15.801 14.44H15.8Z" fill="#2C5290"/>
</svg>
