<svg width="24" height="24" viewBox="0 0 24 24" fill="none" xmlns="http://www.w3.org/2000/svg">
<path d="M6.88086 20.9194L10.0029 21.7477V20.6645L10.2577 20.4097H12.0417V22.5759H10.1303L7.77285 21.5565L6.88086 20.9194Z" fill="#CDBDB2"/>
<path d="M17.0756 20.9194L14.0173 21.7477V20.6645L13.7625 20.4097H11.9785V22.5759H13.8899L16.2472 21.5565L17.0756 20.9194Z" fill="#CDBDB2"/>
<path d="M10.2578 18.5628L10.0029 20.6652L10.3214 20.4104H13.6345L14.0168 20.6652L13.762 18.5628L13.2523 18.2441L10.7037 18.3079L10.2578 18.5628Z" fill="#171717"/>
<path d="M8.53711 4.354L10.0662 7.92195L10.7671 18.3073H13.2519L14.0165 7.92195L15.4181 4.354H8.53711Z" fill="#F6851B"/>
<path d="M1.84745 12.1912L0.0634766 17.3519L4.52341 17.0971H7.39045V14.8671L7.26302 10.2798L6.62589 10.7895L1.84745 12.1912Z" fill="#F6851B"/>
<path d="M5.22461 12.7646L10.4491 12.8921L9.87574 15.568L7.39086 14.9309L5.22461 12.7646Z" fill="#CD6115"/>
<path d="M5.22461 12.8281L7.39086 14.867V16.9058L5.22461 12.8281Z" fill="#E47520"/>
<path d="M7.39062 14.9307L9.93915 15.5678L10.7675 18.3075L10.194 18.626L7.39062 16.9695V14.9307Z" fill="#F6851B"/>
<path d="M7.39057 16.9697L6.88086 20.92L10.2577 18.5626L7.39057 16.9697Z" fill="#E4761A"/>
<path d="M10.4487 12.8921L10.7673 18.3078L9.81152 15.5362L10.4487 12.8921Z" fill="#E47520"/>
<path d="M4.45996 17.0335L7.39077 16.9697L6.88107 20.92L4.45996 17.0335Z" fill="#CD6115"/>
<path d="M1.46517 22.64L6.88074 20.9197L4.45964 17.0332L0.0634766 17.3517L1.46517 22.64Z" fill="#E4761A"/>
<path d="M10.0668 7.92236L7.32721 10.216L5.22461 12.7646L10.4491 12.9558L10.0668 7.92236Z" fill="#E4761A"/>
<path d="M6.88086 20.9198L10.2577 18.5625L10.0029 20.6013V21.7482L7.70919 21.3021L6.88086 20.9198ZM17.075 20.9198L13.7619 18.5625L14.0167 20.6013V21.7482L16.3104 21.3021L17.075 20.9198Z" fill="#DFCEC3"/>
<path d="M9.04764 14.0391L9.74855 15.5045L7.26367 14.8674L9.04764 14.0391Z" fill="#243447"/>
<path d="M1.40137 1.35986L10.0664 7.92227L8.60103 4.35433L1.40137 1.35986Z" fill="#E4761A"/>
<path d="M1.40172 1.35986L0.254883 4.86404L0.892016 8.68684L0.446079 8.94169L1.08321 9.51517L0.573506 9.9611L1.2743 10.5982L0.828359 10.9805L1.84777 12.2548L6.62621 10.7894C8.96237 8.92051 10.1092 7.96475 10.0667 7.92228C10.0243 7.8798 7.13592 5.69237 1.40172 1.35986Z" fill="#763D16"/>
<path d="M22.1084 12.1912L23.8924 17.3519L19.4325 17.0971H16.5654V14.8671L16.6929 10.2798L17.33 10.7895L22.1084 12.1912Z" fill="#F6851B"/>
<path d="M18.7313 12.7646L13.5068 12.8921L14.0802 15.568L16.5651 14.9309L18.7313 12.7646Z" fill="#CD6115"/>
<path d="M18.7317 12.8281L16.5654 14.867V16.9058L18.7317 12.8281Z" fill="#E47520"/>
<path d="M16.5653 14.9307L14.0168 15.5678L13.1885 18.3075L13.762 18.626L16.5653 16.9695V14.9307Z" fill="#F6851B"/>
<path d="M16.5651 16.9697L17.0748 20.92L13.7617 18.6263L16.5651 16.9697Z" fill="#E4761A"/>
<path d="M13.5071 12.8921L13.1885 18.3078L14.1442 15.5362L13.5071 12.8921Z" fill="#E47520"/>
<path d="M19.4962 17.0335L16.5654 16.9697L17.0751 20.92L19.4962 17.0335Z" fill="#CD6115"/>
<path d="M22.4908 22.64L17.0752 20.9197L19.4963 17.0332L23.8925 17.3517L22.4908 22.64Z" fill="#E4761A"/>
<path d="M13.8891 7.92236L16.6287 10.216L18.7313 12.7646L13.5068 12.9558L13.8891 7.92236Z" fill="#E4761A"/>
<path d="M14.9089 14.0391L14.208 15.5045L16.6929 14.8674L14.9089 14.0391Z" fill="#243447"/>
<path d="M22.5547 1.35986L13.8896 7.92227L15.355 4.35433L22.5547 1.35986Z" fill="#E4761A"/>
<path d="M22.5548 1.35986L23.7017 4.86404L23.0645 8.68684L23.5105 8.94169L22.8733 9.51517L23.383 9.9611L22.6822 10.5982L23.1282 10.9805L22.1088 12.2548L17.3303 10.7894C14.9942 8.92051 13.8473 7.96475 13.8898 7.92228C13.9323 7.8798 16.8206 5.69237 22.5548 1.35986Z" fill="#763D16"/>
</svg>
