<svg width="120" height="119" viewBox="0 0 120 119" fill="none" xmlns="http://www.w3.org/2000/svg">
    <path d="M60.84 118.406C93.5131 118.406 120 102.696 120 83.3178C120 63.9393 93.5131 48.23 60.84 48.23C28.1669 48.23 1.68018 63.9393 1.68018 83.3178C1.68018 102.696 28.1669 118.406 60.84 118.406Z" fill="url(#mountain0_linear)" />
    <path d="M25.4117 7.81073C26.3399 6.23851 28.3926 5.05065 32.7719 5.89503C32.7719 5.89503 39.7662 -6.57646 50.7309 4.76033C50.7309 4.76033 57.2733 3.19833 58.9416 8.1399C59.2918 9.19357 59.2212 10.3418 58.7445 11.3446C58.2679 12.3474 57.4221 13.1272 56.3839 13.521C50.7595 15.68 37.8607 19.4501 27.1761 13.7378C25.0417 12.5928 24.1789 9.90226 25.4117 7.81073Z" fill="url(#mountain2_linear)" />
    <path d="M0.457648 41.9758C1.20798 40.7061 2.86403 39.7473 6.40716 40.4281C6.40716 40.4281 12.0541 30.3568 20.9048 39.5121C20.9048 39.5121 26.1796 38.2527 27.5351 42.2416C27.8174 43.0925 27.76 44.0197 27.3748 44.8293C26.9896 45.6389 26.3065 46.2684 25.4681 46.5861C20.9272 48.3281 10.5166 51.3641 1.8888 46.7599C0.15915 45.8378 -0.538027 43.6645 0.457648 41.9758Z" fill="url(#mountain1_linear)" />
    <path d="M95.6264 9.55361C95.3274 9.55361 95.1138 9.5536 95.0284 9.59632C94.8575 9.68175 94.6439 9.89534 94.4304 10.1944C94.2595 9.98078 94.0032 9.89534 93.6615 9.89534C93.4052 9.89534 93.0634 10.1089 92.5935 10.5361C92.5081 10.1516 92.4227 9.89534 92.3799 9.76719C92.2945 9.55361 92.1236 9.46817 91.8673 9.46817C91.5683 9.46817 91.312 9.76719 91.1412 10.3225C91.013 9.89534 90.8848 9.63904 90.7994 9.46817C90.6285 9.25458 90.415 9.16915 90.1587 9.16915C89.9451 9.16915 89.6888 9.25458 89.5179 9.46817C89.347 9.63904 89.2189 9.89534 89.1335 10.1516C89.0907 9.85262 88.9626 9.59632 88.7063 9.38274C88.4927 9.16915 88.1937 9.08372 87.8519 9.08372C87.6811 9.08372 87.5102 9.16915 87.2966 9.38274C87.083 9.59632 86.9549 9.80991 86.9122 10.0662V9.98078C86.9122 9.76719 86.8267 9.55361 86.6559 9.34002C86.3996 8.95557 86.0151 8.7847 85.4598 8.7847C85.0753 8.7847 84.7763 8.87013 84.52 8.99829C84.52 9.21187 84.52 9.42546 84.52 9.63904V15.833H108.356C108.399 12.3729 108.399 10.0235 108.399 8.74198C108.143 8.82741 107.929 8.95557 107.801 9.08372C107.886 8.69927 107.715 8.5284 107.331 8.5284C107.16 8.5284 107.075 8.5284 107.032 8.57112C106.946 8.61383 106.904 8.7847 106.904 9.041C106.904 8.87013 106.818 8.69927 106.69 8.48568C106.562 8.31481 106.391 8.22938 106.263 8.22938C106.007 8.22938 105.836 8.27209 105.793 8.31481C105.75 8.35753 105.708 8.57112 105.708 8.91285C105.708 9.08372 105.75 9.2973 105.836 9.51089C105.921 9.72447 105.964 9.89534 105.964 10.0235C105.708 9.68175 105.409 9.51089 105.152 9.51089C105.024 9.51089 104.896 9.59632 104.725 9.72447C104.554 9.85262 104.383 10.0235 104.213 10.2798C104.17 10.2371 104.127 10.2371 104.084 10.1944C103.7 9.98078 103.315 9.89534 102.974 9.89534C102.803 9.89534 102.589 9.93806 102.418 10.0235C102.248 10.1089 102.162 10.1944 102.077 10.1944C102.077 10.0662 102.119 9.93806 102.205 9.76719C102.29 9.59632 102.333 9.46817 102.333 9.2973C102.333 9.041 102.29 8.87013 102.248 8.74198C102.162 8.57111 101.991 8.5284 101.778 8.5284C101.65 8.5284 101.521 8.57112 101.393 8.69927C101.222 8.7847 101.137 8.87013 101.094 8.95557C101.222 8.61383 101.222 8.31481 101.094 8.05851C100.966 7.75949 100.752 7.58862 100.453 7.58862C100.069 7.58862 99.6845 7.97307 99.3855 8.74198C99.3428 8.57111 99.2147 8.35753 98.9584 8.14395C98.7021 7.97308 98.5312 7.88764 98.3603 7.88764C98.0186 7.88764 97.8477 8.01579 97.8477 8.31481C97.8477 8.44296 97.8904 8.7847 97.9759 9.25458H97.8904C97.5914 8.95556 97.3351 8.82741 97.0361 8.82741C96.7371 8.82741 96.5662 8.91285 96.5235 9.041C96.5235 9.12643 96.5235 9.42546 96.5235 9.85263C96.3526 9.72447 96.1818 9.68176 96.0963 9.63904C96.0963 9.59632 95.8827 9.55361 95.6264 9.55361Z" fill="#637B1E" />
    <path d="M99.6421 5.11108C99.4285 5.11108 99.1295 5.28195 98.8732 5.62369C98.5742 5.96542 98.4888 6.26444 98.5742 6.47803C98.147 6.05086 97.7626 5.83727 97.4635 5.83727C97.1218 5.83727 96.9509 5.96543 96.9082 6.22173C96.9082 6.3926 96.9082 6.73433 96.9082 7.28965C96.6519 7.03335 96.3529 6.86248 96.0966 6.86248C95.7976 6.86248 95.584 6.94792 95.4986 7.07607C95.3704 7.24694 95.3277 7.58867 95.3277 8.05856C95.1141 7.84498 94.9432 7.67411 94.8578 7.58867C94.6869 7.46052 94.4734 7.41781 94.2598 7.41781C94.0889 7.41781 93.9608 7.46052 93.8326 7.54595C93.6617 7.63139 93.4481 7.84497 93.1491 8.14399V8.05856C93.2346 7.67411 93.1919 7.37508 93.0637 7.11878C92.9356 6.9052 92.7647 6.77705 92.5084 6.77705C91.8249 6.77705 91.4405 7.03335 91.3123 7.58867V7.50324C91.355 7.28965 91.3123 7.03335 91.1841 6.77705C90.9706 6.30716 90.5434 6.47803 89.9454 7.20422C89.9454 6.34988 89.7318 5.92271 89.3473 5.92271C88.9201 5.92271 88.6211 6.05086 88.4075 6.34988C88.194 6.56347 88.1085 6.99063 88.1512 7.58867C88.1085 7.4178 87.9804 7.28965 87.8522 7.1615C87.6814 7.03335 87.5105 6.99064 87.2969 6.99064C87.126 6.99064 86.9552 7.11878 86.7843 7.33237C86.6134 7.54595 86.6134 7.80226 86.7416 8.01584C86.5707 7.71682 86.2717 7.58867 85.8872 7.54595C85.5028 7.50323 85.2465 7.54595 85.1183 7.58867C84.862 7.71682 84.7339 7.93041 84.7339 8.31486C84.7339 8.48573 84.7339 8.74203 84.7339 9.04105C84.9902 8.87018 85.2892 8.82746 85.6737 8.82746C86.229 8.82746 86.6134 8.99833 86.8697 9.38278C87.0406 9.59637 87.126 9.85267 87.126 10.0235V10.109C87.1687 9.85267 87.2969 9.59637 87.5105 9.4255C87.6814 9.21192 87.8949 9.12649 88.0658 9.12649C88.4075 9.12649 88.6638 9.21192 88.9201 9.4255C89.1337 9.63909 89.2619 9.89539 89.3473 10.1944C89.39 9.93811 89.5182 9.6818 89.7318 9.51094C89.9454 9.29735 90.1589 9.21192 90.3725 9.21192C90.6288 9.21192 90.8424 9.29735 91.0133 9.51094C91.0987 9.6818 91.2269 9.93811 91.355 10.3653C91.5259 9.80996 91.7395 9.51094 92.0812 9.51094C92.3375 9.51094 92.5084 9.59637 92.5938 9.80995C92.6365 9.93811 92.722 10.1944 92.8074 10.5789C93.2346 10.1517 93.5763 9.93811 93.8753 9.93811C94.2171 9.93811 94.4734 10.0235 94.6442 10.2371C94.9005 9.93811 95.1141 9.72452 95.2423 9.63909C95.3277 9.59637 95.5413 9.59637 95.8403 9.59637C96.0966 9.59637 96.3102 9.63909 96.4811 9.72452C96.5665 9.76724 96.7374 9.85267 96.9082 9.93811C96.9082 9.51094 96.9082 9.21192 96.9082 9.12649C96.9509 8.99833 97.1218 8.9129 97.4208 8.9129C97.7198 8.9129 97.9761 9.04105 98.2752 9.34007H98.3606C98.2752 8.82747 98.2324 8.52844 98.2324 8.40029C98.2324 8.14399 98.4033 7.97312 98.7451 7.97312C98.9159 7.97312 99.0868 8.05856 99.3431 8.22943C99.5994 8.44301 99.7275 8.61388 99.7703 8.82746C100.069 8.05856 100.454 7.6741 100.838 7.6741C101.137 7.6741 101.394 7.84497 101.479 8.14399C101.607 8.4003 101.607 8.69931 101.479 9.04105C101.522 8.95561 101.607 8.87018 101.778 8.78475C101.949 8.6566 102.077 8.61388 102.162 8.61388C102.376 8.61388 102.547 8.69931 102.632 8.82746C102.675 8.95561 102.718 9.12648 102.718 9.38278C102.718 9.51094 102.675 9.68181 102.59 9.85267C102.504 10.0235 102.461 10.1517 102.461 10.2798C102.504 10.2798 102.632 10.1944 102.803 10.109C102.974 10.0235 103.188 9.98083 103.358 9.98083C103.7 9.98083 104.042 10.0663 104.469 10.2798C104.512 10.3226 104.555 10.3226 104.597 10.3653C104.768 10.109 104.939 9.93811 105.11 9.80995C105.281 9.6818 105.452 9.59637 105.537 9.59637C105.836 9.59637 106.092 9.76724 106.349 10.109C106.349 9.9381 106.306 9.76724 106.221 9.59637C106.135 9.38278 106.092 9.1692 106.092 8.99833C106.092 8.6566 106.135 8.44301 106.178 8.40029C106.221 8.35757 106.349 8.31486 106.648 8.31486C106.819 8.31486 106.947 8.4003 107.075 8.57116C107.203 8.74203 107.288 8.9129 107.288 9.12649C107.288 8.87018 107.331 8.69931 107.417 8.6566C107.459 8.61388 107.545 8.61388 107.716 8.61388C108.1 8.61388 108.271 8.78475 108.186 9.1692C108.314 9.04105 108.527 8.9129 108.784 8.82746C108.784 8.35757 108.784 8.01584 108.784 7.84498C108.784 6.69162 108.399 6.09358 107.587 6.09358C107.118 6.09358 106.819 6.17901 106.776 6.39259C106.733 6.52075 106.733 6.73433 106.733 7.03335C106.69 6.86248 106.562 6.69162 106.306 6.56347C106.092 6.43531 105.922 6.39259 105.751 6.39259C105.494 6.39259 105.323 6.47803 105.238 6.60618C105.195 6.73433 105.153 6.99064 105.195 7.41781C105.024 7.24694 104.811 7.20422 104.64 7.20422C104.085 7.20422 103.615 7.46052 103.316 7.93041C103.358 7.50324 103.316 7.20422 103.273 7.07607C103.188 6.94792 103.017 6.86248 102.76 6.86248C102.675 6.86248 102.547 6.9052 102.376 6.99064C102.162 7.07607 101.992 7.1615 101.821 7.28965C101.821 7.1615 101.906 6.99063 101.992 6.81976C102.12 6.60618 102.162 6.43531 102.162 6.34988C102.12 6.05086 101.992 5.92271 101.735 5.92271C101.607 5.92271 101.394 5.96543 101.18 6.09358C101.009 6.17901 100.881 6.30716 100.795 6.43531C100.795 6.00814 100.795 5.70912 100.753 5.62369C100.24 5.28195 100.027 5.11108 99.6421 5.11108Z" fill="#7C9A27" />
    <path d="M68.3303 18.4388C69.3128 16.1321 70.1244 14.2099 70.8079 12.8002V12.7575H70.8506C72.7729 11.5614 74.0971 10.4081 74.8233 9.42556C75.2932 8.78481 75.3786 8.65665 75.4213 8.61394C75.6349 8.44307 76.0194 8.35764 76.532 8.35764C76.6601 8.35764 76.8737 8.44307 77.6853 9.04111C77.8989 9.16926 78.0698 9.34013 78.2406 9.46828L78.8814 9.29741C79.9066 9.04111 80.1629 8.99839 80.2483 8.99839C80.8464 8.99839 81.658 8.87024 82.6405 8.61394C84.1783 8.18677 84.1783 8.18677 84.221 8.18677C85.3317 8.18677 87.1685 8.69937 89.6461 9.68186H89.6888V9.72458C90.0305 10.7071 90.4577 11.8177 90.9276 13.0565C91.2266 13.9108 91.5256 14.7652 91.7819 15.6195L91.8246 15.7477H91.6965C87.0831 16.4312 83.4521 16.9438 80.8891 17.2855C75.5495 18.0544 72.1748 18.4388 70.8933 18.4388L68.2021 18.5243L68.3303 18.4388Z" fill="#727F80" />
    <path d="M91.6968 15.7477C91.4405 14.8934 91.1842 14.039 90.8424 13.1847C90.3726 11.9886 89.9881 10.878 89.6037 9.85276C87.1261 8.87027 85.3319 8.35767 84.2213 8.35767C84.1786 8.35767 83.666 8.48582 82.6835 8.78484C81.701 9.04114 80.8894 9.16929 80.2913 9.16929C80.1205 9.16929 79.6933 9.25472 78.9671 9.4683L78.2409 9.63918C78.0701 9.51102 77.8565 9.34015 77.6429 9.16929C77.0449 8.74212 76.6604 8.52853 76.5322 8.52853C76.0624 8.52853 75.7206 8.61397 75.507 8.74212C75.4643 8.78483 75.2507 9.04114 74.909 9.51102C74.1401 10.5362 72.8159 11.6469 70.8936 12.8857C70.2101 14.2953 69.3985 16.1749 68.416 18.5243L70.8936 18.4389C72.1751 18.4389 75.507 18.0544 80.8894 17.3282C83.5378 16.9438 87.1261 16.3885 91.6968 15.7477Z" fill="#727F80" />
    <path d="M82.9377 23.2351C82.5533 22.5516 81.9979 22.5089 81.3572 23.1069C80.3747 24.0467 79.7767 24.4739 79.6485 24.4312C78.4524 24.8156 78.4097 24.3457 79.5631 22.9788C80.7164 21.6545 81.2718 20.8002 81.2718 20.4585C81.2718 20.1167 81.0155 19.9459 80.5029 19.9459C79.1786 19.9459 77.9826 20.5439 77.0001 21.6973C76.402 22.3807 76.0603 22.8079 75.8894 22.8933C75.4623 23.2778 75.0351 23.4487 74.5225 23.4487C74.2662 23.4487 74.0953 23.4059 74.0099 23.3632C74.0953 23.0215 74.6079 22.2953 75.6331 21.1419C76.6156 19.9886 76.8292 19.3478 76.1884 19.177H75.2487C73.839 19.6468 72.5575 20.2449 71.4041 20.9711C70.2508 21.6973 68.7557 22.9788 66.9616 24.8156C65.1675 26.6097 64.0568 27.5068 63.5869 27.5068C63.1598 27.5068 62.9035 27.4641 62.8607 27.4213V26.9087C63.0743 25.7981 63.9287 24.303 65.381 22.3807C66.7907 20.5439 67.4742 19.5614 67.4742 19.5187C67.4742 19.3051 67.4315 19.177 67.3887 19.0915C67.2606 18.9634 67.0043 18.9207 66.5344 18.9207C65.6801 18.9207 64.5694 19.0915 63.2025 19.476C60.5967 21.1419 58.2473 23.1924 56.1542 25.6699C52.4378 30.0698 49.4476 35.0677 47.1836 40.6636C47.269 40.6209 47.3118 40.5355 47.3545 40.4927C48.6787 39.0404 49.7893 38.3142 50.7291 38.3142C51.0281 38.3142 51.2417 38.8695 51.2844 39.9374C51.3271 41.0054 51.6262 41.5607 52.1388 41.5607C52.3951 41.5607 52.9077 41.0908 53.6339 40.1937C54.061 39.6384 54.8727 38.6559 56.026 37.1181C58.5036 33.9998 60.5967 32.2484 62.2627 31.9493C62.9889 32.1202 63.2025 32.5474 62.9462 33.2736C62.7326 33.9998 62.3909 35.2386 61.8783 36.9899C61.4084 38.5705 60.9812 39.8947 60.554 40.9199C60.1269 42.0306 60.6395 41.9451 62.0491 40.7063C63.4588 39.4675 64.3558 38.8268 64.8257 38.7841C65.2956 38.7841 65.381 39.4248 65.1247 40.7063C64.9539 41.518 65.3383 41.9024 66.2354 41.9024C66.7907 41.9024 67.7305 40.749 69.1401 38.485C70.5498 36.1783 71.6177 35.0677 72.3866 35.0677C72.8565 35.0677 73.0701 35.6657 73.0701 36.8618C73.0701 37.0754 72.9847 37.9297 72.8138 39.4248C72.8138 39.852 72.8992 40.151 73.0701 40.3219C73.1555 40.4073 73.3264 40.45 73.54 40.45C73.54 40.45 74.2235 39.9374 75.5904 38.9122C76.2312 36.4773 77.0001 34.4269 77.8544 32.6755C79.0078 30.3688 80.4174 28.1902 82.1261 26.1825C82.1261 26.0971 82.1261 26.0117 82.1261 25.9262C82.1261 25.5845 82.2115 25.0719 82.3824 24.4739C82.6387 23.9613 82.7669 23.5341 82.9377 23.2351ZM77.5981 25.4136C78.1961 24.7729 78.4952 24.7729 78.4952 25.4564C78.4952 25.5845 78.3243 25.8835 77.9826 26.3534C77.5981 26.866 77.3418 27.1223 77.1282 27.1223C76.9573 27.1223 76.8292 27.0369 76.7438 26.9087C76.701 26.7806 76.701 26.6952 76.701 26.6952C76.701 26.4816 77.0001 26.0544 77.5981 25.4136ZM72.2158 24.901C73.1982 23.9613 73.6681 23.8758 73.6681 24.6447C72.5148 26.6524 71.7032 27.6776 71.2333 27.6776C70.977 27.6776 70.8061 27.5922 70.7634 27.4213C70.7634 27.2505 70.7634 27.165 70.7634 27.165C70.7634 26.567 71.2333 25.8408 72.2158 24.901ZM70.3362 29.3863C70.0799 30.2407 69.7382 30.6678 69.311 30.6678C69.1401 30.6678 69.012 30.5824 68.9266 30.4542C68.8838 30.3688 68.8838 30.2834 68.8838 30.1979L69.61 29.2155C70.1226 28.7456 70.3362 28.7883 70.3362 29.3863ZM62.519 28.9164C62.1773 30.1125 61.7501 30.6678 61.2375 30.6678C61.0239 30.6678 60.8958 30.5824 60.853 30.4115C60.8103 30.2407 60.8103 30.1552 60.8103 30.1552C60.8103 29.5145 61.1093 28.9592 61.6647 28.5747C62.22 28.1902 62.519 28.3184 62.519 28.9164Z" fill="#B4ECF5" />
    <path d="M61.2372 30.7105C61.7925 30.7105 62.2197 30.1125 62.5187 28.9591C62.5187 28.3611 62.2197 28.2329 61.6644 28.6174C61.1091 29.0019 60.8101 29.5572 60.8101 30.1979C60.8101 30.1979 60.81 30.2834 60.8528 30.4542C60.8955 30.6251 61.0236 30.7105 61.2372 30.7105ZM69.3535 30.7105C69.7806 30.7105 70.1224 30.2834 70.3787 29.429C70.3787 28.831 70.1224 28.7883 69.6525 29.3009L68.9263 30.2834C68.9263 30.3688 68.9263 30.4542 68.969 30.5397C69.0544 30.6251 69.1826 30.7105 69.3535 30.7105ZM73.6679 24.6447C73.6679 23.8758 73.198 23.9612 72.2155 24.901C71.233 25.8408 70.7631 26.567 70.7631 27.165C70.7631 27.165 70.7631 27.2505 70.7631 27.4213C70.8058 27.5922 70.9767 27.6776 71.233 27.6776C71.7456 27.6776 72.5572 26.6524 73.6679 24.6447ZM78.4949 25.4563C78.4949 24.7729 78.1959 24.7302 77.5978 25.4136C76.9998 26.0544 76.7008 26.5243 76.7008 26.7378C76.7008 26.7378 76.7008 26.8233 76.7435 26.9514C76.8289 27.0796 76.9144 27.165 77.1279 27.165C77.2988 27.165 77.5978 26.9087 77.9823 26.3961C78.324 25.8835 78.4949 25.5845 78.4949 25.4563ZM88.0635 13.7092C86.1412 13.6664 84.518 13.7519 83.3219 13.9655C82.0831 14.1791 81.3142 14.3499 81.0152 14.4781C80.1609 14.7344 79.3065 15.0761 78.4522 15.4178C79.3065 15.0761 80.1609 14.7344 81.0152 14.4781C74.2232 14.6489 68.2855 16.3149 63.2876 19.5187C64.6546 19.1342 65.7652 18.9634 66.6196 18.9634C67.0894 18.9634 67.3885 19.0061 67.4739 19.1342C67.5166 19.1769 67.5593 19.3051 67.5593 19.5614C67.5593 19.6468 66.8759 20.5866 65.4662 22.4234C64.0138 24.3457 63.1595 25.8408 62.9459 26.9514V27.464C62.9886 27.5068 63.2449 27.5495 63.6721 27.5495C64.0993 27.5495 65.2099 26.6524 67.0467 24.8583C68.8408 23.0642 70.336 21.7827 71.4893 21.0138C72.6427 20.2876 73.9242 19.6895 75.3338 19.2197H76.2736C76.8716 19.3905 76.7008 20.0313 75.7183 21.1846C74.7358 22.338 74.1805 23.0642 74.095 23.4059C74.1378 23.4486 74.3086 23.4914 74.6076 23.4914C75.1202 23.4914 75.5474 23.3205 75.9746 22.936C76.1027 22.8079 76.4872 22.4234 77.0852 21.74C78.0677 20.5439 79.2638 19.9886 80.588 19.9886C81.1006 19.9886 81.3569 20.1594 81.3569 20.5012C81.3569 20.8429 80.8016 21.6972 79.6482 23.0215C78.4949 24.3457 78.5376 24.8583 79.7337 24.4738C79.8618 24.5593 80.4599 24.0894 81.4424 23.1496C82.0831 22.5516 82.5957 22.5943 83.0229 23.2778C82.852 23.5768 82.7239 24.004 82.553 24.5166C82.3821 25.1146 82.2967 25.6272 82.2967 25.9689C82.2967 26.0544 82.2967 26.1398 82.2967 26.2252C85.7141 22.1244 90.2848 18.6216 95.9234 15.6741C95.4963 15.0761 94.5992 14.6489 93.1895 14.3072C91.6517 13.9655 89.9858 13.7946 88.0635 13.7092ZM75.0775 17.0411C75.4193 16.8702 75.8037 16.6566 76.1455 16.4858C75.8037 16.6566 75.462 16.8275 75.0775 17.0411Z" fill="#DEFAFF" />
    <path d="M65.2097 40.7919C65.466 39.5104 65.3805 38.8696 64.9106 38.8696C64.4835 38.9123 63.5437 39.5531 62.134 40.7919C60.7244 42.0307 60.2545 42.1161 60.6389 41.0055C61.0661 39.9803 61.4933 38.6988 61.9632 37.0755C62.4758 35.3241 62.8175 34.0853 63.0311 33.3591C63.2874 32.6329 63.0738 32.2058 62.3476 32.0349C60.6389 32.3339 58.5458 34.0853 56.1109 37.2037C54.9576 38.6988 54.146 39.724 53.7188 40.2793C52.9926 41.1763 52.48 41.6462 52.2237 41.6462C51.6684 41.6462 51.4121 41.0909 51.3694 40.023C51.3266 38.9551 51.113 38.3997 50.814 38.3997C49.8743 38.3997 48.7636 39.1259 47.4394 40.5783C47.3967 40.621 47.3112 40.7065 47.2685 40.7492C45.1754 46.0034 43.7657 51.8129 42.9541 58.135C43.5094 58.6476 44.022 59.0321 44.5346 59.2884C45.2181 59.6728 45.7307 59.8437 46.0725 59.8437C46.4569 59.8437 46.7559 59.2884 46.8841 58.1777C47.0549 57.0671 47.4394 56.5118 48.0801 56.5118C48.5927 56.5118 49.1908 56.8535 49.8743 57.5797C50.5577 58.2631 51.1558 58.6476 51.6257 58.6476C52.0528 58.6476 52.4373 58.3486 52.8217 57.7078C53.2062 57.0671 53.5906 56.7681 53.9751 56.7681C54.1887 56.7681 54.445 57.0671 54.744 57.7078C55.0857 58.3059 55.5983 58.6049 56.2391 58.6049C56.7944 58.6049 57.6915 57.9641 58.8875 56.7253C60.0836 55.4865 61.0661 54.8031 61.7923 54.7604C62.5185 54.6749 62.8175 55.3157 62.6466 56.6399C62.4758 57.9214 62.6894 58.5622 63.2874 58.5194C63.8854 58.434 64.4835 58.3486 65.0388 58.2631C65.5941 58.1777 65.765 58.6049 65.5514 59.5874C65.5514 59.8437 65.6368 60.0573 65.8077 60.1427C66.363 60.5699 67.1746 60.1427 68.2426 58.9466C69.3105 57.7505 70.0794 57.1525 70.5493 57.1525C70.8483 57.1525 71.0619 57.2379 71.1473 57.4515C71.19 57.537 71.19 57.7078 71.19 58.0068C71.19 58.2631 71.1046 58.733 70.891 59.3738C70.891 59.6728 71.1046 59.801 71.4463 59.801C71.6599 59.801 72.0871 59.5019 72.6851 58.9466C73.155 50.745 74.0948 44.0811 75.4617 38.9978C74.0948 40.023 73.4113 40.5356 73.4113 40.5356C73.1977 40.5356 73.0696 40.4929 72.9414 40.4074C72.7706 40.2366 72.6851 39.9803 72.6851 39.5104C72.856 38.0153 72.9414 37.161 72.9414 36.9474C72.9414 35.7513 72.7279 35.1532 72.258 35.1532C71.4891 35.1532 70.4211 36.3066 69.0115 38.5706C67.6018 40.8346 66.6193 41.988 66.1067 41.988C65.3805 41.988 65.0388 41.6035 65.2097 40.7919ZM63.9282 54.0342C63.501 54.0342 63.2447 53.8633 63.1165 53.5643C63.0738 53.2653 63.0311 53.0944 63.0311 53.0517C63.0311 52.4964 63.3728 52.0265 64.099 51.642C64.8252 51.2576 65.1669 51.5566 65.1669 52.5818C65.1669 53.5216 64.7398 54.0342 63.9282 54.0342ZM49.7034 53.3934C49.7034 53.607 49.618 53.7779 49.4898 53.9487C49.3189 54.1196 49.1053 54.2478 48.8918 54.2478C48.5073 54.2478 48.2083 54.0769 48.0801 53.7779L47.9947 53.308C47.9947 52.6672 48.2937 52.4109 48.8918 52.5391C49.4044 52.6245 49.7034 52.9235 49.7034 53.3934ZM51.6684 50.2324C51.6684 50.5741 51.4975 50.7877 51.1985 50.7877C50.9849 50.7877 50.8568 50.7022 50.7713 50.5314C50.7286 50.3605 50.7286 50.2751 50.7286 50.2751C50.7286 49.9333 50.8995 49.7197 51.1985 49.7197C51.4975 49.7197 51.6684 49.8906 51.6684 50.2324Z" fill="#8CE5F3" />
    <path d="M51.1987 50.745C51.4977 50.745 51.6686 50.5741 51.6686 50.1896C51.6686 49.8479 51.4977 49.677 51.1987 49.677C50.8997 49.677 50.7288 49.8479 50.7288 50.2324C50.7288 50.2324 50.7288 50.3178 50.7715 50.4887C50.8569 50.7022 50.9851 50.745 51.1987 50.745ZM49.49 53.9487C49.6182 53.7779 49.7036 53.607 49.7036 53.3934C49.7036 52.9235 49.4046 52.6245 48.8492 52.4964C48.2512 52.3682 47.9522 52.6672 47.9522 53.2653L48.0376 53.7351C48.2085 54.0342 48.4648 54.205 48.8492 54.205C49.1055 54.205 49.3191 54.1196 49.49 53.9487ZM63.1167 53.5643C63.2449 53.8633 63.5012 54.0342 63.9283 54.0342C64.7827 54.0342 65.1671 53.5643 65.1671 52.5818C65.1671 51.5566 64.8254 51.2576 64.0992 51.642C63.373 52.0265 63.0313 52.4964 63.0313 53.0517C63.0313 53.0517 63.074 53.2225 63.1167 53.5643ZM54.7869 57.7506C54.4879 57.1525 54.2316 56.8108 54.018 56.8108C53.6335 56.8108 53.2491 57.1098 52.8646 57.7506C52.4802 58.3486 52.0957 58.6903 51.6686 58.6903C51.1987 58.6903 50.6006 58.3486 49.9172 57.6224C49.2337 56.9389 48.6357 56.5545 48.1231 56.5545C47.4823 56.5545 47.0551 57.1098 46.927 58.2204C46.7988 59.3311 46.5425 59.8864 46.1153 59.8864C45.7736 59.8864 45.261 59.7155 44.5775 59.3311C44.0649 59.0321 43.5096 58.6476 42.997 58.1777C42.7407 57.9641 42.4844 57.7078 42.2281 57.4088C41.0748 56.17 40.0923 55.572 39.2806 55.572C38.8962 55.572 38.6399 55.6147 38.469 55.7001C38.2127 55.8283 38.0846 56.0846 38.0846 56.3836C38.0846 57.5797 38.7253 58.733 40.0068 59.8864C41.1602 60.8262 41.7155 61.5524 41.5874 62.065C41.4592 62.6203 41.2456 63.0475 40.9466 63.3892C40.6049 63.6882 40.4767 64.03 40.5621 64.3717C40.6476 64.7134 40.9039 64.8416 41.3311 64.8416C41.7582 64.7989 42.2708 64.628 42.9543 64.329C43.595 64.0299 44.0649 63.9018 44.3212 63.9018C44.6203 63.9018 45.0047 64.2008 45.4746 64.8416C45.9445 65.4396 46.3717 65.7813 46.7988 65.7813C47.2687 65.7813 47.8668 65.4823 48.6357 64.927C49.4046 64.3717 50.0026 64.0727 50.4298 64.0727C50.7288 64.0727 51.0705 64.2863 51.455 64.7561C51.8821 65.226 52.2666 65.4396 52.6938 65.4396C53.0355 65.4396 53.6335 65.226 54.4452 64.8416C54.616 64.7561 54.7869 64.6707 54.9151 64.628C55.8548 64.0727 56.6665 64.1581 57.3072 64.927C57.948 65.6959 58.4606 66.0376 58.9305 66.0376C59.3149 66.0376 59.7421 65.7386 60.2974 65.1406C60.8527 64.5853 61.3653 64.2863 61.8779 64.2863C62.0488 64.2863 62.3478 64.4144 62.6468 64.628C62.9886 64.8416 63.2449 64.9697 63.4157 64.9697C63.6293 64.9697 64.0138 64.7561 64.5264 64.2863C65.039 63.8164 65.637 63.5601 66.3632 63.5601C66.9185 63.5601 67.303 63.7736 67.5593 64.1154C67.8156 64.4571 68.2855 64.6707 68.9262 64.6707C69.3534 64.6707 69.7379 64.5426 70.0796 64.2863C70.4213 63.9872 70.8912 63.8591 71.4465 63.8591C71.7028 63.8591 72.0873 64.0299 72.5999 64.329C73.1125 64.628 73.5397 64.8416 73.8387 64.927C74.1377 65.0124 74.394 64.927 74.6076 64.6707C74.8212 64.4144 74.9066 64.1581 74.8212 63.9445C74.7357 63.6882 74.4367 63.3038 73.8387 62.7912C73.2407 62.2358 73.3261 61.6378 74.095 60.9116C74.4367 60.6553 74.7785 60.399 75.1629 60.1854C76.1027 59.6301 76.6153 59.1175 76.6153 58.733C76.658 58.3486 76.6153 58.0069 76.4871 57.7933C76.359 57.5797 76.06 57.4515 75.5901 57.4515C74.8212 57.4515 74.0523 57.836 73.2406 58.6476C73.0698 58.7758 72.9416 58.9039 72.8562 59.0321C72.2582 59.5874 71.831 59.8864 71.6174 59.8864C71.233 59.8864 71.0621 59.7583 71.0621 59.4592C71.2757 58.8185 71.3611 58.3486 71.3611 58.0923C71.3611 57.836 71.3611 57.6651 71.3184 57.537C71.2329 57.3234 71.0194 57.2379 70.7203 57.2379C70.2077 57.2379 69.4388 57.836 68.4136 59.0321C67.3457 60.2709 66.5341 60.6553 65.9788 60.2281C65.8079 60.1 65.7225 59.9291 65.7225 59.6728C65.936 58.6903 65.7652 58.2204 65.2099 58.3486C64.6545 58.434 64.0565 58.5195 63.4585 58.6049C62.8177 58.6476 62.6041 58.0069 62.8177 56.7253C62.9886 55.4011 62.6895 54.8031 61.9634 54.8458C61.2372 54.9312 60.2547 55.572 59.0586 56.8108C57.8198 58.0496 56.9655 58.6903 56.4101 58.6903C55.5985 58.6049 55.1286 58.3486 54.7869 57.7506ZM36.0341 48.3101C36.1623 48.1392 36.205 47.9684 36.205 47.7975C36.205 47.3276 35.906 47.0286 35.3507 46.9004C34.7526 46.7296 34.4536 47.114 34.4536 48.0111C34.4536 48.0111 34.4963 48.1392 34.5391 48.3528C34.6672 48.5664 34.9235 48.6518 35.308 48.6518C35.6497 48.6091 35.906 48.5237 36.0341 48.3101ZM37.3584 64.2863C37.4865 64.1581 37.5292 63.9872 37.5292 63.8164C37.5292 63.1756 37.2302 62.8339 36.6749 62.7912C36.1196 62.7484 35.8206 63.0047 35.8206 63.6455C35.8206 63.6455 35.8633 63.8164 35.9487 64.1154C36.1196 64.4144 36.3332 64.5853 36.6749 64.5853C37.0166 64.5853 37.2302 64.4998 37.3584 64.2863ZM80.5453 63.7736C80.6734 63.6028 80.7588 63.4319 80.7588 63.2183C80.7588 62.7057 80.4598 62.4494 79.9045 62.4067C79.3492 62.364 79.0502 62.6203 79.0502 63.2183C79.0502 63.2183 79.0929 63.3892 79.1356 63.6455C79.2637 63.9018 79.52 64.0299 79.8618 64.0299C80.1608 64.0727 80.3744 63.9872 80.5453 63.7736ZM79.6909 57.7078C79.8618 57.537 79.9472 57.2807 79.9472 57.0244C79.9472 56.2982 79.5628 55.9564 78.8366 55.9992C78.0677 56.0419 77.7259 56.4263 77.7259 57.1098L77.7687 57.5797C77.8968 57.8787 78.2385 58.0496 78.7939 58.0496C79.1356 58.0496 79.4346 57.9641 79.6909 57.7078ZM37.1448 53.5216C38.17 53.5216 38.6826 52.9662 38.6826 51.8129C38.6826 50.6595 38.17 50.1042 37.1875 50.1042C36.205 50.1042 35.6924 50.6595 35.6924 51.8129C35.6924 51.8129 35.7351 52.1119 35.7778 52.6672C35.9487 53.2225 36.4186 53.5216 37.1448 53.5216Z" fill="#D2F8FF" />
    <path d="M92.5938 25.0405C90.4579 25.0405 88.4502 24.9123 86.6988 24.6133C85.9727 24.5279 85.5028 24.3143 85.2892 23.8871C85.0329 23.4173 85.1183 22.7338 85.5455 21.8367C87.0833 18.7611 88.3648 16.7534 89.3473 15.7709C89.6036 15.5146 90.1589 15.0447 91.056 14.404C91.3123 14.2331 91.5259 14.0622 91.7822 13.8486C92.5084 13.4642 93.1918 13.1225 93.8326 12.8662L94.2598 12.6953L94.0035 13.0797C93.2345 14.1477 92.4229 15.4292 91.6113 16.967C91.1841 17.7359 90.8424 18.4194 90.5861 18.9747C90.757 19.7009 91.056 20.3844 91.4404 21.0251C92.8928 21.0678 95.1141 21.3241 98.0188 21.7086C99.0013 21.8367 99.9838 21.9649 100.924 22.1357L103.615 21.8794C104.213 21.8367 104.768 21.7513 105.195 21.6231L105.323 21.5804L105.366 21.7086C105.452 22.1357 105.494 22.5202 105.494 22.8619V22.9474L97.7626 24.7842C95.883 24.9551 94.1743 25.0405 92.5938 25.0405ZM114.422 22.7338C113.226 22.5629 111.688 22.392 109.851 22.1785L109.638 22.1357L109.723 21.9649C110.108 21.3668 110.407 20.8115 110.749 20.3416H110.065C109.211 20.3416 107.417 20.2989 104.768 20.2562H104.683L104.64 20.1708C104.298 19.0174 104.042 17.9922 103.871 17.0951C103.145 16.0272 102.248 15.002 101.265 14.0622C100.795 13.6778 100.368 13.2933 99.9838 13.037L99.8557 12.9516L99.9411 12.8662C100.539 12.2681 101.094 11.7555 101.607 11.2429L101.65 11.2002L101.735 11.2429C104.213 12.1827 106.007 13.2079 107.118 14.2758C107.545 14.703 107.929 15.1729 108.228 15.7282C109.168 16.0272 109.894 16.2408 110.492 16.4117C111.774 15.9418 113.397 15.2583 115.277 14.4467L115.405 14.404L115.447 14.5321C115.789 15.3437 116.003 16.0699 116.088 16.7107V16.8388H115.917C115.875 16.8388 115.832 16.8388 115.746 16.8388C115.533 16.8388 115.234 16.8816 114.892 16.9243C114.721 16.967 114.508 16.967 114.337 17.0097C114.251 17.6505 114.123 18.4621 113.952 19.4446C114.465 19.9145 114.935 20.3416 115.405 20.7688C115.447 20.8115 115.49 20.8115 115.49 20.8542C116.601 20.7261 117.84 20.5125 119.121 20.128L119.206 20.0853L119.249 20.1708C119.42 20.5125 119.591 20.8542 119.762 21.196L119.847 21.3668H119.719C119.676 21.4096 119.591 21.5377 119.42 21.8367C119.292 22.1357 118.566 22.4348 114.422 22.7338Z" fill="#727F80" />
    <path d="M114.977 16.7959C115.405 16.7532 115.746 16.7105 116.003 16.7532C115.917 16.1124 115.704 15.3863 115.362 14.6173C113.44 15.429 111.859 16.1124 110.535 16.5823C109.937 16.4115 109.168 16.1552 108.185 15.8561C107.886 15.3008 107.545 14.8309 107.075 14.4038C105.964 13.3358 104.213 12.3533 101.735 11.3708C101.223 11.8407 100.667 12.3961 100.069 12.9941C100.454 13.2931 100.881 13.6349 101.351 14.062C102.376 15.0018 103.273 16.027 103.999 17.1376C104.17 18.0347 104.426 19.0599 104.768 20.2133C107.417 20.2987 109.168 20.2987 110.065 20.2987C110.407 20.2987 110.706 20.2987 110.962 20.2987C111.816 18.889 112.372 17.9065 112.628 17.4367C113.183 17.2231 113.739 17.0949 114.251 16.9668C114.55 16.8386 114.764 16.7959 114.977 16.7959ZM93.8753 13.0368C93.2345 13.2931 92.551 13.6348 91.8676 14.0193C91.654 14.1902 91.3977 14.4038 91.1414 14.5746C90.2443 15.2154 89.689 15.6426 89.4327 15.8989C88.4502 16.8386 87.2114 18.889 85.6309 21.9219C84.862 23.5025 85.2037 24.3568 86.6988 24.5277C89.7744 24.9976 93.4481 25.083 97.7198 24.6986L105.366 22.9044C105.366 22.5627 105.323 22.221 105.238 21.7938C104.811 21.8792 104.255 21.9647 103.615 22.0501C102.547 22.1355 101.65 22.2637 100.881 22.3064C99.9411 22.1783 98.9586 22.0501 97.9761 21.8792C94.9859 21.4948 92.7646 21.2385 91.3123 21.1958C90.8851 20.5123 90.5861 19.7861 90.4152 18.9745C90.6715 18.3764 91.0559 17.693 91.4831 16.9241C92.2947 15.3862 93.1064 14.1047 93.8753 13.0368ZM119.719 21.2812C119.548 20.8967 119.377 20.555 119.206 20.256C117.882 20.6404 116.643 20.8967 115.49 20.9822C115.447 20.9395 115.405 20.8967 115.362 20.854C114.892 20.3841 114.379 19.957 113.867 19.4871C114.038 18.4192 114.209 17.5648 114.294 16.9241C113.781 17.0522 113.269 17.1804 112.671 17.3939C112.414 17.9066 111.859 18.8463 111.005 20.256C110.663 20.8113 110.279 21.4093 109.894 22.0501C111.774 22.2637 113.269 22.4346 114.465 22.6054C117.498 22.3918 119.164 22.0928 119.377 21.7938C119.548 21.4521 119.676 21.2812 119.719 21.2812Z" fill="#727F80" />
    <path d="M98.1367 73.2014C98.5638 73.1587 98.9056 73.116 99.1619 73.1587C99.0764 72.518 98.8628 71.7918 98.5211 71.0229C96.5988 71.8345 95.0183 72.518 93.6941 72.9878C93.096 72.817 92.3271 72.5607 91.3446 72.2617C91.0456 71.7063 90.7039 71.2364 90.234 70.8093C89.1234 69.7414 87.372 68.7589 84.8944 67.7764C84.3818 68.2463 83.8265 68.8016 83.2284 69.3996C83.6129 69.6986 84.04 70.0404 84.5099 70.4675C85.5351 71.4073 86.4322 72.4325 87.1584 73.5432C87.3292 74.4402 87.5856 75.4654 87.9273 76.6188C90.5757 76.7042 92.3271 76.7042 93.2242 76.7042C93.5659 76.7042 93.865 76.7042 94.1213 76.7042C94.9756 75.2946 95.5309 74.3121 95.7872 73.8422C96.3425 73.6286 96.8979 73.5004 97.4105 73.3723C97.7095 73.2441 97.9231 73.2014 98.1367 73.2014ZM77.0345 69.4423C76.3937 69.6986 75.7102 70.0404 75.0267 70.4248C74.8132 70.5957 74.5569 70.8093 74.3006 70.9801C73.4035 71.6209 72.8482 72.0481 72.5919 72.3044C71.6094 73.2441 70.3706 75.2946 68.7901 78.3275C68.0212 79.908 68.3629 80.7623 69.858 80.9332C72.9336 81.4031 76.6073 81.4885 80.879 81.1041L88.5253 79.31C88.5253 78.9682 88.4826 78.6265 88.3972 78.1993C87.97 78.2847 87.4147 78.3702 86.7739 78.4556C85.706 78.5411 84.8089 78.6692 84.04 78.7119C83.1003 78.5838 82.1178 78.4556 81.1353 78.2848C78.1451 77.9003 75.9238 77.644 74.4714 77.6013C74.0443 76.9178 73.7452 76.1916 73.5744 75.38C73.8307 74.782 74.2151 74.0985 74.6423 73.3296C75.4539 71.7918 76.2655 70.5103 77.0345 69.4423ZM102.878 77.6867C102.707 77.3023 102.536 76.9605 102.366 76.6615C101.041 77.046 99.8026 77.3023 98.6493 77.3877C98.6065 77.345 98.5638 77.3023 98.5211 77.2595C98.0512 76.7897 97.5386 76.3625 97.026 75.8926C97.1969 74.8247 97.3677 73.9703 97.4532 73.3296C96.9406 73.4577 96.428 73.5859 95.8299 73.7995C95.5736 74.3121 95.0183 75.2518 94.164 76.6615C93.8222 77.2168 93.4378 77.8149 93.0533 78.4556C94.9329 78.6692 96.428 78.8401 97.624 79.0109C100.657 78.7974 102.323 78.4983 102.536 78.1993C102.707 77.8576 102.836 77.6867 102.878 77.6867Z" fill="#727F80" />
    <path d="M115.362 14.5748C115.234 14.2757 115.105 13.9767 114.935 13.635C113.867 11.6273 112.243 9.74773 110.065 7.99634C109.894 7.99634 109.766 7.99634 109.723 7.99634C109.211 7.99634 108.442 8.08177 107.459 8.25264C106.477 8.4235 105.451 8.6798 104.426 8.97882C103.785 9.49143 102.888 10.3031 101.778 11.3283C104.255 12.268 106.049 13.2932 107.117 14.3612C107.545 14.7883 107.929 15.2582 108.228 15.8135C109.211 16.1126 109.979 16.3689 110.577 16.5397C111.816 16.0699 113.44 15.3864 115.362 14.5748ZM95.4984 12.4389C94.9858 12.6098 94.4304 12.7806 93.8751 12.9942C93.1062 14.0622 92.2946 15.3437 91.483 16.8815C91.0558 17.6931 90.7141 18.3766 90.415 18.9319C90.5859 19.7008 90.9276 20.427 91.3121 21.1532C92.7645 21.1959 94.9858 21.4522 97.976 21.8366C98.9584 21.9648 99.9409 22.0929 100.881 22.2638C101.607 22.1784 102.547 22.0929 103.615 22.0075C104.255 21.9648 104.768 21.8794 105.238 21.7512C105.152 21.324 105.024 20.8114 104.896 20.2988C104.896 20.2561 104.853 20.2134 104.853 20.1707C104.512 19.0173 104.255 17.9921 104.084 17.0951C103.358 15.9844 102.461 14.9592 101.436 14.0194C100.966 13.5923 100.539 13.2505 100.155 12.9515C99.2575 12.3108 98.4886 12.0117 97.8905 12.0117C97.2498 12.0117 96.4809 12.1399 95.4984 12.4389ZM115.362 20.8542C115.404 20.8969 115.447 20.9396 115.49 20.9823C116.643 20.8969 117.839 20.6406 119.206 20.2561C118.566 18.8892 118.01 17.9494 117.583 17.4368C117.199 16.9669 116.686 16.7106 116.045 16.7106C116.003 16.7106 116.003 16.7106 115.96 16.7106C115.704 16.7106 115.362 16.7106 114.935 16.7533C114.721 16.796 114.507 16.8388 114.294 16.8815C114.208 17.5222 114.08 18.3766 113.867 19.4445C114.422 19.9571 114.892 20.3843 115.362 20.8542Z" fill="#91999A" />
    <path d="M98.5209 70.9803C98.3928 70.6813 98.2646 70.3822 98.0938 70.0405C97.0259 68.0328 95.4026 66.1533 93.224 64.4019C93.0532 64.4019 92.925 64.4019 92.8823 64.4019C92.3697 64.4019 91.6008 64.4873 90.6183 64.6582C89.6358 64.829 88.6106 65.0853 87.5854 65.3843C86.9446 65.8969 86.0476 66.7086 84.9369 67.7338C87.4145 68.6736 89.2086 69.6988 90.2766 70.7667C90.7037 71.1939 91.0882 71.6637 91.3872 72.2191C92.3697 72.5181 93.1386 72.7744 93.7367 72.9453C94.9754 72.4754 96.5987 71.7919 98.5209 70.9803ZM78.6575 68.8444C78.1449 69.0153 77.5896 69.1862 77.0343 69.3997C76.2654 70.4677 75.4538 71.7492 74.6421 73.287C74.215 74.0986 73.8732 74.7821 73.5742 75.3374C73.7451 76.1063 74.0868 76.8325 74.4713 77.5587C75.9237 77.6014 78.1449 77.8577 81.1351 78.2422C82.1176 78.3703 83.1001 78.4985 84.0399 78.6693C84.7661 78.5839 85.7058 78.4985 86.7738 78.413C87.4145 78.3703 87.9271 78.2849 88.397 78.1567C88.3116 77.7296 88.1834 77.217 88.0553 76.7043C88.0553 76.6616 88.0126 76.6189 88.0126 76.5762C87.6708 75.4228 87.4145 74.3976 87.2437 73.5006C86.5175 72.3899 85.6204 71.3647 84.5952 70.4249C84.1253 69.9978 83.6981 69.656 83.3137 69.357C82.4166 68.7163 81.6477 68.4173 81.0497 68.4173C80.4089 68.4173 79.64 68.5454 78.6575 68.8444ZM98.5209 77.2597C98.5637 77.3024 98.6064 77.3451 98.6491 77.3878C99.8025 77.3024 100.999 77.0461 102.365 76.6616C101.725 75.2947 101.169 74.3549 100.742 73.8423C100.358 73.3724 99.8452 73.1161 99.2044 73.1161C99.1617 73.1161 99.1617 73.1161 99.119 73.1161C98.8627 73.1161 98.5209 73.1161 98.0938 73.1588C97.8802 73.2016 97.6666 73.2443 97.453 73.287C97.3676 73.9277 97.2394 74.7821 97.0259 75.85C97.5812 76.3626 98.0511 76.7898 98.5209 77.2597Z" fill="#91999A" />
    <defs>
        <linearGradient id="mountain0_linear" x1="60.84" y1="48.232" x2="60.84" y2="118.406" gradientUnits="userSpaceOnUse">
            <stop stop-color="#8CE5F3" stop-opacity="0.2" />
            <stop offset="0.45" stop-color="#8CE5F3" stop-opacity="0" />
        </linearGradient>
        <linearGradient id="mountain2_linear" x1="42.009" y1="-0.00337173" x2="42.009" y2="16.7473" gradientUnits="userSpaceOnUse">
            <stop offset="0.03" stop-color="#8CE5F3" stop-opacity="0.4" />
            <stop offset="0.25" stop-color="#8CE5F3" stop-opacity="0.2" />
            <stop offset="0.8" stop-color="#8CE5F3" stop-opacity="0" />
        </linearGradient>
        <linearGradient id="mountain1_linear" x1="4690.52" y1="2976.35" x2="4690.52" y2="3870.75" gradientUnits="userSpaceOnUse">
            <stop offset="0.03" stop-color="#8CE5F3" stop-opacity="0.4" />
            <stop offset="0.25" stop-color="#8CE5F3" stop-opacity="0.2" />
            <stop offset="0.8" stop-color="#8CE5F3" stop-opacity="0" />
        </linearGradient>
    </defs>
</svg>
    