<svg width="139" height="68" viewBox="0 0 139 68" fill="none" xmlns="http://www.w3.org/2000/svg">
<path d="M133.742 49.4857C134 47.7245 134.13 45.9204 134.13 44.0732C134.13 23.1964 117.148 6.22865 96.1578 6.22865C75.2108 6.22865 58.186 23.1535 58.186 44.0732C58.186 45.9204 58.3153 47.7245 58.5739 49.4857H133.742Z" fill="#EAF3FC"/>
<path d="M101.416 49.1421L91.0284 40.4649L88.3562 42.4409L78.2706 35.7827L76.0725 38.6178L73.5726 34.7517L68.7453 30.1983L66.2024 32.4321L57.8408 21.0486L53.4446 26.4182L50.4275 24.7429L47.7984 28.3942L46.7639 25.7309L40.0402 16.0657L34.6957 23.4112L30.6442 24.7429L27.6272 29.4251L23.274 30.4131L18.2312 38.446L12.8867 43.7726L6.16301 46.7795L2.80115 49.4858L101.416 49.1421Z" fill="white"/>
<path d="M2.84424 49.4857L6.163 46.7795L12.8867 43.7725L18.2312 38.446L23.274 30.4131L27.6272 29.4251L30.6442 24.7429L34.6957 23.4112L39.6092 16.6671L43.0142 49.1851L2.84424 49.4857ZM47.7552 28.3941L50.4275 24.7429L53.8756 26.3322L77.9258 49.228L61.2889 49.271L58.8321 43.7725L54.8238 39.0903L52.1084 39.4339L47.7552 28.3941Z" fill="#F5FAFF"/>
<path d="M3.10291 49.7865L2.5426 49.1421L5.99067 46.3929L12.6282 43.4289L17.9296 38.1882L23.0155 30.0265L27.3687 29.0385L30.3857 24.3563L34.4372 23.0246L40.0403 15.2925L47.1519 25.602L52.4102 38.9615L54.9962 38.6608L59.2201 43.6007L61.6769 49.0992L60.901 49.4428L58.4443 44.0303L54.6514 39.5628L51.8499 39.9065L46.3761 25.9457L40.0403 16.796L34.9544 23.7549L30.946 25.0865L27.929 29.8117L23.5327 30.7997L18.5761 38.7467L13.1454 44.1592L6.42167 47.1661L3.10291 49.7865Z" fill="#0066FF" fill-opacity="0.5"/>
<path d="M76.1159 38.5748L77.1072 37.2432L92.6666 49.3999L89.7789 49.4858L87.1497 47.8105L78.9606 43.1282L76.1159 38.5748Z" fill="#F5FAFF"/>
<path d="M89.9082 50.0442L78.6589 43.4289L78.5727 43.343L73.2713 35.0524L68.7457 30.7997L66.1597 33.0335L57.7981 21.7789L53.5742 26.9766L50.5572 25.3013L48.1004 28.6519L47.4108 28.1794L50.3417 24.1844L53.3587 25.8597L57.8412 20.3613L66.289 31.7877L68.7888 29.6399L73.9609 34.5369L79.2623 42.7846L90.3392 49.3139L89.9082 50.0442Z" fill="#0066FF" fill-opacity="0.5"/>
<path d="M101.416 49.7005L91.0288 40.9804L88.3566 42.9564L78.3572 36.3411L76.4608 38.8326L75.7711 38.3171L78.1848 35.1813L88.3135 41.9254L91.0288 39.9065L101.976 49.0132L101.416 49.7005ZM11.2493 54.3398H22.0676V55.199H11.2493V54.3398ZM24.6105 54.3398H27.9293V55.199H24.6105V54.3398Z" fill="#0066FF" fill-opacity="0.5"/>
<path d="M39.0492 9.62219H42.7123V10.4813H39.0492V9.62219ZM43.6604 9.62219H45.0826V10.4813H43.6604V9.62219Z" fill="#2B508C" fill-opacity="0.8"/>
<path d="M43.8766 54.3398H52.5398V55.199H43.8766V54.3398ZM65.858 54.3398H77.9262V55.199H65.858V54.3398ZM85.4688 54.3398H93.4425V55.199H85.4688V54.3398ZM95.1665 54.3398H97.0198V55.199H95.1665V54.3398ZM113.398 54.3398H119.949V55.199H113.398V54.3398ZM124.863 54.3398H128.397V55.199H124.863V54.3398ZM131.888 59.2369H133.268V60.096H131.888V59.2369ZM7.88744 59.2369H12.1975V60.096H7.88744V59.2369ZM16.8955 59.2369H31.2481V60.096H16.8955V59.2369ZM48.0143 59.2369H67.7975V60.096H48.0143V59.2369ZM70.2974 59.2369H71.6335V60.096H70.2974V59.2369ZM81.2881 59.2369H101.416V60.096H81.2881V59.2369ZM0 49.0132H139V49.8724H0V49.0132ZM76.2022 59.2369H79.5209V60.096H76.2022V59.2369ZM109.648 59.2798H114.864V60.1389H109.648V59.2798ZM116.372 59.2369H130.337V60.096H116.372V59.2369Z" fill="#0066FF" fill-opacity="0.5"/>
<path d="M115.381 16.2805C114.993 16.2805 114.691 15.9798 114.691 15.5932C114.691 15.2065 114.993 14.9059 115.381 14.9059H121.5C121.888 14.9059 122.19 15.2065 122.19 15.5932C122.19 15.9798 121.888 16.2805 121.5 16.2805H115.381Z" fill="#DADEE0"/>
<path d="M121.501 15.5073C121.544 15.5073 121.544 15.5502 121.544 15.5502L121.501 15.5932H115.381C115.338 15.5932 115.338 15.5502 115.338 15.5502L115.381 15.5073H121.501ZM121.501 14.2186H115.381C114.648 14.2186 114.045 14.82 114.045 15.5502C114.045 16.2805 114.648 16.8819 115.381 16.8819H121.501C122.234 16.8819 122.837 16.2805 122.837 15.5502C122.837 14.82 122.234 14.2186 121.501 14.2186Z" fill="white"/>
<path d="M118.527 64.2627H124.173V65.1219H118.527V64.2627Z" fill="#0066FF" fill-opacity="0.5"/>
<path d="M117.536 18.4712C117.148 18.4712 116.846 18.1705 116.846 17.7839C116.846 17.3973 117.148 17.0966 117.536 17.0966H124.992C125.38 17.0966 125.682 17.3973 125.682 17.7839C125.682 18.1705 125.38 18.4712 124.992 18.4712H117.536Z" fill="#DADEE0"/>
<path d="M125.035 17.741C125.078 17.741 125.078 17.7839 125.078 17.7839C125.078 17.8269 125.035 17.8269 125.035 17.8269H117.579C117.536 17.8269 117.536 17.7839 117.536 17.7839C117.536 17.741 117.579 17.741 117.579 17.741H125.035ZM125.035 16.4523H117.579C116.846 16.4523 116.243 17.0537 116.243 17.7839C116.243 18.5142 116.846 19.1156 117.579 19.1156H125.035C125.768 19.1156 126.371 18.5142 126.371 17.7839C126.371 17.0537 125.768 16.4523 125.035 16.4523Z" fill="white"/>
<path d="M15.8179 64.2627H25.5587V65.1219H15.8179V64.2627ZM33.1013 64.2627H44.8248V65.1219H33.1013V64.2627ZM47.2384 64.2627H51.5916V65.1219H47.2384V64.2627Z" fill="#0066FF" fill-opacity="0.5"/>
<path d="M29.3344 38.4271L32.5954 35.177L33.2052 35.7844L29.9442 39.0345L29.3344 38.4271ZM27.6276 34.9072L31.742 30.807L32.3514 31.4145L28.237 35.5151L27.6276 34.9072ZM54.8289 30.9449L57.5869 27.7567L58.2395 28.3173L55.4819 31.5059L54.8289 30.9449ZM53.4842 32.5958L54.3565 31.5871L55.0095 32.1481L54.1371 33.1568L53.4842 32.5958ZM28.0905 39.6127L28.7305 38.9748L29.34 39.5826L28.6999 40.2201L28.0905 39.6127Z" fill="#DADEE3"/>
<path d="M57.9274 64.2627H64.2201V65.1219H57.9274V64.2627ZM73.0989 64.2627H87.7963V65.1219H73.0989V64.2627ZM97.4508 64.2627H104.347V65.1219H97.4508V64.2627ZM106.373 64.2627H108.786V65.1219H106.373V64.2627Z" fill="#0066FF" fill-opacity="0.5"/>
<path d="M118.743 32.6898L112.579 47.8105L118.743 48.24L124.863 47.8105L118.743 32.6898Z" fill="white"/>
<path opacity="0.4" d="M118.743 48.6696L111.976 48.197L118.786 31.53L125.509 48.197L118.743 48.6696ZM113.183 47.4238L118.699 47.8104L124.259 47.4238L118.743 33.8066L113.183 47.4238Z" fill="#0066FF"/>
<path d="M112.234 48.9703L116.674 48.7985L118.743 48.5407L125.251 49.1851L124.863 49.8724H112.881L112.234 48.9703Z" fill="#ADB5C2"/>
<path d="M80.9433 9.70813C80.5554 9.70813 80.1674 9.79404 79.8226 9.96586C79.8226 8.50534 78.6158 7.30257 77.1504 7.30257C75.685 7.30257 74.4781 8.50534 74.4781 9.96586C74.4781 10.1377 74.4781 10.3525 74.5212 10.5243H74.4781C73.3144 10.5243 72.3662 11.4693 72.3662 12.6292C72.3662 13.789 73.3144 14.734 74.4781 14.734H80.9002C82.2794 14.734 83.4 13.6172 83.4 12.2426C83.4431 10.825 82.3225 9.70813 80.9433 9.70813Z" fill="white"/>
<path d="M80.9432 15.1206H74.5212C73.1419 15.1206 71.9782 14.0038 71.9782 12.5862C71.9782 11.3405 72.8833 10.3095 74.0902 10.0947V9.92289C74.0902 8.20464 75.4694 6.83003 77.1934 6.83003C78.7019 6.83003 79.9519 7.90394 80.2105 9.32151C80.4691 9.27855 80.6846 9.23559 80.9432 9.23559C82.581 9.23559 83.874 10.5672 83.874 12.1566C83.874 13.789 82.581 15.1206 80.9432 15.1206ZM74.4781 10.9538C73.5298 10.9538 72.7971 11.6841 72.7971 12.6291C72.7971 13.5312 73.5298 14.3044 74.4781 14.3044H80.9432C82.1069 14.3044 83.012 13.3594 83.012 12.2425C83.012 11.1257 82.0638 10.1806 80.9432 10.1806C80.6415 10.1806 80.2967 10.2665 80.0381 10.3954C79.9088 10.4813 79.7364 10.4384 79.6071 10.3954C79.4778 10.3095 79.3916 10.1806 79.3916 10.0518C79.3916 8.80603 78.4002 7.81803 77.1503 7.81803C75.9004 7.81803 74.9091 8.80603 74.9091 10.0518C74.9091 10.2236 74.9091 10.3525 74.9522 10.5243C74.9953 10.6532 74.9522 10.782 74.866 10.8679C74.7798 10.9538 74.6505 11.0398 74.5212 11.0398C74.5212 10.9538 74.4781 10.9538 74.4781 10.9538Z" fill="#2B508C" fill-opacity="0.8"/>
<path d="M133.267 30.8856C132.965 30.8856 132.707 30.9716 132.448 31.0575C132.448 29.9836 131.586 29.0815 130.466 29.0815C129.388 29.0815 128.483 29.9406 128.483 31.0575C128.483 31.1863 128.483 31.3152 128.526 31.487H128.483C127.621 31.487 126.932 32.1743 126.932 33.0335C126.932 33.8926 127.621 34.5799 128.483 34.5799H133.224C134.258 34.5799 135.077 33.7637 135.077 32.7328C135.12 31.7448 134.301 30.8856 133.267 30.8856Z" fill="white"/>
<path d="M128.527 34.9236C127.492 34.9236 126.63 34.0644 126.63 33.0335C126.63 32.0885 127.32 31.3152 128.182 31.1864V31.1005C128.182 29.8118 129.216 28.7808 130.509 28.7808C131.63 28.7808 132.535 29.554 132.75 30.6279C132.923 30.585 133.095 30.585 133.268 30.585C134.474 30.585 135.466 31.573 135.466 32.7758C135.466 33.9785 134.474 34.9665 133.268 34.9665L128.527 34.9236ZM128.57 31.8307C127.88 31.8307 127.32 32.3891 127.32 33.0335C127.32 33.6778 127.88 34.2363 128.527 34.2363H133.268C134.087 34.2363 134.776 33.549 134.776 32.7328C134.776 31.9166 134.087 31.2293 133.268 31.2293C133.052 31.2293 132.793 31.2723 132.578 31.4011C132.492 31.4441 132.362 31.4441 132.233 31.4011C132.104 31.3582 132.061 31.2293 132.061 31.1005C132.061 30.1984 131.328 29.4681 130.423 29.4681C129.518 29.4681 128.785 30.1984 128.785 31.1005C128.785 31.2293 128.785 31.3152 128.828 31.4441C128.871 31.53 128.828 31.6589 128.742 31.7448C128.656 31.8307 128.656 31.8307 128.57 31.8307Z" fill="#2B508C" fill-opacity="0.8"/>
<path d="M21.8521 19.9747C21.5073 19.9747 21.2056 20.0606 20.9038 20.1895C20.9038 18.9438 19.9125 17.9558 18.6626 17.9558C17.4127 17.9558 16.4214 18.9438 16.4214 20.1895C16.4214 20.3613 16.4214 20.4902 16.4645 20.662H16.4214C15.4301 20.662 14.6542 21.4353 14.6542 22.4232C14.6542 23.4112 15.4301 24.1845 16.4214 24.1845H21.809C22.9727 24.1845 23.9209 23.2394 23.9209 22.0796C23.964 20.9198 23.0158 19.9747 21.8521 19.9747Z" fill="white"/>
<path d="M16.4214 24.5281C15.2577 24.5281 14.3094 23.583 14.3094 22.4232C14.3094 21.3923 15.0853 20.4902 16.0766 20.3613V20.2324C16.0766 18.8149 17.2403 17.6551 18.6626 17.6551C19.9125 17.6551 20.9901 18.5571 21.2056 19.7599C21.4211 19.717 21.6366 19.674 21.8521 19.674C23.1882 19.674 24.3088 20.7909 24.3088 22.1225C24.3088 23.4542 23.1882 24.571 21.8521 24.571L16.4214 24.5281ZM16.4214 21.0057C15.6456 21.0057 14.9991 21.65 14.9991 22.4232C14.9991 23.1964 15.6456 23.8408 16.4214 23.8408H21.809C22.8003 23.8408 23.5761 23.0676 23.5761 22.0796C23.5761 21.0916 22.8003 20.3184 21.809 20.3184C21.5504 20.3184 21.2918 20.3613 21.0332 20.4902C20.947 20.5331 20.8177 20.5331 20.6884 20.4902C20.6022 20.4472 20.516 20.3184 20.516 20.1895C20.516 19.1585 19.6539 18.2994 18.6195 18.2994C17.5851 18.2994 16.7231 19.1585 16.7231 20.1895C16.7231 20.3184 16.7231 20.4472 16.7662 20.5761C16.8093 20.662 16.7662 20.7909 16.68 20.8768C16.5938 20.9627 16.5076 21.0057 16.4214 21.0057C16.4214 21.0057 16.4645 21.0057 16.4214 21.0057Z" fill="#2B508C" fill-opacity="0.8"/>
<path d="M43.8766 2.92105C43.4456 2.92105 43.0577 3.00696 42.7129 3.17879C42.7129 1.67531 41.463 0.429581 39.9544 0.429581C38.4459 0.429581 37.196 1.67531 37.196 3.17879C37.196 3.39357 37.2391 3.5654 37.2391 3.73722H37.196C35.9892 3.73722 35.041 4.72522 35.041 5.88504C35.041 7.04486 36.0323 8.03286 37.196 8.03286H43.8335C45.2558 8.03286 46.4196 6.87303 46.4196 5.45547C46.4627 4.08087 45.2989 2.92105 43.8766 2.92105Z" fill="white"/>
<path d="M43.8765 8.50537H37.239C35.8167 8.50537 34.653 7.34555 34.653 5.92799C34.653 4.63929 35.6012 3.56539 36.8511 3.3506V3.17878C36.8511 1.41756 38.2734 0 40.0406 0C41.5922 0 42.8852 1.11687 43.1438 2.57739C43.4024 2.49147 43.661 2.49147 43.9196 2.49147C45.6006 2.49147 46.9367 3.82312 46.9367 5.49842C46.8936 7.13077 45.5575 8.50537 43.8765 8.50537ZM37.239 4.16677C36.2908 4.16677 35.4719 4.93999 35.4719 5.88503C35.4719 6.83007 36.2477 7.60329 37.1959 7.60329H43.8334C45.0402 7.60329 45.9885 6.61529 45.9885 5.45546C45.9885 4.29564 44.9971 3.30764 43.8334 3.30764C43.4886 3.30764 43.1869 3.39356 42.8852 3.52243C42.7559 3.60834 42.5835 3.56538 42.4542 3.52243C42.3249 3.43651 42.2387 3.30765 42.2387 3.17878C42.2387 1.89008 41.2043 0.859129 39.9113 0.859129C38.6182 0.859129 37.5838 1.89008 37.5838 3.17878C37.5838 3.3506 37.5838 3.52243 37.6269 3.6513C37.67 3.78017 37.6269 3.90903 37.5407 3.99495C37.4545 4.08086 37.3252 4.16677 37.1959 4.16677H37.239Z" fill="#2B508C" fill-opacity="0.8"/>
<path d="M107.623 24.9577C107.623 25.4302 105.683 24.3133 104.045 26.4611C103.7 26.9337 103.7 27.1055 103.097 26.4611C101.071 24.3133 99.8644 25.8168 99.8644 25.0006C99.8644 24.4422 102.019 24.2274 103.571 25.9886C105.295 23.626 107.623 24.3563 107.623 24.9577ZM88.7875 29.7258C88.7875 30.0695 87.4945 29.2963 86.3739 30.7568C86.1584 31.0575 86.1584 31.1864 85.7274 30.7568C84.3912 29.2963 83.5723 30.3272 83.5723 29.7688C83.5723 29.3822 84.9947 29.2533 86.0722 30.4131C87.2359 28.8237 88.7875 29.3392 88.7875 29.7258ZM99.4334 10.4384C99.4334 10.825 97.7956 9.92293 96.4164 11.7271C96.1147 12.1137 96.1147 12.2855 95.6405 11.7271C93.9165 9.87997 92.8821 11.1687 92.8821 10.4814C92.8821 10.0088 94.6923 9.83702 96.0285 11.2975C97.4508 9.32154 99.4334 9.92293 99.4334 10.4384ZM53.7897 16.5382C53.7897 16.9248 52.1519 16.0227 50.7726 17.8269C50.4709 18.2135 50.4709 18.3853 49.9968 17.8269C48.2728 15.9798 47.2384 17.2685 47.2384 16.5812C47.2384 16.1087 49.0486 15.9368 50.3847 17.3973C51.8071 15.4214 53.7897 16.0657 53.7897 16.5382ZM28.705 12.844C28.705 13.1017 27.6706 12.5003 26.8086 13.6601C26.6362 13.9179 26.6362 14.0038 26.3345 13.6601C25.257 12.5003 24.6105 13.3165 24.6105 12.8869C24.6105 12.5862 25.7311 12.4574 26.55 13.4024C27.4551 12.1137 28.705 12.5433 28.705 12.844Z" fill="#D9DDE2"/>
</svg>
