<svg width="80" height="80" viewBox="0 0 80 80" fill="none" xmlns="http://www.w3.org/2000/svg">
    <path d="M40 47.0312C38.7056 47.0312 37.6562 45.9819 37.6562 44.6875V30.4688C37.6562 29.1744 38.7056 28.125 40 28.125C41.2944 28.125 42.3438 29.1744 42.3438 30.4688V44.6875C42.3438 45.9819 41.2944 47.0312 40 47.0312Z" fill="#D3E6FE" />
    <path d="M77.6562 61.0938H63.4375C62.1431 61.0938 61.0938 60.0444 61.0938 58.75C61.0938 57.4556 62.1431 56.4062 63.4375 56.4062H75.3125V16.4062C75.3125 15.1577 74.1442 14.0625 72.8125 14.0625H68.125C66.8306 14.0625 65.7812 13.0131 65.7812 11.7188C65.7812 10.4244 66.8306 9.375 68.125 9.375H72.8125C74.6803 9.375 76.4605 10.0933 77.8247 11.3975C79.2275 12.7384 80 14.5173 80 16.4062V58.75C80 60.0444 78.9506 61.0938 77.6562 61.0938Z" fill="#D3E6FE" />
    <path d="M16.5625 61.0938H2.34375C1.04937 61.0938 0 60.0444 0 58.75V16.4062C0 14.5173 0.7725 12.7384 2.17516 11.3975C3.53953 10.0933 5.31953 9.375 7.1875 9.375H11.875C13.1694 9.375 14.2188 10.4244 14.2188 11.7188C14.2188 13.0131 13.1694 14.0625 11.875 14.0625H7.1875C5.85578 14.0625 4.6875 15.1577 4.6875 16.4062V56.4062H16.5625C17.8569 56.4062 18.9062 57.4556 18.9062 58.75C18.9062 60.0444 17.8569 61.0938 16.5625 61.0938Z" fill="#D3E6FE" />
    <path d="M58.75 4.6875H21.25C19.9556 4.6875 18.9062 5.73687 18.9062 7.03125C18.9062 8.32562 19.9556 9.375 21.25 9.375H28.2812V16.4062C28.2812 17.7006 29.3306 18.75 30.625 18.75C31.9194 18.75 32.9688 17.7006 32.9688 16.4062V9.375H37.6562V21.0938C37.6562 22.3881 38.7056 23.4375 40 23.4375C41.2944 23.4375 42.3438 22.3881 42.3438 21.0938V9.375H47.0312V16.4062C47.0312 17.7006 48.0806 18.75 49.375 18.75C50.6694 18.75 51.7188 17.7006 51.7188 16.4062V9.375H58.75C60.0444 9.375 61.0938 8.32562 61.0938 7.03125C61.0938 5.73687 60.0444 4.6875 58.75 4.6875Z" fill="#D3E6FE" />
    <path d="M49.375 42.3438C48.0806 42.3438 47.0312 41.2944 47.0312 40V25.7812C47.0312 24.4869 48.0806 23.4375 49.375 23.4375C50.6694 23.4375 51.7188 24.4869 51.7188 25.7812V40C51.7188 41.2944 50.6694 42.3438 49.375 42.3438Z" fill="#D3E6FE" />
    <path d="M30.625 42.3438C29.3306 42.3438 28.2812 41.2944 28.2812 40V25.7812C28.2812 24.4869 29.3306 23.4375 30.625 23.4375C31.9194 23.4375 32.9688 24.4869 32.9688 25.7812V40C32.9688 41.2944 31.9194 42.3438 30.625 42.3438Z" fill="#D3E6FE" />
    <path d="M16.5625 70.625H2.34375C1.04937 70.625 0 69.5756 0 68.2812C0 66.9869 1.04937 65.9375 2.34375 65.9375H16.5625C17.8569 65.9375 18.9062 66.9869 18.9062 68.2812C18.9062 69.5756 17.8569 70.625 16.5625 70.625Z" fill="#D3E6FE" />
    <path d="M30.625 80H11.875C10.5806 80 9.53125 78.9506 9.53125 77.6562C9.53125 76.3619 10.5806 75.3125 11.875 75.3125H30.625C31.9194 75.3125 32.9688 76.3619 32.9688 77.6562C32.9688 78.9506 31.9194 80 30.625 80Z" fill="#D3E6FE" />
    <path d="M68.125 80H49.375C48.0806 80 47.0312 78.9506 47.0312 77.6562C47.0312 76.3619 48.0806 75.3125 49.375 75.3125H68.125C69.4194 75.3125 70.4688 76.3619 70.4688 77.6562C70.4688 78.9506 69.4194 80 68.125 80Z" fill="#D3E6FE" />
    <path d="M77.6562 70.625H63.4375C62.1431 70.625 61.0938 69.5756 61.0938 68.2812C61.0938 66.9869 62.1431 65.9375 63.4375 65.9375H77.6562C78.9506 65.9375 80 66.9869 80 68.2812C80 69.5756 78.9506 70.625 77.6562 70.625Z" fill="#D3E6FE" />
    <path d="M54.0625 70.625H25.9375C24.6431 70.625 23.5938 69.5756 23.5938 68.2812C23.5938 66.9869 24.6431 65.9375 25.9375 65.9375H54.0625C55.3569 65.9375 56.4062 66.9869 56.4062 68.2812C56.4062 69.5756 55.3569 70.625 54.0625 70.625Z" fill="#D3E6FE" />
    <path d="M21.25 52.973C19.9556 52.973 18.9062 51.9236 18.9062 50.6292V7.03125C18.9062 5.73891 17.8548 4.6875 16.5625 4.6875C15.2702 4.6875 14.2188 5.73891 14.2188 7.03125V40C14.2188 41.2944 13.1694 42.3438 11.875 42.3438C10.5806 42.3438 9.53125 41.2944 9.53125 40V7.03125C9.53125 3.15422 12.6855 0 16.5625 0C20.4395 0 23.5938 3.15422 23.5938 7.03125V50.6292C23.5938 51.9236 22.5444 52.973 21.25 52.973Z" fill="#D3E6FE" />
    <path d="M58.75 52.973C57.4556 52.973 56.4062 51.9236 56.4062 50.6292V7.03125C56.4062 3.15422 59.5605 0 63.4375 0C67.3145 0 70.4688 3.15422 70.4688 7.03125V40C70.4688 41.2944 69.4194 42.3438 68.125 42.3438C66.8306 42.3438 65.7812 41.2944 65.7812 40V7.03125C65.7812 5.73891 64.7298 4.6875 63.4375 4.6875C62.1452 4.6875 61.0938 5.73891 61.0938 7.03125V50.6292C61.0938 51.9236 60.0444 52.973 58.75 52.973Z" fill="#D3E6FE" />
    <path d="M54.0625 47.0312C52.6139 47.0312 51.1961 47.295 49.8669 47.8052C47.753 44.4595 44.05 42.3438 40 42.3438C35.9502 42.3438 32.247 44.4595 30.1331 47.8052C28.8039 47.295 27.3863 47.0312 25.9375 47.0312C19.4758 47.0312 14.2188 52.2883 14.2188 58.75C14.2188 60.0444 15.2681 61.0938 16.5625 61.0938H63.4375C64.7319 61.0938 65.7812 60.0444 65.7812 58.75C65.7812 52.2883 60.5242 47.0312 54.0625 47.0312ZM25.9375 51.7188C27.3481 51.7188 28.7086 52.1348 29.8717 52.9222C30.4739 53.3297 31.2312 53.4345 31.9217 53.2062C32.6122 52.9778 33.1573 52.4417 33.3977 51.7553C34.3864 48.9297 37.0397 47.0312 40 47.0312C42.9603 47.0312 45.6136 48.9297 46.6023 51.7553C46.8425 52.4417 47.3877 52.9778 48.0781 53.2062C48.7684 53.4347 49.5261 53.3298 50.1281 52.9222C51.2916 52.135 52.652 51.7188 54.0625 51.7188C57.118 51.7188 59.7231 53.6784 60.6906 56.4062H19.3094C20.2769 53.6784 22.882 51.7188 25.9375 51.7188Z" fill="#048FFF" />
</svg>