<svg width="76" height="69" viewBox="0 0 76 69" fill="none" xmlns="http://www.w3.org/2000/svg">
<path d="M41.1901 37.4463C41.1901 39.4404 39.5805 41.057 37.595 41.057C35.6096 41.057 34 39.4404 34 37.4463V26.6107C34 24.6166 35.6096 23 37.595 23C39.5805 23 41.1901 24.6166 41.1901 26.6107V37.4463Z" fill="#E04E29"/>
<path d="M34.018 48.2819C34.018 46.2878 35.6275 44.6713 37.613 44.6713C39.5985 44.6713 41.208 46.2878 41.208 48.2819C41.208 50.276 39.5985 51.8926 37.613 51.8926C35.6275 51.8926 34.018 50.276 34.018 48.2819Z" fill="#E04E29"/>
<path fill-rule="evenodd" clip-rule="evenodd" d="M30.5401 4.32569C33.8556 -1.4419 42.1444 -1.44189 45.4599 4.32569L74.8331 55.4229C78.1486 61.1905 74.0042 68.4 67.3732 68.4H8.62676C1.99577 68.4 -2.1486 61.1905 1.1669 55.4229L30.5401 4.32569ZM41.7299 6.48854C40.0722 3.60474 35.9278 3.60474 34.2701 6.48854L4.89683 57.5858C3.23908 60.4696 5.31127 64.0743 8.62676 64.0743H67.3732C70.6887 64.0743 72.7609 60.4696 71.1032 57.5858L41.7299 6.48854Z" fill="#E04E29"/>
</svg>
