<svg width="27" height="26" viewBox="0 0 27 26" fill="none" xmlns="http://www.w3.org/2000/svg">
<path d="M23.8853 11.881C22.2253 10.5705 20.4779 9.52206 18.5557 8.29889C18.2063 6.11465 18.381 3.75568 17.5947 1.65882C17.1578 0.348274 15.9347 -0.43805 14.7115 0.260905C13.3136 0.95986 12.2651 2.61988 11.3915 3.84305C10.8672 4.62937 10.343 5.4157 9.99354 6.28939C9.90617 6.28939 9.90617 6.28939 9.8188 6.28939C7.89667 6.28939 6.14929 6.11465 4.22716 6.28939C2.82925 6.46413 1.16922 6.46413 0.994485 7.94941C0.819746 8.99784 1.60608 10.0463 2.21766 10.7452C3.17873 11.9684 3.96505 12.9295 5.01348 14.1526C4.13979 15.7253 3.17872 17.2979 2.56714 18.8706C2.21766 19.7443 1.60608 21.6664 2.65451 22.3654C3.44084 22.8896 4.664 22.6275 5.7998 22.1906C7.63456 21.579 11.1293 19.8316 11.3041 19.6569C12.4399 21.0548 13.8378 22.4527 15.4978 24.0254C16.2841 24.8117 18.0315 26.3844 19.08 25.598C19.9537 24.9864 19.9537 23.5012 19.9537 22.5401C19.9537 20.7053 19.8663 18.8706 19.7789 17.0358C21.1768 16.8611 22.5747 16.6863 23.9726 16.4242C24.9337 16.2495 26.0695 15.7253 26.0695 14.5895C25.8948 13.3663 24.6716 12.4926 23.8853 11.881Z" fill="url(#paint0_linear)"/>
<mask id="mask0" mask-type="alpha" maskUnits="userSpaceOnUse" x="1" y="0" width="26" height="26">
<path d="M23.8853 11.8796C23.6232 11.7049 23.4485 11.5302 23.1863 11.3554C24.2348 12.4039 24.4095 13.5397 23.9727 14.326C23.2737 15.4618 21.0895 15.7239 19.7789 15.8113C18.0315 15.986 19.1673 17.4713 18.4684 19.1313C17.1579 22.2766 13.3136 20.6166 12.0904 18.6944C11.3041 17.4713 8.1588 19.9176 6.23668 17.8208C5.62509 17.2092 5.45036 15.986 5.71247 15.1997C6.32405 13.4523 5.36298 13.1028 4.48929 11.8796C3.09138 9.95751 2.21769 7.33643 4.40193 7.24906C6.58616 7.16169 8.42091 7.33643 9.73145 7.4238C10.6925 7.51117 11.042 5.67641 12.3525 3.57954C12.702 3.05533 13.7505 1.39531 14.0126 0.871094C13.0515 1.65742 12.1778 2.88059 11.4788 3.92902C10.9546 4.71535 10.4304 5.50167 10.0809 6.37537C9.99357 6.37537 9.99357 6.37537 9.9062 6.37537C7.98408 6.37537 6.23668 6.20063 4.31455 6.37537C2.91664 6.5501 1.25663 6.5501 1.08189 8.03538C0.907149 9.08382 1.69347 10.1322 2.30505 10.8312C3.26612 12.0544 4.05245 13.0154 5.10088 14.2386C4.22719 15.8113 3.26613 17.3839 2.65454 18.9566C2.30506 19.8303 1.69347 21.7524 2.7419 22.4513C3.52823 22.9755 4.7514 22.7134 5.8872 22.2766C7.72196 21.665 11.2167 19.9176 11.3915 19.7429C12.5273 21.1408 13.9252 22.5387 15.5852 24.1114C16.3715 24.8977 18.1189 26.4703 19.1673 25.684C20.041 25.0724 20.041 23.5871 20.041 22.6261C20.041 20.7913 19.9537 18.9566 19.8663 17.1218C21.2642 16.9471 22.6621 16.7723 24.06 16.5102C25.0211 16.3355 26.1569 15.8113 26.1569 14.6755C25.8948 13.3649 24.6716 12.4912 23.8853 11.8796Z" fill="url(#paint1_radial)"/>
</mask>
<g mask="url(#mask0)">
<path d="M23.8853 11.8796C23.6232 11.7049 23.4485 11.5302 23.1863 11.3554C24.2348 12.4039 24.4095 13.5397 23.9727 14.326C23.2737 15.4618 21.0895 15.7239 19.7789 15.8113C18.0315 15.986 19.1673 17.4713 18.4684 19.1313C17.1579 22.2766 13.3136 20.6166 12.0904 18.6944C11.3041 17.4713 8.1588 19.9176 6.23668 17.8208C5.62509 17.2092 5.45036 15.986 5.71247 15.1997C6.32405 13.4523 5.36298 13.1028 4.48929 11.8796C3.09138 9.95751 2.21769 7.33643 4.40193 7.24906C6.58616 7.16169 8.42091 7.33643 9.73145 7.4238C10.6925 7.51117 11.042 5.67641 12.3525 3.57954C12.702 3.05533 13.7505 1.39531 14.0126 0.871094C13.0515 1.65742 12.1778 2.88059 11.4788 3.92902C10.9546 4.71535 10.4304 5.50167 10.0809 6.37537C9.99357 6.37537 9.99357 6.37537 9.9062 6.37537C7.98408 6.37537 6.23668 6.20063 4.31455 6.37537C2.91664 6.5501 1.25663 6.5501 1.08189 8.03538C0.907149 9.08382 1.69347 10.1322 2.30505 10.8312C3.26612 12.0544 4.05245 13.0154 5.10088 14.2386C4.22719 15.8113 3.26613 17.3839 2.65454 18.9566C2.30506 19.8303 1.69347 21.7524 2.7419 22.4513C3.52823 22.9755 4.7514 22.7134 5.8872 22.2766C7.72196 21.665 11.2167 19.9176 11.3915 19.7429C12.5273 21.1408 13.9252 22.5387 15.5852 24.1114C16.3715 24.8977 18.1189 26.4703 19.1673 25.684C20.041 25.0724 20.041 23.5871 20.041 22.6261C20.041 20.7913 19.9537 18.9566 19.8663 17.1218C21.2642 16.9471 22.6621 16.7723 24.06 16.5102C25.0211 16.3355 26.1569 15.8113 26.1569 14.6755C25.8948 13.3649 24.6716 12.4912 23.8853 11.8796Z" fill="url(#paint2_radial)"/>
<path d="M23.8853 11.881C22.2253 10.5705 20.4779 9.52206 18.5557 8.29889C18.2063 6.11465 18.381 3.75568 17.5947 1.65882C17.1578 0.348274 15.9347 -0.43805 14.7115 0.260905C13.3136 0.95986 12.2651 2.61988 11.3915 3.84305C10.8672 4.62937 10.343 5.4157 9.99354 6.28939C9.90617 6.28939 9.90617 6.28939 9.8188 6.28939C7.89667 6.28939 6.14929 6.11465 4.22716 6.28939C2.82925 6.46413 1.16922 6.46413 0.994485 7.94941C0.819746 8.99784 1.60608 10.0463 2.21766 10.7452C3.17873 11.9684 3.96505 12.9295 5.01348 14.1526C4.13979 15.7253 3.17872 17.2979 2.56714 18.8706C2.21766 19.7443 1.60608 21.6664 2.65451 22.3654C3.44084 22.8896 4.664 22.6275 5.7998 22.1906C7.63456 21.579 11.1293 19.8316 11.3041 19.6569C12.4399 21.0548 13.8378 22.4527 15.4978 24.0254C16.2841 24.8117 18.0315 26.3844 19.08 25.598C19.9537 24.9864 19.9537 23.5012 19.9537 22.5401C19.9537 20.7053 19.8663 18.8706 19.7789 17.0358C21.1768 16.8611 22.5747 16.6863 23.9726 16.4242C24.9337 16.2495 26.0695 15.7253 26.0695 14.5895C25.8948 13.3663 24.6716 12.4926 23.8853 11.881ZM24.4095 15.1137C23.9726 15.4632 23.099 15.4632 22.5747 15.5505C21.3516 15.7253 20.2158 15.9 18.9926 15.9874C18.4684 15.9874 18.381 16.599 18.5557 16.8611C18.6431 18.259 18.6431 19.6569 18.7305 21.0548C18.8178 22.0159 18.9052 23.0643 18.6431 24.0254C18.2063 25.8601 16.022 23.2391 15.4104 22.7148C14.0999 21.4043 13.0515 20.4432 11.8283 18.958C11.5662 18.6958 11.3041 18.5211 11.2167 18.6085C10.1683 19.1327 7.5472 20.3559 6.84825 20.7053C5.88718 21.1422 4.92611 21.579 3.87768 21.7538C1.86818 22.1906 3.52821 18.958 3.79032 18.259C4.4019 16.9485 5.10085 15.8127 5.71244 14.5021C5.88718 14.0653 6.14928 13.8905 5.88718 13.5411C4.75137 12.1431 3.35346 10.6579 2.3924 9.08521C2.04292 8.561 1.86818 7.6873 2.56714 7.33783C3.26609 6.98835 8.15878 6.90098 9.11984 6.98835C9.90617 7.07572 10.2557 7.16309 10.343 7.16309C11.3915 5.4157 11.8283 4.71674 12.702 3.58094C13.1388 3.05673 14.8862 0.260905 16.1094 0.872491C16.8957 1.30934 17.0705 2.88199 17.1578 3.66831C17.3326 5.32833 17.5073 6.90098 17.5947 8.64837C17.5947 8.8231 18.2063 9.08521 18.9926 9.60943C20.74 10.6579 22.5747 11.7063 24.1474 13.1042C24.4095 13.5411 25.1958 14.5021 24.4095 15.1137Z" fill="#D47F02"/>
<path d="M2.30495 8.29882C2.30495 8.29882 2.04285 7.86197 3.52813 7.68723C5.71237 7.51249 7.54712 7.7746 8.7703 7.86197C9.55662 7.94934 10.4303 8.03671 10.4303 8.03671C11.0419 6.98828 11.5661 5.67773 11.5661 5.67773L10.4303 7.33775C10.4303 7.33775 8.68292 7.16301 4.13971 7.25038C2.91654 7.33775 2.04284 7.7746 2.30495 8.29882Z" fill="#FFF6E6"/>
<path d="M11.741 5.58916C11.741 5.58916 13.3136 2.6186 15.061 3.40493C16.8084 4.19125 16.9831 6.81233 17.1579 8.47235C16.9831 6.98707 17.0705 6.37549 16.8084 3.40493C16.5463 0.609106 15.2357 0.609106 13.6631 2.53123C12.2652 4.45336 11.741 5.58916 11.741 5.58916Z" fill="#FFF6E6"/>
<path d="M17.0706 7.33789C17.0706 7.33789 17.0706 8.82317 17.0706 9.69686C17.0706 9.69686 22.7496 12.4927 23.5359 13.279C24.4096 14.0653 24.497 14.5896 24.2348 15.0264C24.2348 15.0264 25.0212 14.5896 23.8854 13.279C22.7496 11.9685 17.1579 8.82317 17.1579 8.82317L17.0706 7.33789Z" fill="#FFF6E6"/>
<path d="M4.05218 11.0059C4.05218 11.0059 5.36272 12.4038 7.11011 13.6269C7.11011 13.6269 2.91638 19.5681 3.09112 21.2281C3.09112 21.2281 2.65428 20.5291 3.79008 18.5196C4.92588 16.5101 6.32379 13.7143 6.32379 13.7143C6.32379 13.7143 4.75113 11.9669 4.05218 11.0059Z" fill="#FFF6E6"/>
</g>
<defs>
<linearGradient id="paint0_linear" x1="10.3329" y1="25.1871" x2="14.1497" y2="7.87497" gradientUnits="userSpaceOnUse">
<stop offset="0.1097" stop-color="#FFFB74"/>
<stop offset="0.4851" stop-color="#FFFA00"/>
<stop offset="0.9305" stop-color="#FFC921"/>
</linearGradient>
<radialGradient id="paint1_radial" cx="0" cy="0" r="1" gradientUnits="userSpaceOnUse" gradientTransform="translate(14.7242 7.43815) scale(18.5388 18.8164)">
<stop offset="0.4146"/>
<stop offset="0.8549" stop-color="white"/>
</radialGradient>
<radialGradient id="paint2_radial" cx="0" cy="0" r="1" gradientUnits="userSpaceOnUse" gradientTransform="translate(14.7242 7.43815) scale(18.5388 18.8164)">
<stop offset="0.4146" stop-color="#FFFB62"/>
<stop offset="0.8549" stop-color="#F39F46"/>
</radialGradient>
</defs>
</svg>
