<svg width="20" height="20" viewBox="0 0 20 20" fill="none" xmlns="http://www.w3.org/2000/svg">
<g clip-path="url(#clip0)">
<path d="M12.2325 7.30242L7.72876 10.0762C7.64485 10.1281 7.58018 10.206 7.54454 10.2981C7.5089 10.3901 7.50423 10.4912 7.53126 10.5862L8.01876 12.2962C8.05251 12.4174 8.22876 12.4049 8.24501 12.2799L8.37251 11.3424C8.39566 11.1654 8.47961 11.0019 8.61001 10.8799L12.3275 7.42617C12.3963 7.36242 12.3138 7.25242 12.2325 7.30117V7.30242Z" fill="#2C5290"/>
<path d="M10 0C7.34784 0 4.8043 1.05357 2.92893 2.92893C1.05357 4.8043 0 7.34784 0 10C0 12.6522 1.05357 15.1957 2.92893 17.0711C4.8043 18.9464 7.34784 20 10 20C12.6522 20 15.1957 18.9464 17.0711 17.0711C18.9464 15.1957 20 12.6522 20 10C20 7.34784 18.9464 4.8043 17.0711 2.92893C15.1957 1.05357 12.6522 0 10 0V0ZM6.98125 10.535L4.6775 9.675C4.62539 9.65615 4.58031 9.62179 4.54831 9.57654C4.51632 9.5313 4.49895 9.47734 4.49854 9.42193C4.49813 9.36652 4.51471 9.31231 4.54603 9.2666C4.57735 9.22089 4.62193 9.18587 4.67375 9.16625L14.1313 5.51875C14.1767 5.50133 14.2261 5.49649 14.2741 5.50473C14.3221 5.51297 14.367 5.53399 14.4041 5.56557C14.4412 5.59716 14.4691 5.63815 14.4849 5.68424C14.5006 5.73033 14.5037 5.77981 14.4938 5.8275L12.7975 13.99C12.7884 14.0344 12.7683 14.0759 12.739 14.1105C12.7097 14.1451 12.6722 14.1719 12.63 14.1883C12.5877 14.2047 12.542 14.2103 12.497 14.2045C12.452 14.1986 12.4092 14.1816 12.3725 14.155L10.055 12.4725C9.9867 12.4231 9.90403 12.3975 9.81976 12.3998C9.73549 12.402 9.6543 12.432 9.58875 12.485L8.30375 13.5325C8.26933 13.5607 8.2285 13.58 8.18485 13.5888C8.14121 13.5975 8.09609 13.5953 8.05347 13.5825C8.01086 13.5696 7.97206 13.5465 7.9405 13.5151C7.90894 13.4837 7.88559 13.445 7.8725 13.4025L6.98125 10.535Z" fill="#2C5290"/>
</g>
<defs>
<clipPath id="clip0">
<rect width="20" height="20" fill="white"/>
</clipPath>
</defs>
</svg>
