<svg width="98" height="31" viewBox="0 0 98 31" fill="none" xmlns="http://www.w3.org/2000/svg">
<path d="M97.9998 8.61928C95.1775 8.67842 92.5141 8.57199 92.1378 11.6707C92.7152 11.9516 93.2084 11.5879 93.7274 11.5909C94.1615 11.5675 94.5929 11.6672 94.9624 11.8764C95.3318 12.0855 95.6211 12.3937 95.7906 12.7588C96.115 13.3827 96.115 14.0243 95.5019 14.5122C95.1764 14.7762 94.7686 14.9411 94.3354 14.984C93.9023 15.027 93.4652 14.9457 93.085 14.7517C92.7963 14.6275 92.5563 14.4058 92.2611 14.2934C91.8069 14.1219 91.768 13.1905 91.1029 13.5985C90.5385 13.9445 90.3568 14.6541 90.1913 15.2809C89.9999 16.0054 90.6715 16.0231 91.1257 16.2389C91.7161 16.5169 92.2448 16.8747 92.2481 17.5577C92.2519 17.7584 92.1736 17.9531 92.0285 18.104C91.8833 18.2548 91.6817 18.351 91.463 18.3737C91.1404 18.4427 90.8017 18.4065 90.5054 18.2715C90.209 18.1365 89.9739 17.9111 89.8409 17.6345C89.2862 16.5819 88.8418 17.126 88.3908 17.6612C88.1638 17.9332 88.0243 18.2525 87.8101 18.5482C87.596 18.8439 87.5669 19.3407 87.0478 19.0332C86.7234 18.8351 87.0089 18.5009 87.1159 18.2348C87.1282 18.1871 87.1502 18.142 87.1808 18.1017C88.6861 16.7002 89.4517 14.9054 90.4249 13.2112C90.8239 12.5282 91.2554 11.9279 91.4208 11.1414C91.9756 8.54241 95.0737 7.20298 97.9998 8.61928Z" fill="#273E84"/>
<path d="M0 9.74881C2.67636 8.62227 5.19051 9.84341 6.00153 12.1734C6.68927 14.1544 7.4906 16.1384 9.12885 17.7203C9.67061 18.2437 10.2902 18.8587 9.97226 19.7369C9.34616 19.7369 9.36564 19.2963 9.17424 19.0332C8.61301 18.2644 8.23022 17.0137 7.07209 18.6517C6.98429 18.7811 6.86328 18.889 6.71948 18.9662C6.57569 19.0434 6.41343 19.0876 6.24673 19.0948C6.08004 19.1021 5.91389 19.0723 5.76266 19.008C5.61142 18.9437 5.47965 18.8468 5.37869 18.7257C4.78503 18.1343 5.18405 17.4868 5.7842 17.2473C7.87662 16.4608 6.90016 15.4732 6.10861 14.3407C5.04131 15.3076 4.01619 16.3868 2.38118 15.5501C1.57989 15.142 1.53122 14.4205 1.88807 13.7375C2.57257 12.4395 3.77613 12.4602 5.06727 12.8505C5.15162 10.831 4.67146 10.5294 0 9.74881Z" fill="#233A82"/>
<path d="M36.7877 26.5109C37.2419 26.4695 37.2808 26.8066 37.3813 27.0727C37.4819 27.3388 37.5857 27.6966 37.1705 27.8178C36.0896 28.1579 35.1721 28.8301 34.5752 29.7191C34.3255 30.0561 34.0043 29.8403 33.7285 29.7013C33.5799 29.647 33.4585 29.5444 33.3879 29.4134C33.3172 29.2823 33.3022 29.1321 33.3457 28.9916C33.5631 28.143 35.8697 26.44 36.7877 26.5109Z" fill="#82C93D"/>
<path d="M53.3906 27.945C53.302 28.8813 52.9328 29.7773 52.3233 30.5352C52.0183 30.9048 51.7004 31.0733 51.2495 30.7333C50.8634 30.4376 50.7434 30.1419 51.1295 29.7486C51.6191 29.2144 51.8817 28.5375 51.8691 27.8415C51.8691 27.3477 51.9762 26.9545 52.6704 26.9959C53.3647 27.0372 53.3614 27.4956 53.3906 27.945Z" fill="#0EBDFE"/>
<path d="M45.5079 13.3679C45.4527 13.7523 45.2678 14.0361 44.7812 13.9592C44.1652 13.8807 43.5724 13.6919 43.0368 13.4036C42.5012 13.1154 42.0335 12.7335 41.6605 12.2798C41.5998 12.2303 41.5525 12.1686 41.5224 12.0996C41.4924 12.0305 41.4803 11.9561 41.4873 11.8821C41.4942 11.8081 41.5198 11.7367 41.5623 11.6733C41.6047 11.6099 41.6628 11.5564 41.7318 11.5169C41.9362 11.372 42.1989 11.0971 42.426 11.2863C43.2318 12.0112 44.2179 12.5478 45.3003 12.8504C45.5241 12.9185 45.5501 13.1609 45.5079 13.3679Z" fill="#FE581B"/>
<path d="M21.8393 3.97417C21.7862 4.09266 21.7092 4.20097 21.6122 4.29349C21.33 4.4916 18.9683 3.88248 18.7736 3.57202C18.6568 3.39165 18.6276 3.14033 18.832 3.0605C19.6041 2.76482 20.2464 3.28226 20.9569 3.39758C21.3105 3.45375 21.703 3.53065 21.8393 3.97417Z" fill="#485B97"/>
<path d="M21.5242 0.257446C21.9102 0.304755 23.1462 2.39225 22.9808 2.73524C22.8867 2.94813 22.6564 3.08708 22.4974 2.9422C21.7867 2.29457 21.2976 1.47284 21.0894 0.576767C21.0408 0.378662 21.3003 0.281101 21.5242 0.257446Z" fill="#3D5191"/>
<path d="M29.0309 5.99963C28.9011 6.10904 28.794 6.27756 28.687 6.27756C27.7327 6.26698 26.7996 6.01963 25.988 5.56204C25.918 5.52408 25.8642 5.46559 25.8354 5.39618C25.8065 5.32678 25.8043 5.25052 25.8292 5.17984C25.854 5.10916 25.9044 5.04827 25.9721 5.00706C26.0398 4.96585 26.1209 4.94675 26.2021 4.95292C27.1008 5.01011 27.9758 5.24201 28.7681 5.633C28.8816 5.68326 28.9303 5.85475 29.0309 5.99963Z" fill="#425694"/>
<path d="M28.5478 2.56973C28.4861 2.9896 26.1829 4.08949 25.8228 3.86773C25.7417 3.82042 25.6314 3.70511 25.6476 3.64597C25.8714 2.78259 26.8479 2.78557 27.4643 2.37457C27.7498 2.18238 28.1131 1.96358 28.4732 2.29769C28.5348 2.35683 28.5251 2.47807 28.5478 2.56973Z" fill="#405492"/>
<path d="M76.6509 18.7079C76.0313 18.6162 75.655 18.356 75.6777 17.8386C75.6667 17.7145 75.6874 17.5897 75.738 17.4741C75.7887 17.3585 75.868 17.2552 75.9698 17.1722C76.0715 17.0891 76.193 17.0286 76.3247 16.9955C76.4563 16.9624 76.5946 16.9574 76.7288 16.9811C76.8514 16.9863 76.9714 17.0151 77.081 17.0655C77.1905 17.1159 77.2872 17.1869 77.3647 17.2736C77.4421 17.3604 77.4986 17.4611 77.5305 17.5692C77.5624 17.6772 77.5688 17.7902 77.5495 17.9007C77.5382 18.1135 77.4396 18.3146 77.2731 18.4642C77.1066 18.6137 76.8845 18.7007 76.6509 18.7079Z" fill="#233A82"/>
<path d="M62.6947 11.5436C62.6265 11.9931 60.4238 13.022 60.0994 12.8121C60.0448 12.7671 60.0017 12.7118 59.9731 12.65C59.9445 12.5882 59.9311 12.5214 59.934 12.4543C59.9761 12.0167 62.1173 11.0055 62.4806 11.245C62.5974 11.3189 62.6428 11.4697 62.6947 11.5436Z" fill="#435794"/>
<path d="M64.0448 12.8416C63.6782 13.4655 63.8858 14.4235 63.0163 14.8404C62.6919 14.9912 62.4389 14.5802 62.5655 14.2727C62.8509 13.566 62.7179 12.6406 63.5808 12.2266C63.9247 12.064 64.0967 12.4424 64.0448 12.8416Z" fill="#51649D"/>
<path d="M65.6209 6.32189C65.861 6.37216 66.0297 6.54366 65.9746 6.73289C65.7572 7.47505 65.7021 8.27932 65.1441 8.9032C65.1068 8.93964 65.0601 8.96689 65.0082 8.98247C64.9563 8.99804 64.9009 9.00143 64.8472 8.99228C64.7934 8.98314 64.7431 8.96173 64.7009 8.93013C64.6586 8.89853 64.6259 8.85776 64.6056 8.81153C64.3785 8.00728 64.891 7.33313 65.1181 6.59097C65.1504 6.4973 65.2198 6.41792 65.3127 6.3682C65.4056 6.31849 65.5155 6.30198 65.6209 6.32189Z" fill="#465A96"/>
<path d="M24.9141 6.25983C25.7835 6.51411 25.8419 7.29173 26.2118 7.83282C26.4226 8.1285 26.7795 8.47445 26.4097 8.87362C26.3515 8.91343 26.2832 8.93917 26.2111 8.94848C26.1391 8.95778 26.0657 8.95033 25.9977 8.92682C25.2887 8.28024 24.8046 7.45748 24.606 6.56143C24.6092 6.48455 24.8103 6.36036 24.9141 6.25983Z" fill="#435794"/>
<path d="M68.6249 8.67251C68.3005 9.28456 67.5478 9.37918 66.9801 9.71035C66.6557 9.89367 66.3151 10.1035 65.9583 9.80195C65.9187 9.74674 65.8955 9.68318 65.891 9.61737C65.8864 9.55155 65.9006 9.4858 65.9323 9.4265C66.5692 8.8982 67.334 8.51425 68.1643 8.30587C68.3459 8.25265 68.573 8.39161 68.6249 8.67251Z" fill="#374C8D"/>
<path d="M23.4839 7.17641C23.0946 7.8062 23.2924 8.75826 22.4684 9.29344C22.3973 9.30199 22.325 9.2946 22.2578 9.27193C22.1905 9.24926 22.1303 9.21201 22.0824 9.16336C21.8586 8.30589 22.4068 7.59035 22.6404 6.79793C22.7053 6.56434 22.9032 6.35442 23.2276 6.47565C23.552 6.59688 23.5617 6.83933 23.4839 7.17641Z" fill="#485B97"/>
<path d="M24.2296 1.94878C24.554 1.35742 24.46 0.529535 25.1217 0.00913917C25.1897 -0.00439239 25.2603 -0.00288556 25.3274 0.0135787C25.3946 0.0300429 25.4565 0.0609679 25.5078 0.103741C25.7966 0.872507 25.2386 1.50821 25.0666 2.20602C25.0017 2.47508 24.8947 2.85061 24.4665 2.73825C24.0383 2.62589 24.1907 2.27994 24.2296 1.94878Z" fill="#2A4186"/>
<path d="M18.7506 24.7605C18.1601 24.7309 17.8195 24.4471 17.8066 23.9474C17.7958 23.8375 17.811 23.7269 17.8509 23.6228C17.8909 23.5187 17.9548 23.4236 18.0383 23.3438C18.1218 23.264 18.223 23.2015 18.3352 23.1602C18.4474 23.119 18.5681 23.1 18.6889 23.1047C18.8226 23.0842 18.9597 23.0929 19.089 23.13C19.2183 23.167 19.3362 23.2315 19.433 23.318C19.5298 23.4045 19.6027 23.5105 19.6459 23.6276C19.6891 23.7447 19.7014 23.8695 19.6817 23.9917C19.6427 24.5062 19.2566 24.7339 18.7506 24.7605Z" fill="#1E367F"/>
<path d="M19.5522 7.2C19.403 7.13199 19.2278 7.09949 19.1499 7.00192C19.1135 6.96641 19.086 6.92413 19.0692 6.87801C19.0523 6.83189 19.0467 6.78302 19.0525 6.73472C19.0584 6.68641 19.0756 6.63984 19.1031 6.59817C19.1305 6.55651 19.1675 6.52072 19.2116 6.49332C20.0064 6.03798 20.7525 5.4555 21.742 5.40228C21.9658 5.40228 22.089 5.69796 21.9593 5.84284C21.3462 6.56726 20.373 6.74465 19.5522 7.2Z" fill="#3F5392"/>
<path d="M66.7632 13.8823C66.7632 14.2874 66.6626 14.6334 66.3836 14.5151C65.4915 14.1278 65.339 13.2378 64.9627 12.5163C64.8297 12.262 65.1152 11.9249 65.3358 12.0284C66.2571 12.4069 66.2344 13.3915 66.7632 13.8823Z" fill="#3F5392"/>
<path d="M62.461 10.0711C62.4394 10.1262 62.4055 10.1767 62.3614 10.2192C62.3172 10.2618 62.2639 10.2955 62.2048 10.3183C62.1456 10.3411 62.0818 10.3524 62.0176 10.3516C61.9534 10.3508 61.8901 10.3379 61.8317 10.3136C61.079 10.0918 60.2096 10.1243 59.6322 9.52999C59.6117 9.46738 59.6078 9.40127 59.6208 9.33703C59.6337 9.27279 59.6632 9.21226 59.7068 9.16039C60.6021 8.88245 61.3288 9.4117 62.1496 9.59207C62.205 9.60411 62.2573 9.62623 62.3031 9.65704C62.349 9.68785 62.3877 9.72669 62.4167 9.77138C62.4458 9.81607 62.4646 9.86565 62.4722 9.91713C62.4798 9.96861 62.476 10.021 62.461 10.0711Z" fill="#3F5492"/>
<path d="M68.9462 11.7387C68.8814 12.0344 68.638 12.1261 68.4564 12.0847C67.6454 11.9043 66.7533 11.8806 66.1174 11.2952C66.0882 11.2561 66.0697 11.2112 66.0634 11.1643C66.0571 11.1173 66.0633 11.0697 66.0815 11.0254C66.0996 10.9811 66.129 10.9414 66.1675 10.9096C66.2059 10.8778 66.2522 10.8549 66.3024 10.8428C67.1718 10.825 67.9601 11.1385 68.7386 11.4489C68.8489 11.4903 68.8976 11.6648 68.9462 11.7387Z" fill="#304589"/>
<path d="M62.0981 6.65601C62.5587 6.65601 63.7396 8.53355 63.5449 8.85584C63.5011 8.91256 63.444 8.95976 63.3778 8.99401C63.3116 9.02826 63.238 9.04876 63.1621 9.054C62.7403 9.054 61.6017 7.22962 61.8061 6.87185C61.8677 6.7654 62.0267 6.70627 62.0981 6.65601Z" fill="#354B8C"/>
<path d="M93.5911 12.2739C94.5351 12.2414 95.0964 12.6494 95.2131 13.4241C95.304 14.0509 94.746 14.3111 94.1816 14.2816C93.2667 14.2431 92.3908 13.8617 92.2967 12.9983C92.2156 12.3537 93.098 12.3981 93.5911 12.2739Z" fill="#EBEDF3"/>
<path d="M91.5219 17.3921C91.4959 17.6198 91.3629 17.7972 91.1326 17.7736C90.9182 17.759 90.7168 17.6744 90.5654 17.5353C90.4141 17.3963 90.3229 17.2121 90.3086 17.0166C90.3086 16.9338 90.4805 16.7475 90.5713 16.7475C90.7822 16.7562 90.9855 16.8223 91.1549 16.9371C91.3243 17.052 91.4521 17.2105 91.5219 17.3921Z" fill="#96A1C4"/>
<path d="M4.04861 13.3413C4.48331 13.5454 5.34627 13.4359 5.06079 14.1662C4.93678 14.4937 4.69052 14.7711 4.36501 14.95C4.03951 15.1288 3.65544 15.1979 3.2798 15.1449C2.75102 15.1065 2.35194 14.8256 2.49144 14.2579C2.68284 13.5246 3.27003 13.2881 4.04861 13.3413Z" fill="#ECEEF4"/>
</svg>
