<svg width="20" height="20" viewBox="0 0 20 20" fill="none" xmlns="http://www.w3.org/2000/svg">
<path fill-rule="evenodd" clip-rule="evenodd" d="M4 0C1.79086 0 0 1.79086 0 4V16C0 18.2091 1.79086 20 4 20H16C18.2091 20 20 18.2091 20 16V4C20 1.79086 18.2091 0 16 0H4ZM17.5862 4.21554C17.3569 4.91771 16.8759 5.51367 16.2331 5.89215C16.843 5.82076 17.4385 5.65984 18 5.41473C17.5868 6.02361 17.0667 6.55502 16.464 6.98399C16.4702 7.11394 16.4733 7.24459 16.4733 7.37595C16.4895 9.66786 15.5723 11.8705 13.9268 13.4913C12.2813 15.112 10.0448 16.0155 7.71771 15.9998C6.04501 16.0015 4.4072 15.5288 3 14.6382C3.24396 14.6663 3.48939 14.6802 3.73501 14.6798C5.12076 14.6821 6.46699 14.2251 7.55708 13.3825C6.24091 13.3573 5.08615 12.5119 4.68228 11.2779C5.14352 11.3649 5.61884 11.3471 6.072 11.2256C4.63594 10.9397 3.60335 9.69675 3.60307 8.2538V8.21566C4.03011 8.44988 4.50782 8.58015 4.99637 8.59562C3.64534 7.7049 3.22864 5.93411 4.04408 4.54889C5.60658 6.44225 7.91176 7.59331 10.386 7.71565C10.0751 6.3805 10.7103 5.00567 11.9366 4.35937C13.1629 3.71307 14.6767 3.95531 15.6322 4.95073C16.3213 4.81717 16.9822 4.56852 17.5862 4.21554Z" fill="white"/>
</svg>
