<svg width="15" height="15" viewBox="0 0 15 15" fill="currentColor" xmlns="http://www.w3.org/2000/svg">
    <path fill-rule="evenodd" clip-rule="evenodd" d="M0.41675 7.49463C0.414145 11.4057 3.58191 14.5788 7.493 14.5827C11.4068 14.5842 14.5811 11.4132 14.5834 7.49935C14.5834 3.58825 11.4135 0.417319 7.50244 0.416016C3.59135 0.414714 0.419358 3.58353 0.41675 7.49463ZM7.53021 13.2269C4.41253 13.2436 1.86693 10.7387 1.83342 7.62118V7.49935C1.86693 4.3818 4.41253 1.87692 7.53021 1.89359C10.6479 1.91044 13.1664 4.44254 13.1664 7.56026C13.1664 10.678 10.6479 13.2101 7.53021 13.2269ZM8.36405 6.88648C8.46412 6.38289 8.56581 5.87931 8.66911 5.37573C8.6917 5.28212 8.71591 5.16752 8.74174 5.03194C8.77079 4.89313 8.79984 4.74949 8.8289 4.60099C8.85795 4.44927 8.88539 4.29917 8.91121 4.15068C8.93704 3.99896 8.95963 3.86338 8.979 3.74394C9.0016 3.6245 9.01935 3.52766 9.03227 3.45341C9.04518 3.37594 9.05163 3.33559 9.05163 3.33236C9.05163 3.30008 9.03388 3.28394 8.99837 3.28394C8.979 3.28394 8.96448 3.28555 8.95479 3.28878C8.64167 3.36948 8.34469 3.45018 8.06384 3.53088C7.783 3.60836 7.50538 3.67776 7.231 3.7391C7.17612 3.75201 7.14061 3.77945 7.12447 3.82141C7.10833 3.86338 7.09703 3.93601 7.09058 4.03931L7.139 8.82332C7.139 8.83947 7.14061 8.85238 7.14384 8.86206C7.1503 8.86852 7.16644 8.87175 7.19226 8.87175C7.32784 8.83624 7.45696 8.80557 7.57963 8.77975C7.7023 8.75392 7.82658 8.72971 7.95247 8.70711C8.01058 8.69743 8.04609 8.6716 8.059 8.62964C8.07514 8.58767 8.08644 8.51343 8.0929 8.4069C8.17683 7.89364 8.26721 7.38683 8.36405 6.88648ZM8.47542 9.70459C8.48188 9.63034 8.48995 9.52382 8.49963 9.38501C8.49963 9.35273 8.48188 9.33659 8.44637 9.33659C8.427 9.33659 8.41248 9.3382 8.40279 9.34143C8.08967 9.40599 7.79268 9.46894 7.51184 9.53027C7.231 9.59161 6.95338 9.64649 6.679 9.69491C6.62089 9.70782 6.58377 9.73526 6.56763 9.77722C6.55471 9.81919 6.54503 9.89182 6.53857 9.99512L6.43205 11.3219L6.44173 11.3315L6.48531 11.3703C6.50468 11.3703 6.51921 11.3687 6.52889 11.3654C6.80973 11.2718 7.10026 11.1944 7.40047 11.133C7.70068 11.0749 7.98798 11.0184 8.26237 10.9635C8.32048 10.9506 8.35598 10.9248 8.3689 10.8861C8.38504 10.8441 8.39633 10.7699 8.40279 10.6633C8.4157 10.5052 8.42539 10.3809 8.43184 10.2905L8.44637 10.0871C8.4496 10.0387 8.45121 10.008 8.45121 9.99512C8.45444 9.97898 8.45605 9.96929 8.45605 9.96607C8.45928 9.95961 8.4609 9.95154 8.4609 9.94185C8.4609 9.93217 8.46251 9.90957 8.46574 9.87406C8.46897 9.83533 8.47219 9.77884 8.47542 9.70459Z" />
</svg>