<svg width="24" height="24" viewBox="0 0 24 24" fill="none" xmlns="http://www.w3.org/2000/svg">
<circle cx="12" cy="12" r="12" fill="#F5FAFF"/>
<path d="M15.0303 5.40039C17.4584 5.40039 18.893 6.79528 18.893 9.16234V9.18824H15.909C14.5215 9.19101 13.3949 10.2881 13.393 11.6422C13.3903 12.9992 14.5169 14.1009 15.909 14.1027H18.8958V14.3182C18.8958 16.6862 17.4612 18.0857 15.0321 18.0857H8.6654C6.23544 18.0857 4.80078 16.6862 4.80078 14.3182V9.16234C4.80078 6.79435 6.23544 5.40039 8.6654 5.40039H15.0294H15.0303ZM12.1184 8.13097H8.14093C8.00026 8.12973 7.8648 8.18418 7.76412 8.28243C7.66344 8.38069 7.6057 8.51478 7.60351 8.65544C7.60497 8.79643 7.66226 8.93108 7.76282 9.02991C7.86338 9.12873 7.99902 9.18367 8.14 9.18269H12.1221C12.2632 9.18367 12.399 9.12861 12.4996 9.02958C12.6002 8.93055 12.6574 8.79566 12.6586 8.65452C12.6559 8.51344 12.5975 8.37917 12.4961 8.28106C12.3947 8.18295 12.2586 8.12899 12.1175 8.13097H12.1184Z" fill="#0066FF"/>
<path d="M18.3911 10.2632C18.5266 10.2654 18.6557 10.3211 18.7503 10.4181C18.8449 10.5151 18.8973 10.6457 18.8961 10.7812V12.5655C18.8976 12.701 18.8452 12.8316 18.7505 12.9285C18.6559 13.0254 18.5266 13.0809 18.3911 13.0826H16.1008C15.7718 13.0856 15.4519 12.9747 15.1955 12.7686C14.939 12.5626 14.7618 12.2741 14.6939 11.9522C14.6768 11.8626 14.6682 11.7715 14.668 11.6803C14.6661 10.8987 15.2831 10.265 16.0462 10.2632H18.3911ZM16.0767 10.968C15.8898 10.968 15.7105 11.0423 15.5783 11.1745C15.4462 11.3067 15.3719 11.4859 15.3719 11.6729C15.3719 11.8598 15.4462 12.0391 15.5783 12.1713C15.7105 12.3035 15.8898 12.3777 16.0767 12.3777C16.2637 12.3777 16.443 12.3035 16.5751 12.1713C16.7073 12.0391 16.7816 11.8598 16.7816 11.6729C16.7816 11.4859 16.7073 11.3067 16.5751 11.1745C16.443 11.0423 16.2637 10.968 16.0767 10.968Z" fill="#0066FF"/>
</svg>
