<svg width="128" height="26" viewBox="0 0 128 26" fill="none" xmlns="http://www.w3.org/2000/svg">
    <path d="M7.59426 22.5116C6.63671 22.5574 5.69524 22.2565 4.94763 21.6657C4.22363 21.0328 3.82709 20.0923 3.74597 18.8649C3.74597 18.8472 3.74597 18.8294 3.74597 18.8117L3.9112 7.31283C3.86313 6.12982 3.8361 5.89321 3.83009 5.84885C3.81026 5.65374 3.72336 5.47114 3.58375 5.33128C3.44256 5.22185 2.90782 4.9261 1.29761 4.9261H0.504517V3.40297H1.28259C2.89881 3.38819 3.95626 3.63366 4.60215 4.17489C5.0239 4.54917 5.29741 5.05838 5.37421 5.61225C5.39524 5.75125 5.42528 6.05292 5.47335 7.27734V7.31874L5.31113 18.8028C5.3622 19.5954 5.5845 20.1722 5.97504 20.5152C6.45855 20.8665 7.05579 21.0316 7.65435 20.9796H8.43542L8.45345 22.5145H7.67538L7.59426 22.5116Z" fill="#00CCFF"/>
    <path d="M8.44443 18.2857H6.88829V6.87554C6.88829 5.14539 6.47372 3.89435 5.62656 3.14905C4.77939 2.40376 3.3254 2.02519 1.28859 2.02519H0.504517V0.490234H1.28859C3.75799 0.490234 5.51841 0.987099 6.66599 2.00745C7.81357 3.0278 8.46847 4.69584 8.44443 6.8785V18.2857Z" fill="#6633FF"/>
    <path d="M7.63933 25.4908C5.37421 25.4908 3.62881 24.9909 2.45119 24.012C1.1504 22.9029 0.504517 21.2556 0.504517 19.1025V7.69531H2.06967V19.1232C2.06967 20.8327 2.51428 22.0512 3.46359 22.8556C4.36482 23.6068 5.79479 23.9972 7.71443 23.9736H8.4955V25.5085H7.63933V25.4908Z" fill="#00CCCC"/>
    <path d="M26.6127 7.88867C26.6387 7.79492 26.6674 7.7194 26.6986 7.66211C26.7299 7.59961 26.8002 7.55534 26.9095 7.5293L29.2142 6.99805C29.2247 6.99805 29.2377 6.99544 29.2533 6.99023C29.2689 6.98503 29.2819 6.98242 29.2924 6.98242C29.3653 6.98242 29.4148 7.01367 29.4408 7.07617C29.472 7.13867 29.4877 7.19857 29.4877 7.25586C29.4877 7.26628 29.4851 7.28711 29.4799 7.31836C29.4799 7.34961 29.4773 7.37044 29.472 7.38086L26.2377 17.209C26.1543 17.4225 26.084 17.597 26.0267 17.7324C25.9747 17.8626 25.92 17.972 25.8627 18.0605C25.8106 18.1439 25.7481 18.2142 25.6752 18.2715C25.6075 18.3288 25.5137 18.3861 25.3939 18.4434C25.2793 18.5007 25.1335 18.5658 24.9564 18.6387C24.7793 18.7168 24.5554 18.821 24.2845 18.9512C24.1908 18.998 24.1179 19.0215 24.0658 19.0215C23.9825 19.0215 23.92 18.9902 23.8783 18.9277C23.8366 18.8652 23.8028 18.7949 23.7767 18.7168L22.4408 13.959L20.7689 17.4043C20.7429 17.4668 20.683 17.5501 20.5892 17.6543C20.4955 17.7585 20.3887 17.8652 20.2689 17.9746C20.1543 18.084 20.0372 18.1908 19.9174 18.2949C19.8028 18.3939 19.709 18.4746 19.6361 18.5371C19.5684 18.5944 19.4955 18.6517 19.4174 18.709C19.3444 18.7663 19.2689 18.8184 19.1908 18.8652C19.1127 18.9121 19.0372 18.9486 18.9642 18.9746C18.8965 19.0059 18.8314 19.0215 18.7689 19.0215C18.6335 19.0215 18.545 18.946 18.5033 18.7949L15.472 8.10742C15.4616 8.06576 15.4486 8.02409 15.433 7.98242C15.4226 7.94076 15.4174 7.90169 15.4174 7.86523C15.4174 7.73503 15.4486 7.62565 15.5111 7.53711C15.5736 7.44857 15.683 7.37305 15.8392 7.31055C15.9955 7.24805 16.2038 7.19857 16.4642 7.16211C16.7247 7.12044 17.0554 7.08659 17.4564 7.06055C17.6439 7.03451 17.8002 7.01628 17.9252 7.00586C18.0554 6.99544 18.1648 6.99023 18.2533 6.99023C18.4043 6.99023 18.5033 7.01367 18.5502 7.06055C18.597 7.10742 18.6387 7.18555 18.6752 7.29492L20.2845 13.4902L21.6205 11.1934L21.0814 8.8418C21.0502 8.7168 21.0372 8.62305 21.0424 8.56055C21.0424 8.44076 21.0736 8.3444 21.1361 8.27148C21.1986 8.19857 21.3028 8.13867 21.4486 8.0918C21.5944 8.04492 21.7845 8.00326 22.0189 7.9668C22.2585 7.93034 22.5502 7.88867 22.8939 7.8418C23.045 7.82096 23.1752 7.80534 23.2845 7.79492C23.3939 7.78451 23.4877 7.7793 23.5658 7.7793C23.722 7.7793 23.8288 7.80273 23.8861 7.84961C23.9434 7.89648 23.9851 7.97201 24.0111 8.07617L25.0736 12.8887L26.6127 7.88867ZM37.0345 16.9199C37.0293 16.9408 37.0267 16.9616 37.0267 16.9824C37.0267 16.998 37.0267 17.0137 37.0267 17.0293C37.0267 17.1595 37.0476 17.2689 37.0892 17.3574C37.1309 17.4408 37.1752 17.5111 37.222 17.5684C37.2741 17.6204 37.321 17.6647 37.3627 17.7012C37.4043 17.7324 37.4252 17.7611 37.4252 17.7871C37.4252 17.86 37.347 17.9277 37.1908 17.9902L35.0892 18.8887C35.084 18.8939 35.0658 18.8965 35.0345 18.8965C34.9929 18.8965 34.9512 18.86 34.9095 18.7871C34.8679 18.7142 34.8262 18.6204 34.7845 18.5059C34.7481 18.3965 34.7116 18.2793 34.6752 18.1543C34.6439 18.0241 34.6153 17.9043 34.5892 17.7949C34.2611 18.1751 33.9069 18.4538 33.5267 18.6309C33.1465 18.8079 32.7689 18.8965 32.3939 18.8965C31.9564 18.8965 31.5293 18.8001 31.1127 18.6074C30.696 18.4147 30.3262 18.1413 30.0033 17.7871C29.6804 17.4277 29.42 16.9954 29.222 16.4902C29.0293 15.985 28.933 15.4173 28.933 14.7871C28.933 14.0423 29.0398 13.3626 29.2533 12.748C29.472 12.1335 29.7663 11.6048 30.1361 11.1621C30.5059 10.7194 30.9356 10.3783 31.4252 10.1387C31.92 9.89388 32.4434 9.77148 32.9955 9.77148C33.3861 9.77148 33.7559 9.85221 34.1049 10.0137C34.4538 10.1699 34.7845 10.373 35.097 10.623C35.1283 10.4668 35.1465 10.3418 35.1517 10.248C35.1569 10.1543 35.1674 10.0814 35.183 10.0293C35.2038 9.97721 35.2403 9.94336 35.2924 9.92773C35.3444 9.9069 35.4304 9.89128 35.5502 9.88086C35.9252 9.82878 36.2976 9.7819 36.6674 9.74023C37.0424 9.69336 37.433 9.65951 37.8392 9.63867L37.0345 16.9199ZM34.6986 13.9746C34.7507 13.6777 34.7845 13.3991 34.8002 13.1387C34.821 12.873 34.8366 12.6309 34.847 12.4121C34.7637 12.3496 34.6726 12.2845 34.5736 12.2168C34.4799 12.1491 34.3757 12.0866 34.2611 12.0293C34.1517 11.9668 34.0345 11.9173 33.9095 11.8809C33.7898 11.8444 33.6622 11.8262 33.5267 11.8262C33.2455 11.8262 33.0085 11.9173 32.8158 12.0996C32.6283 12.2819 32.4747 12.5059 32.3549 12.7715C32.2403 13.0371 32.1569 13.3184 32.1049 13.6152C32.058 13.9121 32.0345 14.1751 32.0345 14.4043C32.0345 15.2272 32.1413 15.8314 32.3549 16.2168C32.5736 16.597 32.8757 16.7871 33.2611 16.7871C33.4174 16.7871 33.5918 16.7428 33.7845 16.6543C33.9773 16.5658 34.1726 16.4434 34.3705 16.2871L34.6986 13.9746ZM43.0189 12.4668C42.946 13.0137 42.8757 13.5605 42.808 14.1074C42.7455 14.6491 42.7064 15.1569 42.6908 15.6309C42.6908 15.834 42.7064 16.0033 42.7377 16.1387C42.7689 16.2741 42.8132 16.3809 42.8705 16.459C42.933 16.5371 43.0059 16.5944 43.0892 16.6309C43.1726 16.6621 43.2663 16.6777 43.3705 16.6777C43.5372 16.6777 43.7194 16.6543 43.9174 16.6074C44.1153 16.5553 44.3132 16.4902 44.5111 16.4121C44.5736 16.3861 44.6257 16.3678 44.6674 16.3574C44.7142 16.3418 44.7533 16.334 44.7845 16.334C44.8366 16.334 44.8705 16.3574 44.8861 16.4043C44.9069 16.4512 44.9252 16.5345 44.9408 16.6543C44.9616 16.7689 44.9903 16.9251 45.0267 17.123C45.0632 17.321 45.1231 17.571 45.2064 17.873C45.2116 17.8991 45.2142 17.9225 45.2142 17.9434C45.2194 17.959 45.222 17.9746 45.222 17.9902C45.222 18.0632 45.1934 18.1152 45.1361 18.1465C45.084 18.1777 44.9955 18.2142 44.8705 18.2559C44.6569 18.3288 44.4304 18.4043 44.1908 18.4824C43.9564 18.5553 43.722 18.623 43.4877 18.6855C43.2585 18.748 43.0372 18.7975 42.8236 18.834C42.6101 18.8757 42.4226 18.8965 42.2611 18.8965C41.3913 18.8965 40.7559 18.6803 40.3549 18.248C39.959 17.8158 39.7611 17.1569 39.7611 16.2715C39.7611 16.1204 39.7663 15.9668 39.7767 15.8105C39.7872 15.6491 39.8002 15.4824 39.8158 15.3105C39.8679 14.7897 39.9122 14.2975 39.9486 13.834C39.9903 13.3652 40.0319 12.9173 40.0736 12.4902H39.2533C38.972 12.4902 38.7689 12.4798 38.6439 12.459C38.5189 12.4329 38.4564 12.3835 38.4564 12.3105C38.4564 12.2897 38.4825 12.235 38.5345 12.1465C38.5866 12.0527 38.6517 11.9434 38.7299 11.8184C38.8132 11.6882 38.9017 11.5501 38.9955 11.4043C39.0892 11.2585 39.1778 11.123 39.2611 10.998C39.3497 10.8678 39.4252 10.7559 39.4877 10.6621C39.5502 10.5684 39.5892 10.5111 39.6049 10.4902H40.1595C40.2064 10.0944 40.2429 9.76367 40.2689 9.49805C40.3002 9.22721 40.3236 9.00326 40.3392 8.82617C40.3601 8.64909 40.3783 8.51367 40.3939 8.41992C40.4095 8.32096 40.4252 8.24805 40.4408 8.20117C40.4616 8.1543 40.4851 8.12565 40.5111 8.11523C40.5424 8.09961 40.5814 8.08659 40.6283 8.07617C40.8627 8.0293 41.0892 7.98763 41.308 7.95117C41.5267 7.90951 41.7455 7.86784 41.9642 7.82617C42.183 7.78451 42.4043 7.73763 42.6283 7.68555C42.8575 7.62826 43.0944 7.56315 43.3392 7.49023C43.3549 7.49023 43.3653 7.49023 43.3705 7.49023C43.3757 7.48503 43.3861 7.48242 43.4017 7.48242C43.4642 7.48242 43.4955 7.50326 43.4955 7.54492V7.56055C43.4694 7.84701 43.4278 8.24544 43.3705 8.75586C43.3184 9.26628 43.2585 9.8444 43.1908 10.4902H45.2845C45.3262 10.4902 45.3653 10.5059 45.4017 10.5371C45.4434 10.5632 45.4642 10.61 45.4642 10.6777C45.4642 10.7038 45.433 10.7975 45.3705 10.959C45.308 11.1204 45.2194 11.3314 45.1049 11.5918L44.8236 12.2246C44.7872 12.3027 44.7481 12.36 44.7064 12.3965C44.67 12.4329 44.5918 12.4564 44.472 12.4668H43.0189ZM50.6361 9.77148C51.1309 9.77148 51.5788 9.86523 51.9799 10.0527C52.3861 10.235 52.7325 10.4746 53.0189 10.7715C53.3106 11.0632 53.5345 11.3913 53.6908 11.7559C53.847 12.1204 53.9252 12.485 53.9252 12.8496C53.9252 13.1725 53.8262 13.498 53.6283 13.8262C53.4304 14.1491 53.1517 14.4408 52.7924 14.7012C52.4382 14.9616 52.0111 15.1725 51.5111 15.334C51.0111 15.4954 50.4616 15.5762 49.8627 15.5762C49.5502 15.5762 49.222 15.5449 48.8783 15.4824C48.8991 15.7064 48.9642 15.8991 49.0736 16.0605C49.183 16.222 49.321 16.3548 49.4877 16.459C49.6543 16.5632 49.8418 16.6413 50.0502 16.6934C50.2637 16.7402 50.4825 16.7637 50.7064 16.7637C50.9564 16.7637 51.196 16.7428 51.4252 16.7012C51.6595 16.6543 51.8835 16.5944 52.097 16.5215C52.3106 16.4486 52.5163 16.3678 52.7142 16.2793C52.9122 16.1908 53.0997 16.1022 53.2767 16.0137C53.3236 16.0033 53.3627 15.9954 53.3939 15.9902C53.4304 15.9798 53.4642 15.9746 53.4955 15.9746C53.4955 15.9746 53.4929 16.0163 53.4877 16.0996C53.4877 16.1829 53.4877 16.3001 53.4877 16.4512C53.4877 16.6022 53.4851 16.7845 53.4799 16.998C53.4799 17.2116 53.4773 17.4486 53.472 17.709C53.4877 17.735 53.4981 17.7611 53.5033 17.7871C53.5085 17.8132 53.5111 17.834 53.5111 17.8496C53.5111 17.9121 53.4538 17.9798 53.3392 18.0527C53.2247 18.1257 53.0736 18.2012 52.8861 18.2793C52.7038 18.3574 52.4929 18.4329 52.2533 18.5059C52.0189 18.5788 51.7793 18.6439 51.5345 18.7012C51.2898 18.7637 51.0528 18.8105 50.8236 18.8418C50.5944 18.8783 50.3939 18.8965 50.222 18.8965C49.6595 18.8965 49.1127 18.7975 48.5814 18.5996C48.0554 18.4069 47.5866 18.1283 47.1752 17.7637C46.7689 17.3991 46.4434 16.9564 46.1986 16.4355C45.9538 15.9147 45.8314 15.3288 45.8314 14.6777C45.8314 13.9954 45.9486 13.3574 46.183 12.7637C46.4174 12.1647 46.7455 11.6439 47.1674 11.2012C47.5944 10.7585 48.1023 10.4095 48.6908 10.1543C49.2793 9.89909 49.9278 9.77148 50.6361 9.77148ZM50.5424 11.8496C50.3288 11.8496 50.1309 11.8965 49.9486 11.9902C49.7715 12.0788 49.6075 12.209 49.4564 12.3809C49.3106 12.5475 49.183 12.7507 49.0736 12.9902C48.9642 13.2246 48.8757 13.485 48.808 13.7715C49.3444 13.6777 49.7898 13.5788 50.1439 13.4746C50.4981 13.3704 50.7819 13.2663 50.9955 13.1621C51.209 13.0527 51.3601 12.946 51.4486 12.8418C51.5372 12.7324 51.5814 12.6283 51.5814 12.5293C51.5814 12.4355 51.545 12.347 51.472 12.2637C51.4043 12.1803 51.3184 12.1074 51.2142 12.0449C51.1101 11.9824 50.9955 11.9355 50.8705 11.9043C50.7507 11.8678 50.6413 11.8496 50.5424 11.8496ZM61.2924 12.1309C61.183 12.1204 61.0606 12.11 60.9252 12.0996C60.7898 12.084 60.6465 12.0762 60.4955 12.0762C60.2663 12.0762 60.0319 12.097 59.7924 12.1387C59.558 12.1751 59.3392 12.2507 59.1361 12.3652C58.933 12.4798 58.7585 12.6387 58.6127 12.8418C58.4668 13.0397 58.3731 13.2975 58.3314 13.6152C58.295 14.0007 58.2637 14.3184 58.2377 14.5684C58.2168 14.8132 58.2012 15.0163 58.1908 15.1777C58.1804 15.334 58.17 15.4616 58.1595 15.5605C58.1543 15.6543 58.1491 15.7428 58.1439 15.8262C58.1439 15.847 58.1387 15.9043 58.1283 15.998C58.1231 16.0918 58.1127 16.2012 58.097 16.3262C58.0814 16.4512 58.0658 16.5866 58.0502 16.7324C58.0398 16.8783 58.0267 17.0137 58.0111 17.1387C57.9955 17.2637 57.9825 17.373 57.972 17.4668C57.9668 17.5605 57.9642 17.6178 57.9642 17.6387C57.9642 17.6803 57.9642 17.7168 57.9642 17.748C57.9694 17.7741 57.972 17.8001 57.972 17.8262C57.972 17.8678 57.9512 17.9043 57.9095 17.9355C57.8731 17.9616 57.7872 17.9928 57.6517 18.0293L55.5814 18.7715C55.5241 18.7923 55.4486 18.8184 55.3549 18.8496C55.2611 18.8809 55.17 18.8965 55.0814 18.8965C55.0085 18.8965 54.9434 18.8783 54.8861 18.8418C54.834 18.8053 54.808 18.7428 54.808 18.6543L55.4799 10.9121C55.4955 10.7402 55.5137 10.623 55.5345 10.5605C55.5606 10.4928 55.6205 10.4486 55.7142 10.4277C56.1882 10.334 56.6778 10.2402 57.183 10.1465C57.6882 10.0475 58.1778 9.92253 58.6517 9.77148C58.6934 9.77148 58.7168 9.7793 58.722 9.79492C58.7325 9.80534 58.7377 9.82357 58.7377 9.84961C58.7377 9.86003 58.7351 9.87565 58.7299 9.89648C58.7299 9.91732 58.722 9.96419 58.7064 10.0371C58.696 10.11 58.6778 10.222 58.6517 10.373C58.6309 10.5189 58.5997 10.7246 58.558 10.9902C58.7976 10.8027 59.0606 10.6309 59.347 10.4746C59.6387 10.3184 59.9304 10.1855 60.222 10.0762C60.5137 9.96159 60.795 9.87305 61.0658 9.81055C61.3366 9.74284 61.5736 9.70898 61.7767 9.70898L61.2924 12.1309ZM62.8392 18.6074C62.8444 18.5501 62.8549 18.4277 62.8705 18.2402C62.8913 18.0475 62.9148 17.8053 62.9408 17.5137C62.9668 17.222 62.9955 16.8887 63.0267 16.5137C63.0632 16.1335 63.1023 15.7272 63.1439 15.2949C63.1856 14.8574 63.2273 14.4017 63.2689 13.9277C63.3158 13.4538 63.3627 12.9746 63.4095 12.4902H62.3705C62.0892 12.4902 61.8861 12.4798 61.7611 12.459C61.6361 12.4329 61.5736 12.3835 61.5736 12.3105C61.5736 12.2897 61.5997 12.235 61.6517 12.1465C61.7038 12.0527 61.7689 11.9434 61.847 11.8184C61.9304 11.6882 62.0189 11.5501 62.1127 11.4043C62.2064 11.2585 62.295 11.123 62.3783 10.998C62.4668 10.8678 62.5424 10.7559 62.6049 10.6621C62.6674 10.5684 62.7064 10.5111 62.722 10.4902H63.6752L63.8314 9.24805C63.9043 8.5918 64.0345 8.03971 64.222 7.5918C64.4148 7.14388 64.6517 6.7819 64.933 6.50586C65.2194 6.22982 65.545 6.0319 65.9095 5.91211C66.2741 5.79232 66.6648 5.73242 67.0814 5.73242C67.4981 5.73242 67.9304 5.78451 68.3783 5.88867C68.8314 5.98763 69.2872 6.12565 69.7455 6.30273C69.8444 6.3444 69.9174 6.38086 69.9642 6.41211C70.0163 6.43815 70.0424 6.47461 70.0424 6.52148C70.0424 6.56315 70.0241 6.61784 69.9877 6.68555C69.821 7.00846 69.696 7.26888 69.6127 7.4668C69.5345 7.66471 69.472 7.82096 69.4252 7.93555C69.3783 8.05013 69.3392 8.12826 69.308 8.16992C69.2767 8.20638 69.2299 8.22461 69.1674 8.22461C69.1361 8.22461 69.1023 8.2168 69.0658 8.20117C69.0345 8.18555 68.9955 8.16732 68.9486 8.14648C68.7663 8.07878 68.5814 8.01888 68.3939 7.9668C68.2116 7.90951 68.0372 7.88086 67.8705 7.88086C67.6361 7.88086 67.433 7.95378 67.2611 8.09961C67.0944 8.24544 66.9616 8.52148 66.8627 8.92773C66.8054 9.16211 66.7585 9.41471 66.722 9.68555C66.6856 9.95638 66.6543 10.2246 66.6283 10.4902H68.6674C68.709 10.4902 68.7481 10.5059 68.7845 10.5371C68.8262 10.5632 68.847 10.61 68.847 10.6777C68.847 10.7038 68.8158 10.7975 68.7533 10.959C68.6908 11.1204 68.6023 11.3314 68.4877 11.5918L68.2064 12.2246C68.17 12.3027 68.1309 12.36 68.0892 12.3965C68.0528 12.4329 67.9747 12.4564 67.8549 12.4668H66.5033C66.446 13.0085 66.3913 13.5449 66.3392 14.0762C66.2872 14.6074 66.2377 15.1074 66.1908 15.5762C66.1439 16.0397 66.1023 16.4538 66.0658 16.8184C66.0293 17.1777 66.0007 17.4564 65.9799 17.6543C65.9747 17.6699 65.972 17.6986 65.972 17.7402C65.972 17.7611 65.972 17.7793 65.972 17.7949C65.9773 17.8105 65.9799 17.8236 65.9799 17.834C65.9799 17.8809 65.9616 17.9199 65.9252 17.9512C65.8939 17.9772 65.808 18.0085 65.6674 18.0449L63.6127 18.7715C63.5554 18.7923 63.4799 18.8184 63.3861 18.8496C63.2924 18.8809 63.2012 18.8965 63.1127 18.8965C63.0241 18.8965 62.9564 18.8757 62.9095 18.834C62.8627 18.7923 62.8392 18.7168 62.8392 18.6074ZM76.9408 16.9199C76.9356 16.9408 76.933 16.9616 76.933 16.9824C76.933 16.998 76.933 17.0137 76.933 17.0293C76.933 17.1595 76.9538 17.2689 76.9955 17.3574C77.0372 17.4408 77.0814 17.5111 77.1283 17.5684C77.1804 17.6204 77.2273 17.6647 77.2689 17.7012C77.3106 17.7324 77.3314 17.7611 77.3314 17.7871C77.3314 17.86 77.2533 17.9277 77.097 17.9902L74.9955 18.8887C74.9903 18.8939 74.972 18.8965 74.9408 18.8965C74.8991 18.8965 74.8575 18.86 74.8158 18.7871C74.7741 18.7142 74.7325 18.6204 74.6908 18.5059C74.6543 18.3965 74.6179 18.2793 74.5814 18.1543C74.5502 18.0241 74.5215 17.9043 74.4955 17.7949C74.1674 18.1751 73.8132 18.4538 73.433 18.6309C73.0528 18.8079 72.6752 18.8965 72.3002 18.8965C71.8627 18.8965 71.4356 18.8001 71.0189 18.6074C70.6023 18.4147 70.2325 18.1413 69.9095 17.7871C69.5866 17.4277 69.3262 16.9954 69.1283 16.4902C68.9356 15.985 68.8392 15.4173 68.8392 14.7871C68.8392 14.0423 68.946 13.3626 69.1595 12.748C69.3783 12.1335 69.6726 11.6048 70.0424 11.1621C70.4122 10.7194 70.8418 10.3783 71.3314 10.1387C71.8262 9.89388 72.3497 9.77148 72.9017 9.77148C73.2924 9.77148 73.6622 9.85221 74.0111 10.0137C74.3601 10.1699 74.6908 10.373 75.0033 10.623C75.0345 10.4668 75.0528 10.3418 75.058 10.248C75.0632 10.1543 75.0736 10.0814 75.0892 10.0293C75.1101 9.97721 75.1465 9.94336 75.1986 9.92773C75.2507 9.9069 75.3366 9.89128 75.4564 9.88086C75.8314 9.82878 76.2038 9.7819 76.5736 9.74023C76.9486 9.69336 77.3392 9.65951 77.7455 9.63867L76.9408 16.9199ZM74.6049 13.9746C74.6569 13.6777 74.6908 13.3991 74.7064 13.1387C74.7273 12.873 74.7429 12.6309 74.7533 12.4121C74.67 12.3496 74.5788 12.2845 74.4799 12.2168C74.3861 12.1491 74.2819 12.0866 74.1674 12.0293C74.058 11.9668 73.9408 11.9173 73.8158 11.8809C73.696 11.8444 73.5684 11.8262 73.433 11.8262C73.1517 11.8262 72.9148 11.9173 72.722 12.0996C72.5345 12.2819 72.3809 12.5059 72.2611 12.7715C72.1465 13.0371 72.0632 13.3184 72.0111 13.6152C71.9642 13.9121 71.9408 14.1751 71.9408 14.4043C71.9408 15.2272 72.0476 15.8314 72.2611 16.2168C72.4799 16.597 72.7819 16.7871 73.1674 16.7871C73.3236 16.7871 73.4981 16.7428 73.6908 16.6543C73.8835 16.5658 74.0788 16.4434 74.2767 16.2871L74.6049 13.9746ZM79.2533 11.8809C79.3158 11.1673 79.3653 10.4616 79.4017 9.76367C79.4434 9.06576 79.4877 8.34961 79.5345 7.61523C79.545 7.44336 79.5606 7.32617 79.5814 7.26367C79.6075 7.19596 79.6674 7.15169 79.7611 7.13086C80.2455 7.04232 80.7299 6.95378 81.2142 6.86523C81.7038 6.77148 82.1934 6.64909 82.683 6.49805C82.6986 6.49284 82.722 6.49023 82.7533 6.49023C82.8106 6.49023 82.8392 6.51628 82.8392 6.56836L81.8236 17.7246V17.8574C81.8236 17.9043 81.8054 17.9434 81.7689 17.9746C81.7325 18.0007 81.6465 18.0319 81.5111 18.0684L79.4642 18.8184C79.4069 18.8444 79.3314 18.8704 79.2377 18.8965C79.1439 18.9277 79.0528 18.9434 78.9642 18.9434C78.8913 18.9434 78.8262 18.9251 78.7689 18.8887C78.7168 18.8522 78.6908 18.7897 78.6908 18.7012V18.6543C78.7325 18.1283 78.7715 17.6152 78.808 17.1152C78.8497 16.61 78.8913 16.0892 78.933 15.5527C78.9799 15.0163 79.0293 14.4486 79.0814 13.8496C79.1335 13.2507 79.1908 12.5944 79.2533 11.8809ZM84.1127 11.8809C84.1752 11.1673 84.2247 10.4616 84.2611 9.76367C84.3028 9.06576 84.347 8.34961 84.3939 7.61523C84.4043 7.44336 84.42 7.32617 84.4408 7.26367C84.4668 7.19596 84.5267 7.15169 84.6205 7.13086C85.1049 7.04232 85.5892 6.95378 86.0736 6.86523C86.5632 6.77148 87.0528 6.64909 87.5424 6.49805C87.558 6.49284 87.5814 6.49023 87.6127 6.49023C87.67 6.49023 87.6986 6.51628 87.6986 6.56836L86.683 17.7246V17.8574C86.683 17.9043 86.6648 17.9434 86.6283 17.9746C86.5918 18.0007 86.5059 18.0319 86.3705 18.0684L84.3236 18.8184C84.2663 18.8444 84.1908 18.8704 84.097 18.8965C84.0033 18.9277 83.9122 18.9434 83.8236 18.9434C83.7507 18.9434 83.6856 18.9251 83.6283 18.8887C83.5762 18.8522 83.5502 18.7897 83.5502 18.7012V18.6543C83.5918 18.1283 83.6309 17.6152 83.6674 17.1152C83.709 16.61 83.7507 16.0892 83.7924 15.5527C83.8392 15.0163 83.8887 14.4486 83.9408 13.8496C83.9929 13.2507 84.0502 12.5944 84.1127 11.8809ZM92.2689 18.8965C92.2116 18.8861 92.17 18.8574 92.1439 18.8105C92.1179 18.7637 92.1049 18.7116 92.1049 18.6543C92.1049 18.6074 92.1153 18.5658 92.1361 18.5293L93.097 16.6934C93.1023 16.6725 93.1101 16.5918 93.1205 16.4512C93.1361 16.3105 93.1517 16.1361 93.1674 15.9277C93.183 15.7142 93.1986 15.4772 93.2142 15.2168C93.2351 14.9564 93.2559 14.6986 93.2767 14.4434C93.2976 14.1882 93.3158 13.946 93.3314 13.7168C93.3523 13.4824 93.3705 13.2871 93.3861 13.1309C93.3913 13.0684 93.3991 12.9746 93.4095 12.8496C93.42 12.7194 93.4304 12.571 93.4408 12.4043C93.4512 12.2376 93.4642 12.0579 93.4799 11.8652C93.4955 11.6725 93.5111 11.4798 93.5267 11.2871L93.6361 9.6543C93.4955 9.68555 93.3497 9.7194 93.1986 9.75586C93.0476 9.78711 92.8991 9.81576 92.7533 9.8418C92.6127 9.86784 92.4773 9.89128 92.347 9.91211C92.222 9.92773 92.1127 9.93555 92.0189 9.93555C91.9616 9.93555 91.9174 9.90951 91.8861 9.85742C91.8601 9.80534 91.847 9.75065 91.847 9.69336C91.847 9.62565 91.8627 9.57617 91.8939 9.54492L93.8783 7.69336C94.0398 7.54753 94.1986 7.43034 94.3549 7.3418C94.5163 7.24805 94.709 7.17513 94.933 7.12305C95.1569 7.07096 95.4304 7.03711 95.7533 7.02148C96.0814 7.00065 96.4955 6.99023 96.9955 6.99023C97.8497 6.99023 98.6075 7.07878 99.2689 7.25586C99.9304 7.43294 100.49 7.68555 100.949 8.01367C101.287 8.24805 101.589 8.49284 101.855 8.74805C102.12 9.00326 102.344 9.28711 102.527 9.59961C102.709 9.9069 102.847 10.248 102.941 10.623C103.035 10.9928 103.081 11.4121 103.081 11.8809C103.081 12.7715 102.949 13.5632 102.683 14.2559C102.417 14.9486 102.055 15.5553 101.597 16.0762C101.139 16.5918 100.602 17.0293 99.9877 17.3887C99.3783 17.748 98.7247 18.0397 98.0267 18.2637C97.334 18.4876 96.6153 18.6491 95.8705 18.748C95.1309 18.847 94.4043 18.8965 93.6908 18.8965H92.2689ZM96.808 9.49023L96.7142 10.4355C96.683 10.7637 96.6491 11.1152 96.6127 11.4902C96.5814 11.86 96.5502 12.2376 96.5189 12.623C96.4877 13.0033 96.4564 13.3809 96.4252 13.7559C96.3939 14.1257 96.3653 14.472 96.3392 14.7949C96.3132 15.1178 96.2898 15.4069 96.2689 15.6621C96.2481 15.9173 96.2299 16.1204 96.2142 16.2715L96.1908 16.5059C96.821 16.5059 97.3523 16.4043 97.7845 16.2012C98.222 15.998 98.5762 15.7194 98.847 15.3652C99.1179 15.0059 99.3132 14.5866 99.433 14.1074C99.558 13.6283 99.6205 13.1126 99.6205 12.5605C99.6205 12.1647 99.5658 11.7845 99.4564 11.4199C99.347 11.0501 99.1882 10.6986 98.9799 10.3652C98.7715 10.0319 98.5163 9.7819 98.2142 9.61523C97.9122 9.44857 97.571 9.36523 97.1908 9.36523C97.1283 9.36523 97.0606 9.38086 96.9877 9.41211C96.9148 9.43815 96.8549 9.46419 96.808 9.49023ZM110.988 12.0059C110.967 12.0788 110.928 12.1829 110.87 12.3184C110.813 12.4486 110.745 12.597 110.667 12.7637C110.594 12.9303 110.514 13.11 110.425 13.3027C110.342 13.4902 110.259 13.6803 110.175 13.873C110.144 13.946 110.115 14.0007 110.089 14.0371C110.063 14.0684 110.022 14.0918 109.964 14.1074C109.907 14.123 109.826 14.1335 109.722 14.1387C109.623 14.1387 109.482 14.1413 109.3 14.1465L108.214 14.1699L107.995 16.5605H112.003V16.8652C111.993 16.8757 111.949 16.946 111.87 17.0762C111.792 17.2012 111.701 17.3522 111.597 17.5293C111.493 17.7064 111.384 17.8861 111.269 18.0684C111.154 18.2454 111.058 18.3887 110.98 18.498C110.928 18.5918 110.868 18.6647 110.8 18.7168C110.732 18.7741 110.657 18.8158 110.574 18.8418C110.495 18.8678 110.407 18.8835 110.308 18.8887C110.214 18.8939 110.11 18.8965 109.995 18.8965C109.527 18.8965 109.037 18.8861 108.527 18.8652C108.022 18.8444 107.516 18.8184 107.011 18.7871C106.506 18.7559 106.011 18.7194 105.527 18.6777C105.048 18.6413 104.602 18.6022 104.191 18.5605C104.154 18.5553 104.12 18.5345 104.089 18.498C104.063 18.4616 104.05 18.4199 104.05 18.373C104.029 18.373 104.042 18.3288 104.089 18.2402C104.141 18.1517 104.212 18.0371 104.3 17.8965C104.389 17.7559 104.485 17.597 104.589 17.4199C104.699 17.2376 104.803 17.0553 104.902 16.873L105.027 15.1152C105.048 14.8184 105.063 14.597 105.074 14.4512C105.089 14.3053 105.097 14.2272 105.097 14.2168C104.785 14.2116 104.55 14.196 104.394 14.1699C104.243 14.1439 104.167 14.0866 104.167 13.998C104.167 13.9564 104.204 13.8783 104.277 13.7637C104.355 13.6491 104.449 13.5189 104.558 13.373C104.667 13.222 104.782 13.0658 104.902 12.9043C105.027 12.7428 105.136 12.5944 105.23 12.459L105.425 9.80273H105.402C105.287 9.80794 105.183 9.81315 105.089 9.81836C104.995 9.81836 104.91 9.81836 104.831 9.81836C104.581 9.81836 104.402 9.80534 104.292 9.7793C104.188 9.74805 104.136 9.69336 104.136 9.61523C104.136 9.57878 104.167 9.50326 104.23 9.38867C104.292 9.27409 104.37 9.14388 104.464 8.99805C104.558 8.84701 104.657 8.69076 104.761 8.5293C104.865 8.36263 104.959 8.20898 105.042 8.06836L105.511 7.27148H108.777L112.628 6.99023C112.634 6.99023 112.647 6.99284 112.667 6.99805C112.693 6.99805 112.719 7.00586 112.745 7.02148C112.772 7.0319 112.795 7.05273 112.816 7.08398C112.842 7.11523 112.855 7.15951 112.855 7.2168L112.738 7.62305C112.701 7.73763 112.657 7.86003 112.605 7.99023C112.553 8.11523 112.495 8.24544 112.433 8.38086L112.089 9.28711C112.053 9.37565 112.011 9.44336 111.964 9.49023C111.917 9.53711 111.818 9.56315 111.667 9.56836C111.272 9.57878 110.829 9.59701 110.339 9.62305C109.855 9.64388 109.298 9.66471 108.667 9.68555C108.647 9.75846 108.636 9.81836 108.636 9.86523C108.636 9.9069 108.631 9.99023 108.62 10.1152L108.581 10.4746C108.571 10.6413 108.555 10.821 108.535 11.0137C108.514 11.2064 108.488 11.4434 108.456 11.7246C108.722 11.7142 108.98 11.7038 109.23 11.6934C109.485 11.6829 109.717 11.6751 109.925 11.6699C110.134 11.6595 110.313 11.6517 110.464 11.6465C110.62 11.6413 110.73 11.6387 110.792 11.6387C110.834 11.6387 110.881 11.6543 110.933 11.6855C110.985 11.7168 111.011 11.7767 111.011 11.8652C111.011 11.9069 111.003 11.9538 110.988 12.0059ZM120.847 12.0684C120.826 12.1465 120.787 12.2585 120.73 12.4043C120.673 12.5501 120.607 12.7168 120.535 12.9043C120.462 13.0866 120.381 13.2819 120.292 13.4902C120.204 13.6934 120.118 13.8939 120.035 14.0918C119.998 14.1803 119.954 14.2454 119.902 14.2871C119.855 14.3288 119.756 14.3522 119.605 14.3574L117.324 14.3965L117.042 17.8652C117.037 17.9121 117.024 17.959 117.003 18.0059C116.982 18.0475 116.951 18.0814 116.91 18.1074C116.894 18.1178 116.831 18.1491 116.722 18.2012C116.618 18.248 116.485 18.3053 116.324 18.373C116.162 18.4408 115.985 18.5137 115.792 18.5918C115.6 18.6699 115.41 18.7402 115.222 18.8027C115.035 18.8704 114.863 18.9251 114.706 18.9668C114.55 19.0137 114.428 19.0371 114.339 19.0371C114.235 19.0371 114.139 19.0163 114.05 18.9746C113.967 18.9382 113.925 18.86 113.925 18.7402C113.92 18.4798 113.925 18.1934 113.941 17.8809C113.962 17.5632 113.985 17.2428 114.011 16.9199C114.037 16.5918 114.066 16.2715 114.097 15.959C114.128 15.6413 114.154 15.3522 114.175 15.0918L114.23 14.4355C113.792 14.4355 113.48 14.4251 113.292 14.4043C113.105 14.3783 113.011 14.3158 113.011 14.2168C113.011 14.1491 113.05 14.0605 113.128 13.9512C113.238 13.8001 113.36 13.6178 113.495 13.4043C113.636 13.1908 113.769 12.9824 113.894 12.7793C114.024 12.5762 114.136 12.3965 114.23 12.2402C114.329 12.084 114.391 11.9876 114.417 11.9512L114.566 9.80273C114.467 9.80273 114.381 9.80534 114.308 9.81055C114.235 9.81055 114.167 9.81315 114.105 9.81836C114.048 9.81836 113.993 9.82096 113.941 9.82617C113.889 9.82617 113.834 9.82617 113.777 9.82617C113.527 9.82617 113.347 9.81315 113.238 9.78711C113.134 9.75586 113.081 9.70117 113.081 9.62305C113.081 9.58659 113.113 9.51107 113.175 9.39648C113.238 9.2819 113.313 9.15169 113.402 9.00586C113.495 8.85482 113.594 8.69857 113.699 8.53711C113.808 8.37044 113.904 8.2168 113.988 8.07617L114.456 7.2793L118.011 7.1543C118.469 7.13867 118.925 7.12305 119.378 7.10742C119.831 7.08659 120.248 7.06836 120.628 7.05273C121.014 7.03711 121.344 7.02409 121.62 7.01367C121.897 6.99805 122.089 6.98763 122.199 6.98242C122.204 6.98242 122.217 6.98503 122.238 6.99023C122.264 6.99023 122.29 6.99805 122.316 7.01367C122.342 7.02409 122.365 7.04492 122.386 7.07617C122.412 7.10742 122.425 7.15169 122.425 7.20898C122.425 7.24023 122.389 7.3444 122.316 7.52148C122.243 7.69857 122.139 7.96159 122.003 8.31055L121.66 9.2168C121.623 9.30534 121.581 9.37305 121.535 9.41992C121.488 9.4668 121.389 9.49284 121.238 9.49805C121.061 9.50326 120.881 9.51107 120.699 9.52148C120.516 9.5319 120.329 9.54232 120.136 9.55273L117.761 9.66992C117.73 9.87305 117.706 10.0241 117.691 10.123C117.68 10.222 117.673 10.3053 117.667 10.373C117.667 10.4355 117.667 10.5007 117.667 10.5684C117.667 10.6309 117.665 10.7324 117.66 10.873C117.654 10.972 117.647 11.0553 117.636 11.123C117.631 11.1908 117.623 11.2585 117.613 11.3262C117.607 11.3887 117.6 11.4564 117.589 11.5293C117.584 11.6022 117.579 11.6934 117.574 11.8027C117.917 11.7923 118.253 11.7819 118.581 11.7715C118.915 11.7611 119.219 11.7507 119.495 11.7402C119.777 11.7298 120.019 11.722 120.222 11.7168C120.425 11.7064 120.568 11.7012 120.652 11.7012C120.693 11.7012 120.74 11.7168 120.792 11.748C120.844 11.7793 120.87 11.8392 120.87 11.9277C120.87 11.9694 120.863 12.0163 120.847 12.0684ZM122.472 18.7402L122.863 13.3965C122.993 11.6048 123.089 10.2897 123.152 9.45117C123.214 8.61263 123.245 8.19596 123.245 8.20117C123.251 8.10742 123.256 8.0293 123.261 7.9668C123.266 7.9043 123.277 7.85221 123.292 7.81055C123.308 7.76888 123.329 7.73763 123.355 7.7168C123.381 7.69596 123.42 7.68034 123.472 7.66992L126.175 7.02148C126.243 7.00065 126.313 6.99023 126.386 6.99023C126.459 6.99023 126.509 7.01367 126.535 7.06055C126.561 7.10221 126.574 7.19076 126.574 7.32617C126.537 7.64909 126.509 7.95117 126.488 8.23242C126.467 8.51367 126.449 8.7819 126.433 9.03711C126.423 9.29232 126.412 9.53971 126.402 9.7793C126.391 10.0137 126.378 10.248 126.363 10.4824C126.331 10.7376 126.303 10.9928 126.277 11.248C126.256 11.5033 126.235 11.7689 126.214 12.0449C126.193 12.3158 126.17 12.6048 126.144 12.9121C126.123 13.2142 126.097 13.5449 126.066 13.9043L125.722 18.0215C125.717 18.0684 125.706 18.1152 125.691 18.1621C125.68 18.2038 125.647 18.2376 125.589 18.2637C125.584 18.2637 125.553 18.2741 125.495 18.2949C125.438 18.3158 125.363 18.3444 125.269 18.3809C125.175 18.4121 125.066 18.446 124.941 18.4824C124.816 18.5189 124.683 18.5527 124.542 18.584C124.308 18.6361 124.102 18.6882 123.925 18.7402C123.753 18.7923 123.6 18.8392 123.464 18.8809C123.329 18.9277 123.204 18.9642 123.089 18.9902C122.975 19.0163 122.86 19.0293 122.745 19.0293C122.667 19.0293 122.602 19.0085 122.55 18.9668C122.498 18.9251 122.472 18.8496 122.472 18.7402Z" fill="url(#paint1_linear)"/>
    <defs>
    <linearGradient id="paint1_linear" x1="106.714" y1="25.4902" x2="106.714" y2="0.490234" gradientUnits="userSpaceOnUse">
    <stop stop-color="#1579FF"/>
    <stop offset="1" stop-color="#157BFF"/>
    </linearGradient>
    </defs>
    </svg>
    