<svg width="9" height="27" viewBox="0 0 9 27" fill="none" xmlns="http://www.w3.org/2000/svg">
<path d="M7.66954 23.3491C6.65429 23.3977 5.65609 23.0787 4.86342 22.4523C4.0958 21.7812 3.67536 20.784 3.58936 19.4827C3.58936 19.4639 3.58936 19.4451 3.58936 19.4263L3.76455 7.2345C3.71359 5.9802 3.68492 5.72934 3.67855 5.6823C3.65753 5.47544 3.56538 5.28184 3.41737 5.13355C3.26766 5.01753 2.70071 4.70395 0.993467 4.70395H0.960041C0.514097 4.70395 0.152588 4.34244 0.152588 3.8965C0.152588 3.45056 0.514097 3.08905 0.960041 3.08905H0.977542C2.69115 3.07337 3.81233 3.33363 4.49713 3.90747C4.94429 4.30431 5.23429 4.84421 5.31572 5.43145C5.33801 5.57883 5.36986 5.89867 5.42083 7.19687V7.24077L5.24883 19.4169C5.30298 20.2572 5.53868 20.8687 5.95275 21.2324C6.46539 21.6048 7.09862 21.7799 7.73324 21.7248H7.75716C8.20284 21.7248 8.56559 22.0833 8.57083 22.5289C8.57615 22.982 8.20868 23.3522 7.75554 23.3522L7.66954 23.3491Z" fill="#00CCFF"/>
<path d="M8.57094 18.0428C8.57094 18.4984 8.2016 18.8678 7.74599 18.8678C7.29038 18.8678 6.92103 18.4984 6.92103 18.0428V6.77007C6.92103 4.93566 6.48148 3.60924 5.58327 2.81903C4.68506 2.02882 3.14344 1.62745 0.983912 1.62745H0.966313C0.516905 1.62745 0.152588 1.26313 0.152588 0.813725C0.152588 0.364317 0.516905 0 0.966313 0H0.983912C3.60211 0 5.4686 0.526805 6.68533 1.60864C7.90206 2.69047 8.59642 4.45902 8.57094 6.7732V18.0428Z" fill="#6633FF"/>
<path d="M7.71732 26.5163C7.71732 26.5111 7.71304 26.5069 7.70785 26.5069C5.31085 26.5055 3.4635 25.9756 2.21657 24.939C0.837395 23.7631 0.152588 22.0165 0.152588 19.7337V8.46889C0.152588 8.01064 0.524071 7.63916 0.982319 7.63916C1.44057 7.63916 1.81205 8.01064 1.81205 8.46889V19.7557C1.81205 21.5681 2.28345 22.8601 3.28996 23.713C4.24551 24.5095 5.76164 24.9234 7.79695 24.8983H7.81136C8.26077 24.8983 8.62509 25.2626 8.62509 25.712V26.0718C8.62509 26.3225 8.42188 26.5257 8.1712 26.5257H7.72673C7.72153 26.5257 7.71732 26.5215 7.71732 26.5163Z" fill="#00CCCC"/>
</svg>
