<svg width="1583" height="782" viewBox="0 0 1583 782" fill="none" xmlns="http://www.w3.org/2000/svg">
<g filter="url(#filter0_f)">
<path d="M1088.65 230.659C1155.53 209.425 1232.43 228.931 1277.27 283.713L1349.3 371.712C1403.02 437.345 1391.08 529.628 1323.7 582H1106.99C1100.5 576.936 1094.36 571.36 1088.65 565.28V230.659Z" fill="url(#paint0_wtfbg)" fill-opacity="0.3"/>
<path d="M1005.87 582V486.939L839.14 283.243C783.473 215.233 678.385 201.592 604.417 252.775C530.45 303.958 515.613 400.583 571.28 468.594L664.104 582H1005.87Z" fill="url(#paint1_wtfbg)" fill-opacity="0.3"/>
<path d="M1005.87 288.141V464.567C964.761 410.464 966.571 339.871 1005.87 288.141Z" fill="url(#paint2_wtfbg)" fill-opacity="0.3"/>
<path d="M645.928 582L452.428 345.593V582H645.928Z" fill="url(#paint3_wtfbg)" fill-opacity="0.3"/>
<path d="M226.358 582H369.643V246.511C311.659 191.707 217.023 183.802 148.836 230.986C74.8688 282.169 60.0336 378.794 115.7 446.804L226.358 582Z" fill="url(#paint4_wtfbg)" fill-opacity="0.3"/>
</g>
<defs>
<filter id="filter0_f" x="-118" y="0" width="1701" height="782" filterUnits="userSpaceOnUse" color-interpolation-filters="sRGB">
<feFlood flood-opacity="0" result="BackgroundImageFix"/>
<feBlend mode="normal" in="SourceGraphic" in2="BackgroundImageFix" result="shape"/>
<feGaussianBlur stdDeviation="100" result="effect1_foregroundBlur"/>
</filter>
<linearGradient id="paint0_wtfbg" x1="1199.03" y1="453.022" x2="280.725" y2="453.022" gradientUnits="userSpaceOnUse">
<stop stop-color="#FCB604"/>
<stop offset="0.447917" stop-color="#03A14B"/>
<stop offset="1" stop-color="#0C6CFE"/>
</linearGradient>
<linearGradient id="paint1_wtfbg" x1="1199.03" y1="453.022" x2="280.725" y2="453.022" gradientUnits="userSpaceOnUse">
<stop stop-color="#FCB604"/>
<stop offset="0.447917" stop-color="#03A14B"/>
<stop offset="1" stop-color="#0C6CFE"/>
</linearGradient>
<linearGradient id="paint2_wtfbg" x1="1199.03" y1="453.022" x2="280.725" y2="453.022" gradientUnits="userSpaceOnUse">
<stop stop-color="#FCB604"/>
<stop offset="0.447917" stop-color="#03A14B"/>
<stop offset="1" stop-color="#0C6CFE"/>
</linearGradient>
<linearGradient id="paint3_wtfbg" x1="1199.03" y1="453.022" x2="280.725" y2="453.022" gradientUnits="userSpaceOnUse">
<stop stop-color="#FCB604"/>
<stop offset="0.447917" stop-color="#03A14B"/>
<stop offset="1" stop-color="#0C6CFE"/>
</linearGradient>
<linearGradient id="paint4_wtfbg" x1="1199.03" y1="453.022" x2="280.725" y2="453.022" gradientUnits="userSpaceOnUse">
<stop stop-color="#FCB604"/>
<stop offset="0.447917" stop-color="#03A14B"/>
<stop offset="1" stop-color="#0C6CFE"/>
</linearGradient>
</defs>
</svg>
