<svg width="305" height="366" viewBox="0 0 305 366" fill="none" xmlns="http://www.w3.org/2000/svg">
<g filter="url(#filter0_f)">
<path d="M143.082 71.2914C142.761 77.4061 137.899 83.1933 129.134 87.6559C127.101 88.7053 124.85 89.6617 122.399 90.5356C120.397 91.2542 118.254 91.9057 115.987 92.5004L115.986 92.5154C114.458 92.9201 112.881 93.2933 111.239 93.6247C111.035 93.6646 110.829 93.7064 110.623 93.7484C110.216 93.8312 109.805 93.9148 109.392 93.9866C107.137 94.4098 104.854 94.7688 102.527 95.0532L103.23 81.1798C105.541 80.8849 107.84 80.5363 110.095 80.1131C110.293 80.0743 110.493 80.0367 110.694 79.9989C111.108 79.9209 111.526 79.8421 111.942 79.7512C113.578 79.4211 115.149 79.0494 116.672 78.6465L116.673 78.6314C118.946 78.0355 121.095 77.3826 123.102 76.6622C125.553 75.7883 127.804 74.8319 129.837 73.7824C138.596 69.3527 143.468 63.5587 143.784 57.4427L143.082 71.2914Z" fill="url(#wtfcoinbg1)"/>
<path d="M95.0029 95.744C92.0651 95.9371 89.1143 96.0066 86.1458 95.9955C81.8787 95.9595 77.6135 95.7404 73.4205 95.3367L74.1235 81.4632C78.306 81.8833 82.5711 82.1025 86.8487 82.1223C89.8066 82.1496 92.7681 82.0637 95.7059 81.8705C98.2458 81.7223 100.741 81.4995 103.23 81.1798L102.527 95.0532C100.049 95.3566 97.5265 95.5853 95.0029 95.744Z" fill="url(#wtfcoinbg111)"/>
<path d="M50.3695 76.8552L50.3698 76.8498C57.6609 79.0776 65.7644 80.6497 74.1131 81.4794L73.4101 95.3529C65.0514 94.5134 56.9702 92.9535 49.6834 90.7283L49.6831 90.7338C45.9885 89.5885 42.485 88.2889 39.2695 86.8278L39.9725 72.9543C43.1832 74.4132 46.6647 75.7007 50.3695 76.8552Z" fill="url(#paint2wtfcoinbg1)"/>
<path d="M20.0943 51.1728L19.3913 65.0463C19.3662 65.4454 19.3679 65.8386 19.3965 66.2259L20.0994 52.3525C20.0813 51.9488 20.0796 51.5556 20.0943 51.1728Z" fill="url(#paint3wtfcoinbg1)"/>
<path d="M20.0994 52.3525L19.3965 66.2259C19.4603 67.6739 19.7834 69.1493 20.3536 70.5989C20.8279 71.8024 21.4689 72.9975 22.3037 74.1784C23.0576 75.2582 23.9662 76.3459 25.0296 77.4415L25.0293 77.4475C25.6767 78.093 26.3835 78.7536 27.144 79.4025C27.6253 79.8032 28.1066 80.2039 28.6147 80.5988C30.0024 81.6726 31.5347 82.7009 33.1626 83.652L33.8655 69.7785C32.2481 68.8111 30.7158 67.7829 29.3176 66.7254C28.8095 66.3305 28.3178 65.9461 27.847 65.529C27.0926 64.8854 26.4071 64.2405 25.7484 63.5899L25.7486 63.5845C24.6678 62.4997 23.7538 61.4065 23.0066 60.3049C22.1719 59.1241 21.5308 57.929 21.0565 56.7255C20.4699 55.2654 20.1633 53.8004 20.0994 52.3525Z" fill="url(#paint4wtfcoinbg1)"/>
<path d="M33.1626 83.652L33.8655 69.7785C35.7714 70.9077 37.7997 71.9538 39.9562 72.9437L39.2533 86.8172C37.0967 85.8272 35.0521 84.7706 33.1626 83.652Z" fill="url(#paint5wtfcoinbg1)"/>
<g filter="url(#filter1_i)">
<path d="M19.9869 52.2428C20.7645 36.9678 49.0782 25.9942 83.2274 27.7325C117.377 29.4709 144.43 43.2629 143.652 58.5379C142.874 73.813 114.561 84.7866 80.4116 83.0482C46.2624 81.3099 19.2094 67.5178 19.9869 52.2428Z" fill="url(#paint6wtfcoinbg1)"/>
</g>
<path d="M34.8591 46.4734C31.013 52.1507 32.311 58.4031 38.5172 64.0874C44.7233 69.7718 55.0711 74.2123 67.6821 76.5973C80.2767 78.9717 93.6369 78.9998 105.268 76.6511C116.889 74.3188 125.412 69.9091 129.258 64.2318C133.094 58.5708 131.796 52.3184 125.6 46.6177C119.394 40.9334 109.046 36.4928 96.4355 34.1079C83.8304 31.7497 70.4701 31.7217 58.8494 34.054C47.2182 36.4027 38.7053 40.796 34.8591 46.4734ZM68.2433 75.7575C56.1354 73.4874 46.1892 69.212 40.2296 63.7548C34.27 58.2977 33.0248 52.2867 36.7079 46.8278C40.4073 41.3794 48.5891 37.1429 59.7537 34.9104C70.9288 32.6615 83.75 32.667 95.8638 34.9639C107.972 37.2341 117.918 41.5095 123.877 46.9666C129.837 52.4238 131.082 58.4347 127.399 63.8936C123.716 69.3525 115.518 73.5786 104.353 75.8111C93.1782 78.06 80.3512 78.0277 68.2433 75.7575Z" fill="url(#paint7wtfcoinbg1)"/>
<path d="M99.0968 51.0469C99.9003 52.3029 99.959 53.2802 99.3079 53.8855C98.8195 54.3395 97.9588 54.6541 96.9467 54.806C96.7257 54.8294 96.1557 54.9344 93.8174 55.2266L71.7839 57.3802C70.3298 57.5788 69.2829 57.8238 68.8876 58.3126C68.5272 58.7084 68.4461 59.2087 68.7139 59.6274C68.807 59.6622 68.7721 59.7553 68.8652 59.7902L69.2495 60.4647L66.283 60.734L65.8987 60.0595L65.8056 60.0246C65.7125 59.9898 65.7474 59.8967 65.6543 59.8618C65.1769 59.1524 65.2695 58.338 65.9555 57.6396C66.7694 56.8829 68.3281 56.405 70.6663 56.1128L70.7594 56.1476L92.7581 54.0871C94.9684 53.8532 95.4453 53.7133 95.5384 53.7481C95.8874 53.6665 96.2363 53.5848 96.3991 53.4335C96.5619 53.2822 96.8641 52.7584 95.9675 51.4676L95.5832 50.7931L98.4566 50.4889L99.0968 51.0469C99.0037 51.0121 99.0037 51.0121 99.0968 51.0469Z" fill="white" fill-opacity="0.8"/>
<path d="M104.53 50.4272C105.776 52.4857 105.812 54.0911 104.416 55.267C103.021 56.4428 100.252 57.317 96.0529 57.7616L74.2986 60.0197L73.53 58.6706L95.2842 56.4125C98.5997 56.0615 100.728 55.4786 101.798 54.6054C102.775 53.6974 102.728 52.406 101.656 50.7314L101.272 50.0568L104.239 49.7875L104.53 50.4272Z" fill="white" fill-opacity="0.8"/>
<path d="M91.2446 52.459L69.4904 54.7171C66.1749 55.068 64.1394 55.6858 63.0347 56.6521C62.058 57.5601 62.047 58.7235 63.0601 60.2703L63.1183 60.3982L63.5026 61.0727L60.5361 61.3421L60.0587 60.6327C58.964 58.737 59.0213 57.1664 60.2305 55.9208C61.6607 54.6519 64.4291 53.7777 68.6287 53.3331L90.3829 51.075L91.2446 52.459Z" fill="white" fill-opacity="0.8"/>
</g>
<g filter="url(#filter2_f)">
<path d="M142.688 71.1434C147.601 74.7973 149.726 82.0512 148.586 91.8205C148.333 94.0948 147.883 96.4984 147.253 99.0234C146.742 101.088 146.097 103.233 145.337 105.45L145.349 105.459C144.839 106.955 144.276 108.475 143.643 110.026C143.563 110.218 143.484 110.412 143.404 110.607C143.248 110.992 143.09 111.38 142.921 111.764C142.024 113.876 141.059 115.975 140.006 118.07L128.845 109.8C129.88 107.713 130.863 105.605 131.76 103.494C131.837 103.307 131.917 103.12 131.996 102.932C132.161 102.544 132.327 102.152 132.481 101.756C133.113 100.211 133.674 98.6964 134.182 97.2055L134.17 97.1965C134.933 94.9738 135.579 92.8234 136.091 90.7533C136.722 88.2283 137.172 85.8246 137.425 83.5503C138.589 73.8042 136.463 66.5389 131.546 62.888L142.688 71.1434Z" fill="url(#paint8wtfcoinbg1)"/>
<path d="M136.413 124.717C134.947 127.27 133.37 129.765 131.717 132.231C129.323 135.763 126.778 139.193 124.119 142.46L112.958 134.19C115.625 130.941 118.17 127.511 120.556 123.961C122.217 121.513 123.786 119 125.252 116.447C126.536 114.25 127.733 112.049 128.845 109.8L140.006 118.07C138.886 120.302 137.679 122.528 136.413 124.717Z" fill="url(#paint9wtfcoinbg1)"/>
<path d="M95.9637 151.414L95.9593 151.411C101.853 146.575 107.651 140.699 112.966 134.208L124.127 142.478C118.798 148.972 113.023 154.836 107.134 159.67L107.138 159.674C104.138 162.115 101.115 164.312 98.1179 166.18L86.9567 157.91C89.9498 156.045 92.9503 153.859 95.9637 151.414Z" fill="url(#paint10wtfcoinbg1)"/>
<path d="M57.8111 162.394L68.9722 170.664C69.2906 170.906 69.6189 171.123 69.9572 171.314L58.7961 163.043C58.45 162.835 58.1216 162.618 57.8111 162.394Z" fill="url(#paint11wtfcoinbg1)"/>
<path d="M58.7961 163.043L69.9572 171.314C71.1981 172.062 72.6054 172.611 74.1282 172.939C75.3929 173.211 76.743 173.339 78.1886 173.298C79.5051 173.269 80.9141 173.115 82.4153 172.836L82.4201 172.84C83.3161 172.658 84.2576 172.436 85.2191 172.162C85.8194 171.983 86.4196 171.805 87.0298 171.6C88.6926 171.04 90.3974 170.334 92.091 169.505L80.9298 161.235C79.2285 162.046 77.5236 162.752 75.8687 163.33C75.2585 163.535 74.666 163.731 74.058 163.892C73.1043 164.163 72.1876 164.377 71.2811 164.565L71.2767 164.562C69.7749 164.861 68.3584 165.016 67.0274 165.028C65.5819 165.069 64.2318 164.941 62.9671 164.669C61.4265 164.348 60.037 163.792 58.7961 163.043Z" fill="url(#paint12wtfcoinbg1)"/>
<path d="M92.091 169.505L80.9298 161.235C82.9256 160.274 84.9201 159.165 86.9389 157.917L98.1 166.188C96.0812 167.435 94.069 168.552 92.091 169.505Z" fill="url(#paint13wtfcoinbg1)"/>
<g filter="url(#filter3_i)">
<path d="M58.6424 163.076C46.3557 153.967 52.9033 124.316 73.2668 96.8473C93.6303 69.3789 120.099 54.4954 132.385 63.604C144.672 72.7127 138.124 102.364 117.761 129.833C97.3974 157.301 70.9292 172.185 58.6424 163.076Z" fill="url(#paint14wtfcoinbg1)"/>
</g>
<path d="M62.077 147.498C64.6732 153.845 70.5978 156.228 78.7681 154.21C86.9384 152.191 96.3674 146.036 105.339 136.857C114.292 127.687 121.716 116.579 126.203 105.594C130.699 94.6275 131.749 85.0886 129.153 78.7416C126.564 72.4124 120.64 70.0297 112.461 72.0302C104.291 74.0485 94.862 80.204 85.8909 89.3823C76.9453 98.5706 69.5212 109.678 65.026 120.645C60.5386 131.63 59.4807 141.151 62.077 147.498ZM104.95 135.925C96.3535 144.748 87.2844 150.661 79.4398 152.6C71.5952 154.538 65.9009 152.246 63.3962 146.155C60.9092 140.057 61.9142 130.899 66.2399 120.367C70.5578 109.817 77.6644 99.1456 86.2869 90.3325C94.8838 81.5094 103.953 75.5968 111.798 73.6579C119.642 71.7191 125.336 74.012 127.841 80.1022C130.346 86.1925 129.323 95.3589 124.997 105.891C120.68 116.441 113.547 127.102 104.95 135.925Z" fill="url(#paint15wtfcoinbg1)"/>
<path d="M101.468 96.5497C102.958 96.5765 103.804 97.0689 103.948 97.9463C104.055 98.6044 103.84 99.4953 103.406 100.422C103.303 100.619 103.075 101.152 102.023 103.26L91.611 122.798C90.9709 124.118 90.5949 125.126 90.783 125.725C90.9128 126.245 91.2844 126.589 91.7813 126.598C91.8619 126.54 91.9201 126.621 92.0007 126.563L92.7752 126.616L91.3562 129.235L90.5817 129.182L90.5011 129.24C90.4205 129.298 90.3623 129.217 90.2817 129.276C89.4267 129.28 88.7999 128.752 88.5984 127.794C88.4193 126.697 88.8848 125.135 89.9367 123.026L90.0173 122.968L100.488 103.511C101.517 101.541 101.665 101.067 101.745 101.009C101.871 100.673 101.996 100.337 101.96 100.118C101.924 99.8983 101.656 99.3566 100.084 99.3881L99.3099 99.3344L100.648 96.7736L101.468 96.5497C101.387 96.6079 101.387 96.6079 101.468 96.5497Z" fill="white" fill-opacity="0.8"/>
<path d="M103.961 91.6833C106.365 91.7862 107.722 92.6457 107.928 94.4588C108.134 96.2718 107.328 99.0609 105.372 102.804L95.2018 122.166L93.6529 122.059L103.823 102.696C105.367 99.7415 106.061 97.6463 105.927 96.272C105.712 94.9558 104.611 94.2798 102.623 94.2441L101.848 94.1905L103.267 91.5715L103.961 91.6833Z" fill="white" fill-opacity="0.8"/>
<path d="M98.2938 103.869L88.1235 123.232C86.5792 126.187 85.966 128.224 86.1585 129.679C86.3735 130.995 87.336 131.648 89.1849 131.662L89.3237 131.684L90.0982 131.738L88.6792 134.357L87.8241 134.361C85.6395 134.223 84.3635 133.305 83.9963 131.608C83.7321 129.715 84.5378 126.926 86.494 123.183L96.6642 103.82L98.2938 103.869Z" fill="white" fill-opacity="0.8"/>
</g>
<g filter="url(#filter4_f)">
<path d="M149.978 225.602C146.14 229.738 139.282 230.96 130.446 228.94C128.388 228.481 126.231 227.828 123.98 226.998C122.14 226.324 120.239 225.519 118.284 224.601L118.275 224.611C116.955 223.995 115.619 223.328 114.261 222.592C114.093 222.5 113.923 222.408 113.753 222.316C113.416 222.134 113.076 221.951 112.741 221.757C110.896 220.725 109.069 219.63 107.255 218.457L115.947 209.058C117.756 210.215 119.588 211.326 121.433 212.359C121.596 212.448 121.76 212.54 121.924 212.631C122.263 212.821 122.605 213.012 122.953 213.193C124.305 213.926 125.637 214.591 126.952 215.206L126.961 215.195C128.921 216.117 130.827 216.924 132.672 217.6C134.922 218.429 137.079 219.082 139.137 219.541C147.95 221.581 154.818 220.36 158.654 216.22L149.978 225.602Z" fill="url(#paint16wtfcoinbg1)"/>
<path d="M101.525 214.501C99.3324 212.903 97.204 211.209 95.1107 209.448C92.1135 206.902 89.2257 204.228 86.4981 201.466L95.1897 192.067C97.9002 194.835 100.788 197.509 103.802 200.049C105.878 201.816 108.024 203.504 110.216 205.103C112.1 206.498 113.997 207.814 115.947 209.058L107.255 218.457C105.323 217.208 103.403 215.88 101.525 214.501Z" fill="url(#paint17wtfcoinbg1)"/>
<path d="M81.1082 174.777L81.1116 174.774C84.9534 180.656 89.7571 186.554 95.1728 192.072L86.4812 201.471C81.0643 195.94 76.2691 190.064 72.4288 184.186L72.4253 184.189C70.4883 181.197 68.7776 178.208 67.366 175.275L76.0576 165.877C77.4671 168.805 79.1694 171.772 81.1082 174.777Z" fill="url(#paint18wtfcoinbg1)"/>
<path d="M74.8612 138.728L66.1696 148.127C65.9162 148.394 65.6851 148.673 65.4765 148.964L74.1681 139.565C74.3937 139.269 74.6248 138.99 74.8612 138.728Z" fill="url(#paint19wtfcoinbg1)"/>
<path d="M74.1681 139.565L65.4765 148.964C64.6665 150.026 64.0236 151.261 63.5708 152.623C63.1954 153.754 62.9429 154.978 62.836 156.307C62.7314 157.516 62.7317 158.822 62.8369 160.225L62.8332 160.229C62.9098 161.068 63.0196 161.953 63.1743 162.861C63.2781 163.429 63.3819 163.996 63.5081 164.576C63.8555 166.155 64.332 167.788 64.9218 169.422L73.6134 160.023C73.0407 158.384 72.564 156.751 72.1996 155.177C72.0734 154.598 71.9526 154.035 71.8659 153.462C71.7124 152.561 71.6084 151.7 71.5267 150.851L71.5301 150.847C71.4062 149.442 71.4054 148.129 71.5275 146.908C71.6345 145.58 71.8869 144.356 72.2622 143.224C72.7097 141.845 73.358 140.627 74.1681 139.565Z" fill="url(#paint20wtfcoinbg1)"/>
<path d="M64.9218 169.422L73.6134 160.023C74.2946 161.948 75.1115 163.886 76.0523 165.86L67.3608 175.258C66.42 173.284 65.5977 171.329 64.9218 169.422Z" fill="url(#paint21wtfcoinbg1)"/>
<g filter="url(#filter5_i)">
<path d="M74.1538 139.421C83.726 129.075 110.236 138.036 133.366 159.436C156.496 180.836 167.487 206.571 157.914 216.917C148.342 227.263 121.832 218.302 98.7022 196.902C75.5723 175.503 64.5817 149.768 74.1538 139.421Z" fill="url(#paint22wtfcoinbg1)"/>
</g>
<path d="M88.0813 144.124C82.0073 145.869 79.2325 151.058 80.2652 158.745C81.2979 166.432 85.995 175.685 93.5071 184.82C101.014 193.939 110.448 201.85 120.063 207.058C129.661 212.272 138.295 214.187 144.369 212.443C150.426 210.704 153.201 205.514 152.185 197.822C151.152 190.136 146.455 180.883 138.943 171.747C131.419 162.634 121.985 154.723 112.387 149.509C102.772 144.3 94.1552 142.38 88.0813 144.124ZM94.4001 184.558C87.176 175.8 82.6655 166.901 81.673 159.521C80.6805 152.141 83.35 147.153 89.1797 145.467C95.0147 143.798 103.305 145.634 112.521 150.649C121.754 155.659 130.821 163.235 138.033 172.015C145.257 180.772 149.768 189.671 150.76 197.052C151.753 204.432 149.083 209.42 143.253 211.106C137.424 212.792 129.129 210.939 119.912 205.924C110.679 200.914 101.624 193.315 94.4001 184.558Z" fill="url(#paint23wtfcoinbg1)"/>
<path d="M130.821 185.301C130.648 186.664 130.112 187.39 129.294 187.434C128.68 187.467 127.885 187.181 127.08 186.69C126.91 186.576 126.444 186.314 124.618 185.14L107.76 173.649C106.614 172.931 105.728 172.486 105.16 172.598C104.671 172.665 104.318 172.971 104.261 173.425C104.306 173.505 104.226 173.55 104.272 173.63L104.145 174.334L101.887 172.772L102.014 172.068L101.969 171.989C101.923 171.909 102.003 171.864 101.958 171.784C102.039 171 102.586 170.479 103.483 170.39C104.506 170.335 105.891 170.918 107.718 172.092L107.763 172.172L124.541 183.708C126.243 184.848 126.663 185.031 126.708 185.11C127.004 185.259 127.299 185.407 127.503 185.396C127.708 185.385 128.231 185.193 128.359 183.751L128.486 183.046L130.698 184.528L130.821 185.301C130.776 185.222 130.776 185.222 130.821 185.301Z" fill="white" fill-opacity="0.8"/>
<path d="M135.03 188.072C134.696 190.264 133.773 191.421 132.091 191.428C130.41 191.436 127.935 190.419 124.702 188.253L107.979 177.001L108.233 175.593L124.955 186.845C127.507 188.555 129.358 189.4 130.63 189.414C131.857 189.349 132.587 188.407 132.818 186.59L132.944 185.886L135.202 187.447L135.03 188.072Z" fill="white" fill-opacity="0.8"/>
<path d="M124.432 181.662L107.71 170.411C105.157 168.701 103.353 167.935 102 167.966C100.773 168.032 100.078 168.848 99.8813 170.541L99.8469 170.666L99.7204 171.37L97.4628 169.808L97.5441 169.024C97.8894 167.037 98.8576 165.96 100.449 165.793C102.21 165.74 104.685 166.757 107.918 168.923L124.64 180.174L124.432 181.662Z" fill="white" fill-opacity="0.8"/>
</g>
<g filter="url(#filter6_f)">
<path d="M282.442 223.824C285.8 234.095 281.472 246.713 269.877 259.631C267.196 262.651 264.098 265.656 260.618 268.652C257.778 271.108 254.664 273.542 251.31 275.962L251.318 275.987C249.06 277.624 246.7 279.241 244.207 280.83C243.896 281.026 243.584 281.225 243.271 281.425C242.654 281.82 242.031 282.219 241.396 282.6C237.953 284.729 234.422 286.771 230.771 288.718L223.112 265.43C226.73 263.476 230.294 261.441 233.737 259.311C234.039 259.121 234.344 258.933 234.651 258.743C235.283 258.351 235.921 257.956 236.548 257.542C239.032 255.959 241.383 254.348 243.634 252.717L243.625 252.692C246.99 250.266 250.112 247.826 252.959 245.364C256.439 242.367 259.537 239.362 262.218 236.342C273.824 223.483 278.162 210.848 274.796 200.578L282.442 223.824Z" fill="url(#paint24wtfcoinbg1)"/>
<path d="M218.822 294.637C214.108 296.822 209.294 298.812 204.4 300.68C197.351 303.332 190.19 305.682 183.03 307.682L175.371 284.394C182.524 282.427 189.685 280.078 196.741 277.392C201.628 275.557 206.449 273.534 211.163 271.349C215.251 269.491 219.218 267.538 223.112 265.43L230.771 288.718C226.884 290.792 222.877 292.772 218.822 294.637Z" fill="url(#paint25wtfcoinbg1)"/>
<path d="M133.334 291.902L133.331 291.893C146.751 290.928 161.091 288.366 175.364 284.427L183.023 307.715C168.728 311.645 154.431 314.212 141.02 315.179L141.023 315.188C134.212 315.651 127.618 315.737 121.396 315.375L113.737 292.087C119.95 292.449 126.5 292.356 133.334 291.902Z" fill="url(#paint26wtfcoinbg1)"/>
<path d="M67.1671 268.858L74.8261 292.146C75.0384 292.819 75.2911 293.465 75.5843 294.085L67.9252 270.797C67.6389 270.144 67.3862 269.497 67.1671 268.858Z" fill="url(#paint27wtfcoinbg1)"/>
<path d="M67.9252 270.797L75.5843 294.085C76.6096 296.428 78.079 298.652 79.9391 300.676C81.4847 302.356 83.2997 303.917 85.4245 305.33C87.3518 306.629 89.5391 307.843 91.9862 308.971L91.9895 308.981C93.4655 309.632 95.0491 310.271 96.7135 310.856C97.7606 311.209 98.8077 311.563 99.8952 311.891C102.862 312.777 106.039 313.496 109.323 314.027L101.664 290.739C98.3863 290.174 95.2101 289.455 92.2361 288.602C91.1486 288.275 90.0947 287.955 89.0545 287.567C87.4034 286.987 85.865 286.361 84.367 285.708L84.364 285.699C81.8951 284.6 79.6956 283.381 77.7654 282.042C75.6406 280.629 73.8257 279.068 72.28 277.388C70.3864 275.357 68.9505 273.14 67.9252 270.797Z" fill="url(#paint28wtfcoinbg1)"/>
<path d="M109.323 314.027L101.664 290.739C105.519 291.387 109.524 291.82 113.703 292.08L121.362 315.368C117.183 315.109 113.145 314.668 109.323 314.027Z" fill="url(#paint29wtfcoinbg1)"/>
<g filter="url(#filter7_i)">
<path d="M67.6699 270.687C59.243 245.044 98.8857 208.983 156.214 190.144C213.543 171.305 266.848 176.82 275.275 202.464C283.702 228.107 244.059 264.167 186.731 283.006C129.402 301.846 76.0967 296.33 67.6699 270.687Z" fill="url(#paint30wtfcoinbg1)"/>
</g>
<path d="M88.4893 251.737C85.7648 263.529 91.8753 272.998 105.705 278.413C119.536 283.828 139.394 284.563 161.673 280.475C183.918 276.381 205.932 267.937 223.59 256.679C241.24 245.454 252.471 232.777 255.195 220.986C257.913 209.228 251.803 199.759 237.979 194.31C224.149 188.895 204.29 188.16 182.012 192.248C159.76 196.375 137.745 204.82 120.095 216.044C102.438 227.303 91.2138 239.946 88.4893 251.737ZM162.063 278.736C140.686 282.693 121.593 281.975 108.314 276.777C95.0336 271.58 89.1635 262.474 91.7584 251.146C94.3868 239.825 105.165 227.65 122.128 216.88C139.098 206.075 160.21 197.937 181.614 194.02C202.992 190.064 222.084 190.782 235.364 195.979C248.644 201.177 254.514 210.282 251.919 221.61C249.325 232.939 238.513 245.106 221.55 255.877C204.58 266.681 183.441 274.779 162.063 278.736Z" fill="url(#paint31wtfcoinbg1)"/>
<path d="M197.158 218.445C199.279 220.002 199.996 221.574 199.309 222.984C198.794 224.042 197.576 225.107 196.007 226C195.658 226.179 194.786 226.715 191.122 228.682L156.214 246.229C153.946 247.48 152.378 248.549 152.038 249.605C151.696 250.486 151.88 251.361 152.587 251.88C152.763 251.878 152.765 252.054 152.94 252.052L154.001 252.918L149.288 255.247L148.227 254.38L148.052 254.382C147.876 254.384 147.874 254.209 147.699 254.21C146.462 253.346 146.097 251.946 146.783 250.36C147.642 248.597 149.904 246.82 153.568 244.853L153.744 244.851L188.653 227.479C192.144 225.689 192.84 225.155 193.016 225.154C193.538 224.797 194.061 224.441 194.233 224.089C194.405 223.736 194.569 222.682 192.273 221.126L191.211 220.26L195.749 217.933L197.158 218.445C196.982 218.447 196.982 218.447 197.158 218.445Z" fill="white" fill-opacity="0.8"/>
<path d="M205.709 213.972C209.068 216.569 210.148 219.19 208.597 222.013C207.047 224.835 203.045 228.034 196.413 231.435L162.032 248.977L159.909 247.244L194.29 229.702C199.526 227.017 202.66 224.705 203.867 222.587C204.898 220.471 203.999 218.375 201.171 216.299L200.11 215.433L204.823 213.104L205.709 213.972Z" fill="white" fill-opacity="0.8"/>
<path d="M185.128 225.76L150.746 243.302C145.51 245.987 142.551 248.298 141.347 250.591C140.316 252.706 141.037 254.629 143.688 256.532L143.865 256.705L144.927 257.572L140.214 259.9L138.977 259.036C135.97 256.61 135.066 253.988 136.265 251.169C137.814 248.171 141.816 244.972 148.448 241.571L182.829 224.029L185.128 225.76Z" fill="white" fill-opacity="0.8"/>
</g>
<defs>
<filter id="filter0_f" x="9.37354" y="17.5515" width="144.41" height="88.4452" filterUnits="userSpaceOnUse" color-interpolation-filters="sRGB">
<feFlood flood-opacity="0" result="BackgroundImageFix"/>
<feBlend mode="normal" in="SourceGraphic" in2="BackgroundImageFix" result="shape"/>
<feGaussianBlur stdDeviation="5" result="effect1_foregroundBlur"/>
</filter>
<filter id="filter1_i" x="19.9707" y="27.5515" width="123.698" height="55.6779" filterUnits="userSpaceOnUse" color-interpolation-filters="sRGB">
<feFlood flood-opacity="0" result="BackgroundImageFix"/>
<feBlend mode="normal" in="SourceGraphic" in2="BackgroundImageFix" result="shape"/>
<feColorMatrix in="SourceAlpha" type="matrix" values="0 0 0 0 0 0 0 0 0 0 0 0 0 0 0 0 0 0 127 0" result="hardAlpha"/>
<feOffset/>
<feGaussianBlur stdDeviation="4.95208"/>
<feComposite in2="hardAlpha" operator="arithmetic" k2="-1" k3="1"/>
<feColorMatrix type="matrix" values="0 0 0 0 0.710661 0 0 0 0 0.753378 0 0 0 0 0.979167 0 0 0 0.5 0"/>
<feBlend mode="normal" in2="shape" result="effect1_innerShadow"/>
</filter>
<filter id="filter2_f" x="44.4443" y="52.9265" width="112.443" height="128.379" filterUnits="userSpaceOnUse" color-interpolation-filters="sRGB">
<feFlood flood-opacity="0" result="BackgroundImageFix"/>
<feBlend mode="normal" in="SourceGraphic" in2="BackgroundImageFix" result="shape"/>
<feGaussianBlur stdDeviation="4" result="effect1_foregroundBlur"/>
</filter>
<filter id="filter3_i" x="52.4443" y="60.9265" width="86.1391" height="104.827" filterUnits="userSpaceOnUse" color-interpolation-filters="sRGB">
<feFlood flood-opacity="0" result="BackgroundImageFix"/>
<feBlend mode="normal" in="SourceGraphic" in2="BackgroundImageFix" result="shape"/>
<feColorMatrix in="SourceAlpha" type="matrix" values="0 0 0 0 0 0 0 0 0 0 0 0 0 0 0 0 0 0 127 0" result="hardAlpha"/>
<feOffset/>
<feGaussianBlur stdDeviation="4.95208"/>
<feComposite in2="hardAlpha" operator="arithmetic" k2="-1" k3="1"/>
<feColorMatrix type="matrix" values="0 0 0 0 0.710661 0 0 0 0 0.753378 0 0 0 0 0.979167 0 0 0 0.5 0"/>
<feBlend mode="normal" in2="shape" result="effect1_innerShadow"/>
</filter>
<filter id="filter4_f" x="58.7578" y="131.121" width="106.613" height="102.773" filterUnits="userSpaceOnUse" color-interpolation-filters="sRGB">
<feFlood flood-opacity="0" result="BackgroundImageFix"/>
<feBlend mode="normal" in="SourceGraphic" in2="BackgroundImageFix" result="shape"/>
<feGaussianBlur stdDeviation="2" result="effect1_foregroundBlur"/>
</filter>
<filter id="filter5_i" x="70.6973" y="135.121" width="90.6738" height="86.0969" filterUnits="userSpaceOnUse" color-interpolation-filters="sRGB">
<feFlood flood-opacity="0" result="BackgroundImageFix"/>
<feBlend mode="normal" in="SourceGraphic" in2="BackgroundImageFix" result="shape"/>
<feColorMatrix in="SourceAlpha" type="matrix" values="0 0 0 0 0 0 0 0 0 0 0 0 0 0 0 0 0 0 127 0" result="hardAlpha"/>
<feOffset/>
<feGaussianBlur stdDeviation="4.5636"/>
<feComposite in2="hardAlpha" operator="arithmetic" k2="-1" k3="1"/>
<feColorMatrix type="matrix" values="0 0 0 0 0.710661 0 0 0 0 0.753378 0 0 0 0 0.979167 0 0 0 0.5 0"/>
<feBlend mode="normal" in2="shape" result="effect1_innerShadow"/>
</filter>
<filter id="filter6_f" x="64.5405" y="176.957" width="221.006" height="140.643" filterUnits="userSpaceOnUse" color-interpolation-filters="sRGB">
<feFlood flood-opacity="0" result="BackgroundImageFix"/>
<feBlend mode="normal" in="SourceGraphic" in2="BackgroundImageFix" result="shape"/>
<feGaussianBlur stdDeviation="1" result="effect1_foregroundBlur"/>
</filter>
<filter id="filter7_i" x="66.5405" y="178.957" width="209.864" height="115.237" filterUnits="userSpaceOnUse" color-interpolation-filters="sRGB">
<feFlood flood-opacity="0" result="BackgroundImageFix"/>
<feBlend mode="normal" in="SourceGraphic" in2="BackgroundImageFix" result="shape"/>
<feColorMatrix in="SourceAlpha" type="matrix" values="0 0 0 0 0 0 0 0 0 0 0 0 0 0 0 0 0 0 127 0" result="hardAlpha"/>
<feOffset/>
<feGaussianBlur stdDeviation="8.73947"/>
<feComposite in2="hardAlpha" operator="arithmetic" k2="-1" k3="1"/>
<feColorMatrix type="matrix" values="0 0 0 0 0.710661 0 0 0 0 0.753378 0 0 0 0 0.979167 0 0 0 0.5 0"/>
<feBlend mode="normal" in2="shape" result="effect1_innerShadow"/>
</filter>
<linearGradient id="wtfcoinbg1" x1="126.95" y1="85.7382" x2="26.9289" y2="73.3956" gradientUnits="userSpaceOnUse">
<stop stop-color="#1460CE"/>
<stop offset="0.53191" stop-color="#A9F8F8"/>
<stop offset="1" stop-color="#0ED4FF"/>
</linearGradient>
<linearGradient id="wtfcoinbg111" x1="126.95" y1="85.7382" x2="26.9289" y2="73.3956" gradientUnits="userSpaceOnUse">
<stop stop-color="#1460CE"/>
<stop offset="0.53191" stop-color="#A9F8F8"/>
<stop offset="1" stop-color="#0ED4FF"/>
</linearGradient>
<linearGradient id="paint2wtfcoinbg1" x1="126.95" y1="85.7382" x2="26.9289" y2="73.3956" gradientUnits="userSpaceOnUse">
<stop stop-color="#1460CE"/>
<stop offset="0.53191" stop-color="#A9F8F8"/>
<stop offset="1" stop-color="#0ED4FF"/>
</linearGradient>
<linearGradient id="paint3wtfcoinbg1" x1="126.95" y1="85.7382" x2="26.9289" y2="73.3956" gradientUnits="userSpaceOnUse">
<stop stop-color="#1460CE"/>
<stop offset="0.53191" stop-color="#A9F8F8"/>
<stop offset="1" stop-color="#0ED4FF"/>
</linearGradient>
<linearGradient id="paint4wtfcoinbg1" x1="126.95" y1="85.7382" x2="26.9289" y2="73.3956" gradientUnits="userSpaceOnUse">
<stop stop-color="#1460CE"/>
<stop offset="0.53191" stop-color="#A9F8F8"/>
<stop offset="1" stop-color="#0ED4FF"/>
</linearGradient>
<linearGradient id="paint5wtfcoinbg1" x1="126.95" y1="85.7382" x2="26.9289" y2="73.3956" gradientUnits="userSpaceOnUse">
<stop stop-color="#1460CE"/>
<stop offset="0.53191" stop-color="#A9F8F8"/>
<stop offset="1" stop-color="#0ED4FF"/>
</linearGradient>
<linearGradient id="paint6wtfcoinbg1" x1="81.2256" y1="82.782" x2="81.9498" y2="24.0888" gradientUnits="userSpaceOnUse">
<stop offset="0.00520833" stop-color="#00CCCC"/>
<stop offset="0.5625" stop-color="#3DA8C2"/>
<stop offset="1" stop-color="#6633FF"/>
</linearGradient>
<linearGradient id="paint7wtfcoinbg1" x1="98.9608" y1="28.9799" x2="65.1568" y2="81.7252" gradientUnits="userSpaceOnUse">
<stop stop-color="#E8E8E8" stop-opacity="0.55"/>
<stop offset="1" stop-color="#E8E8E8" stop-opacity="0"/>
</linearGradient>
<linearGradient id="paint8wtfcoinbg1" x1="145.779" y1="92.5767" x2="80.0989" y2="169.014" gradientUnits="userSpaceOnUse">
<stop stop-color="#1460CE"/>
<stop offset="0.53191" stop-color="#A9F8F8"/>
<stop offset="1" stop-color="#0ED4FF"/>
</linearGradient>
<linearGradient id="paint9wtfcoinbg1" x1="145.779" y1="92.5767" x2="80.0989" y2="169.014" gradientUnits="userSpaceOnUse">
<stop stop-color="#1460CE"/>
<stop offset="0.53191" stop-color="#A9F8F8"/>
<stop offset="1" stop-color="#0ED4FF"/>
</linearGradient>
<linearGradient id="paint10wtfcoinbg1" x1="145.779" y1="92.5767" x2="80.0989" y2="169.014" gradientUnits="userSpaceOnUse">
<stop stop-color="#1460CE"/>
<stop offset="0.53191" stop-color="#A9F8F8"/>
<stop offset="1" stop-color="#0ED4FF"/>
</linearGradient>
<linearGradient id="paint11wtfcoinbg1" x1="145.779" y1="92.5767" x2="80.0989" y2="169.014" gradientUnits="userSpaceOnUse">
<stop stop-color="#1460CE"/>
<stop offset="0.53191" stop-color="#A9F8F8"/>
<stop offset="1" stop-color="#0ED4FF"/>
</linearGradient>
<linearGradient id="paint12wtfcoinbg1" x1="145.779" y1="92.5767" x2="80.0989" y2="169.014" gradientUnits="userSpaceOnUse">
<stop stop-color="#1460CE"/>
<stop offset="0.53191" stop-color="#A9F8F8"/>
<stop offset="1" stop-color="#0ED4FF"/>
</linearGradient>
<linearGradient id="paint13wtfcoinbg1" x1="145.779" y1="92.5767" x2="80.0989" y2="169.014" gradientUnits="userSpaceOnUse">
<stop stop-color="#1460CE"/>
<stop offset="0.53191" stop-color="#A9F8F8"/>
<stop offset="1" stop-color="#0ED4FF"/>
</linearGradient>
<linearGradient id="paint14wtfcoinbg1" x1="117.99" y1="129.007" x2="69.5255" y2="95.8927" gradientUnits="userSpaceOnUse">
<stop offset="0.00520833" stop-color="#00CCCC"/>
<stop offset="0.5625" stop-color="#3DA8C2"/>
<stop offset="1" stop-color="#6633FF"/>
</linearGradient>
<linearGradient id="paint15wtfcoinbg1" x1="83.0203" y1="84.4393" x2="108.209" y2="141.8" gradientUnits="userSpaceOnUse">
<stop stop-color="#E8E8E8" stop-opacity="0.55"/>
<stop offset="1" stop-color="#E8E8E8" stop-opacity="0"/>
</linearGradient>
<linearGradient id="paint16wtfcoinbg1" x1="130.033" y1="226.293" x2="66.5701" y2="158.485" gradientUnits="userSpaceOnUse">
<stop stop-color="#1460CE"/>
<stop offset="0.53191" stop-color="#A9F8F8"/>
<stop offset="1" stop-color="#0ED4FF"/>
</linearGradient>
<linearGradient id="paint17wtfcoinbg1" x1="130.033" y1="226.293" x2="66.5701" y2="158.485" gradientUnits="userSpaceOnUse">
<stop stop-color="#1460CE"/>
<stop offset="0.53191" stop-color="#A9F8F8"/>
<stop offset="1" stop-color="#0ED4FF"/>
</linearGradient>
<linearGradient id="paint18wtfcoinbg1" x1="130.033" y1="226.293" x2="66.5701" y2="158.485" gradientUnits="userSpaceOnUse">
<stop stop-color="#1460CE"/>
<stop offset="0.53191" stop-color="#A9F8F8"/>
<stop offset="1" stop-color="#0ED4FF"/>
</linearGradient>
<linearGradient id="paint19wtfcoinbg1" x1="130.033" y1="226.293" x2="66.5701" y2="158.485" gradientUnits="userSpaceOnUse">
<stop stop-color="#1460CE"/>
<stop offset="0.53191" stop-color="#A9F8F8"/>
<stop offset="1" stop-color="#0ED4FF"/>
</linearGradient>
<linearGradient id="paint20wtfcoinbg1" x1="130.033" y1="226.293" x2="66.5701" y2="158.485" gradientUnits="userSpaceOnUse">
<stop stop-color="#1460CE"/>
<stop offset="0.53191" stop-color="#A9F8F8"/>
<stop offset="1" stop-color="#0ED4FF"/>
</linearGradient>
<linearGradient id="paint21wtfcoinbg1" x1="130.033" y1="226.293" x2="66.5701" y2="158.485" gradientUnits="userSpaceOnUse">
<stop stop-color="#1460CE"/>
<stop offset="0.53191" stop-color="#A9F8F8"/>
<stop offset="1" stop-color="#0ED4FF"/>
</linearGradient>
<linearGradient id="paint22wtfcoinbg1" x1="99.4353" y1="197.195" x2="134.615" y2="156.104" gradientUnits="userSpaceOnUse">
<stop offset="0.00520833" stop-color="#00CCCC"/>
<stop offset="0.5625" stop-color="#3DA8C2"/>
<stop offset="1" stop-color="#6633FF"/>
</linearGradient>
<linearGradient id="paint23wtfcoinbg1" x1="143.758" y1="169.611" x2="88.6919" y2="186.956" gradientUnits="userSpaceOnUse">
<stop stop-color="#E8E8E8" stop-opacity="0.55"/>
<stop offset="1" stop-color="#E8E8E8" stop-opacity="0"/>
</linearGradient>
<linearGradient id="paint24wtfcoinbg1" x1="265.062" y1="257.861" x2="92.5421" y2="301.102" gradientUnits="userSpaceOnUse">
<stop stop-color="#1460CE"/>
<stop offset="0.53191" stop-color="#A9F8F8"/>
<stop offset="1" stop-color="#0ED4FF"/>
</linearGradient>
<linearGradient id="paint25wtfcoinbg1" x1="265.062" y1="257.861" x2="92.5421" y2="301.102" gradientUnits="userSpaceOnUse">
<stop stop-color="#1460CE"/>
<stop offset="0.53191" stop-color="#A9F8F8"/>
<stop offset="1" stop-color="#0ED4FF"/>
</linearGradient>
<linearGradient id="paint26wtfcoinbg1" x1="265.062" y1="257.861" x2="92.5421" y2="301.102" gradientUnits="userSpaceOnUse">
<stop stop-color="#1460CE"/>
<stop offset="0.53191" stop-color="#A9F8F8"/>
<stop offset="1" stop-color="#0ED4FF"/>
</linearGradient>
<linearGradient id="paint27wtfcoinbg1" x1="265.062" y1="257.861" x2="92.5421" y2="301.102" gradientUnits="userSpaceOnUse">
<stop stop-color="#1460CE"/>
<stop offset="0.53191" stop-color="#A9F8F8"/>
<stop offset="1" stop-color="#0ED4FF"/>
</linearGradient>
<linearGradient id="paint28wtfcoinbg1" x1="265.062" y1="257.861" x2="92.5421" y2="301.102" gradientUnits="userSpaceOnUse">
<stop stop-color="#1460CE"/>
<stop offset="0.53191" stop-color="#A9F8F8"/>
<stop offset="1" stop-color="#0ED4FF"/>
</linearGradient>
<linearGradient id="paint29wtfcoinbg1" x1="265.062" y1="257.861" x2="92.5421" y2="301.102" gradientUnits="userSpaceOnUse">
<stop stop-color="#1460CE"/>
<stop offset="0.53191" stop-color="#A9F8F8"/>
<stop offset="1" stop-color="#0ED4FF"/>
</linearGradient>
<linearGradient id="paint30wtfcoinbg1" x1="187.902" y1="282.051" x2="151.795" y2="184.957" gradientUnits="userSpaceOnUse">
<stop offset="0.00520833" stop-color="#00CCCC"/>
<stop offset="0.5625" stop-color="#3DA8C2"/>
<stop offset="1" stop-color="#6633FF"/>
</linearGradient>
<linearGradient id="paint31wtfcoinbg1" x1="182.911" y1="182.2" x2="160.774" y2="290.523" gradientUnits="userSpaceOnUse">
<stop stop-color="#E8E8E8" stop-opacity="0.55"/>
<stop offset="1" stop-color="#E8E8E8" stop-opacity="0"/>
</linearGradient>
</defs>
</svg>
