<svg width="14" height="15" viewBox="0 0 14 15" fill="none" xmlns="http://www.w3.org/2000/svg">
<circle cx="7" cy="7.83154" r="7" fill="url(#wtf_token)"/>
<path d="M8.09643 11.0511C7.77381 11.0666 7.45661 10.9652 7.20473 10.7662C6.9608 10.5529 6.8272 10.236 6.79987 9.82252C6.79987 9.81654 6.79987 9.81056 6.79987 9.80458L6.85554 5.9304C6.83934 5.53183 6.83023 5.45211 6.82821 5.43716C6.82153 5.37143 6.79225 5.30991 6.74521 5.26279C6.69764 5.22592 6.51748 5.12627 5.97497 5.12627H5.70776V4.6131H5.96991C6.51444 4.60812 6.87072 4.69083 7.08833 4.87318C7.23042 4.99928 7.32258 5.17084 7.34845 5.35745C7.35554 5.40428 7.36566 5.50592 7.38185 5.91845V5.9324L7.3272 9.80159C7.3444 10.0686 7.4193 10.2629 7.55088 10.3785C7.71378 10.4969 7.91501 10.5525 8.11667 10.535H8.37983L8.3859 11.0521H8.12376L8.09643 11.0511Z" fill="white"/>
<path d="M8.38311 9.62716H7.85882V5.78287C7.85882 5.19995 7.71914 4.77845 7.43372 4.52735C7.14829 4.27625 6.65841 4.1487 5.97218 4.1487H5.70801V3.63155H5.97218C6.80416 3.63155 7.39728 3.79895 7.78392 4.14272C8.17056 4.4865 8.39121 5.04849 8.38311 5.78387V9.62716Z" fill="white"/>
<path d="M8.11161 12.0546C7.34845 12.0546 6.7604 11.8862 6.36363 11.5564C5.92538 11.1827 5.70776 10.6277 5.70776 9.90232V6.05903H6.23509V9.90929C6.23509 10.4852 6.38489 10.8958 6.70473 11.1668C7.00837 11.4199 7.49015 11.5514 8.13691 11.5435H8.40007V12.0606H8.11161V12.0546Z" fill="white"/>
<defs>
<linearGradient id="wtf_token" x1="11.4253" y1="14.8315" x2="11.4253" y2="-0.694098" gradientUnits="userSpaceOnUse">
<stop stop-color="#04C6CE"/>
<stop offset="1" stop-color="#7767FA"/>
</linearGradient>
</defs>
</svg>
